<?xml version="1.0" encoding="UTF-8"?>
<svg version="1.1" xmlns="http://www.w3.org/2000/svg" width="612" height="408">
<path d="M0 0 C1.65322266 0.01740234 1.65322266 0.01740234 3.33984375 0.03515625 C4.44457031 0.04417969 5.54929687 0.05320313 6.6875 0.0625 C7.54214844 0.07410156 8.39679688 0.08570313 9.27734375 0.09765625 C12.19798717 5.69661897 14.55193685 11.27343855 16.65234375 17.22265625 C19.57247829 25.32660163 22.82373513 33.20511551 26.27734375 41.09765625 C27.07967902 42.96811588 27.87245958 44.84272493 28.65234375 46.72265625 C28.96945312 47.47804687 29.2865625 48.2334375 29.61328125 49.01171875 C30.27734375 51.09765625 30.27734375 51.09765625 30.27734375 55.09765625 C25.98734375 55.09765625 21.69734375 55.09765625 17.27734375 55.09765625 C15.29734375 49.65265625 15.29734375 49.65265625 13.27734375 44.09765625 C7.00734375 43.76765625 0.73734375 43.43765625 -5.72265625 43.09765625 C-6.19703125 44.70640625 -6.67140625 46.31515625 -7.16015625 47.97265625 C-8.59765625 52.84765625 -8.59765625 52.84765625 -9.72265625 55.09765625 C-14.01265625 55.09765625 -18.30265625 55.09765625 -22.72265625 55.09765625 C-21.60892759 48.74940289 -19.63751593 43.13093126 -17.17944336 37.17602539 C-15.18555096 32.32344145 -13.38010261 27.42860432 -11.66015625 22.47265625 C-3.88575142 0.13937415 -3.88575142 0.13937415 0 0 Z M3.27734375 18.09765625 C2.62495217 19.49043642 1.98073823 20.88704837 1.33984375 22.28515625 C0.80037109 23.45111328 0.80037109 23.45111328 0.25 24.640625 C-0.94908551 27.45595897 -0.94908551 27.45595897 -1.72265625 32.09765625 C1.90734375 32.09765625 5.53734375 32.09765625 9.27734375 32.09765625 C8.65975821 30.13697205 8.0330303 28.17916562 7.40234375 26.22265625 C7.05429687 25.13210937 6.70625 24.0415625 6.34765625 22.91796875 C5.46559144 20.01242902 5.46559144 20.01242902 3.27734375 18.09765625 Z " fill="#14DEDF" transform="translate(491.72265625,167.90234375)"/>
<path d="M0 0 C3.63 0 7.26 0 11 0 C11 0.99 11 1.98 11 3 C11.68449219 2.51660156 12.36898438 2.03320312 13.07421875 1.53515625 C18.4197584 -1.26964626 24.13250898 -0.80222194 30 0 C35.36803904 2.24421847 39.1072218 6.33754155 41.3671875 11.671875 C43.27822141 18.70259234 42.97962682 25.05413392 39.5 31.5 C36.38777502 36.01236349 33.37637256 38.70193745 28 40 C21.32431488 40.79695679 17.90267175 40.54160305 12 37 C11.67 42.94 11.34 48.88 11 55 C7.37 55 3.74 55 0 55 C0 36.85 0 18.7 0 0 Z M11.625 15.875 C10.7225111 18.94346227 11.10893997 20.94493703 12 24 C14.24386399 27.19319107 15.64679896 27.90367244 19.4375 28.9375 C23.46162581 29.0080987 24.96581396 28.60073089 28 26 C29.86660619 22.94555351 30 21.03720746 30 17.4375 C29.27543533 13.80769138 29.27543533 13.80769138 26.25 11.5625 C19.6958291 8.4114563 15.91385476 10.02656169 11.625 15.875 Z " fill="#672CD2" transform="translate(257,184)"/>
<path d="M0 0 C12.87 0 25.74 0 39 0 C39 12.64705882 39 12.64705882 35 17 C34.34 17 33.68 17 33 17 C32.773125 17.680625 32.54625 18.36125 32.3125 19.0625 C30.68773854 22.6988709 28.67196743 26.02829263 26 29 C25.34 29 24.68 29 24 29 C23.90847656 29.55171875 23.81695312 30.1034375 23.72265625 30.671875 C22.7980524 33.65059876 21.26279023 35.72778078 19.4375 38.25 C18.79683594 39.14203125 18.15617187 40.0340625 17.49609375 40.953125 C17.00238281 41.62859375 16.50867188 42.3040625 16 43 C16.69150146 42.99476318 17.38300293 42.98952637 18.09545898 42.98413086 C21.20946352 42.963425 24.32345361 42.95036037 27.4375 42.9375 C28.52611328 42.92912109 29.61472656 42.92074219 30.73632812 42.91210938 C31.77080078 42.90888672 32.80527344 42.90566406 33.87109375 42.90234375 C34.82943115 42.89710693 35.78776855 42.89187012 36.77514648 42.88647461 C39 43 39 43 40 44 C40 47.63 40 51.26 40 55 C26.47 55 12.94 55 -1 55 C-1 43.765625 -1 43.765625 2 40.0625 C2.63292969 39.24652344 3.26585937 38.43054688 3.91796875 37.58984375 C4.60503906 36.73519531 5.29210937 35.88054687 6 35 C7.44716379 33.04879712 8.88474386 31.09044858 10.3125 29.125 C10.96863281 28.24070313 11.62476563 27.35640625 12.30078125 26.4453125 C13.76186605 24.34269391 14.93618892 22.32202418 16 20 C16.66 20 17.32 20 18 20 C18.28875 19.21625 18.5775 18.4325 18.875 17.625 C20 15 20 15 22 13 C14.74 12.67 7.48 12.34 0 12 C0 8.04 0 4.08 0 0 Z " fill="#6929D9" transform="translate(333,168)"/>
<path d="M0 0 C1.82238243 2.59689496 1.33769813 4.37630988 0.9375 7.46875 C0.81761719 8.46261719 0.69773438 9.45648438 0.57421875 10.48046875 C0.46722656 11.23972656 0.36023438 11.99898437 0.25 12.78125 C-2.24332031 11.79551871 -4.70134752 10.80429591 -7.125 9.65625 C-10.47740766 8.53878078 -13.23792234 8.5210961 -16.75 8.78125 C-17.74 9.44125 -18.73 10.10125 -19.75 10.78125 C-19.65004227 13.2099373 -19.65004227 13.2099373 -18.75 15.78125 C-16.47550273 17.33617525 -16.47550273 17.33617525 -13.625 18.34375 C-12.13226563 18.96636719 -12.13226563 18.96636719 -10.609375 19.6015625 C-9.66578125 19.99085938 -8.7221875 20.38015625 -7.75 20.78125 C-2.89294269 23.06586584 1.90971316 25.74859777 4.25 30.78125 C5.13888856 35.94304144 5.04372314 40.96532592 2.6875 45.71875 C-0.24182649 49.39918584 -2.54275772 50.75554075 -6.75 52.78125 C-7.74 53.27625 -7.74 53.27625 -8.75 53.78125 C-17.69236702 54.45551995 -24.79792716 54.24557159 -32.75 49.78125 C-32.75 45.49125 -32.75 41.20125 -32.75 36.78125 C-27.75 37.78125 -27.75 37.78125 -25.75 39.78125 C-20.28526566 41.5410797 -16.467461 42.06476165 -10.75 40.78125 C-9.45366379 39.71479885 -9.45366379 39.71479885 -9.6875 37.21875 C-9.708125 36.414375 -9.72875 35.61 -9.75 34.78125 C-10.6678125 34.41773438 -11.585625 34.05421875 -12.53125 33.6796875 C-29.45683826 26.81721466 -29.45683826 26.81721466 -33.3125 20.03125 C-34.06619147 14.4323991 -33.72981183 9.15342602 -31.5625 3.90625 C-24.49203274 -4.38326334 -9.21282253 -6.41607283 0 0 Z " fill="#5E1CD5" transform="translate(168.75,170.21875)"/>
<path d="M0 0 C2.87386067 2.11664012 5.4071474 4.55308657 8 7 C9.39233903 8.19159514 10.78810099 9.37920403 12.1875 10.5625 C14.55388716 12.62443969 16.66397669 14.67528717 18.625 17.125 C20.47088898 19.35949719 22.03892734 20.95808804 24.25 22.75 C26.93828607 24.94950678 27.76281345 25.65234915 28.34375 28.953125 C28.7589645 35.05677822 28.7589645 35.05677822 26.6484375 37.6796875 C25.43775038 38.66637084 24.19725009 39.61728917 22.93359375 40.53515625 C20.93434475 42.04973883 19.5134878 43.61864237 17.9375 45.5625 C16.02134062 47.8896319 14.09722594 49.85744252 11.75 51.75 C8.86340001 53.88779286 8.86340001 53.88779286 7 57 C6.34 57 5.68 57 5 57 C4.34 58.32 3.68 59.64 3 61 C2.34 61 1.68 61 1 61 C1 61.66 1 62.32 1 63 C-2.79340581 63.99351105 -4.60961441 64.15468108 -8.3125 62.6875 C-11 61 -11 61 -12 59 C-12.57484509 55.98206328 -12.59360168 53.92081674 -10.89453125 51.28515625 C-9.01553526 49.09067452 -7.03856633 47.04843036 -5 45 C-4.46955078 44.46262207 -3.93910156 43.92524414 -3.39257812 43.37158203 C0.37812824 39.5535842 4.17983001 35.76846844 8 32 C5.08418332 28.41771093 2.10049481 25.05845344 -1.2578125 21.88671875 C-1.84022705 21.33008545 -2.4226416 20.77345215 -3.02270508 20.19995117 C-4.20028427 19.08148386 -5.39004804 17.97568365 -6.5925293 16.8840332 C-9.6506502 13.96125497 -10.88413368 12.46882046 -11.9296875 8.23828125 C-12.00027436 4.98736441 -11.97896745 3.54438672 -10 1 C-6.57291513 -1.57031365 -3.9803095 -1.30125503 0 0 Z " fill="#2DCFE0" transform="translate(90,167)"/>
<path d="M0 0 C4.20237012 2.14666526 6.69266122 5.07772124 8.6171875 9.296875 C9.27952887 13.62556272 9.64852207 17.91630251 9.6171875 22.296875 C8.6171875 23.296875 8.6171875 23.296875 6.20874023 23.41040039 C5.16661377 23.40516357 4.1244873 23.39992676 3.05078125 23.39453125 C1.92607422 23.39130859 0.80136719 23.38808594 -0.35742188 23.38476562 C-1.54142578 23.37638672 -2.72542969 23.36800781 -3.9453125 23.359375 C-5.13318359 23.35486328 -6.32105469 23.35035156 -7.54492188 23.34570312 C-10.49093476 23.33387175 -13.43684931 23.31738787 -16.3828125 23.296875 C-12.33605676 27.49938698 -12.33605676 27.49938698 -6.6953125 28.546875 C-2.28716893 28.51487396 0.64791196 27.12884833 4.6171875 25.296875 C5.9371875 25.296875 7.2571875 25.296875 8.6171875 25.296875 C8.6171875 28.596875 8.6171875 31.896875 8.6171875 35.296875 C1.27325968 40.0929095 -5.76911281 40.22986873 -14.3828125 39.296875 C-19.81593647 37.75281089 -23.82953005 34.68622391 -27.3828125 30.296875 C-30.19273745 24.54321915 -30.32608051 18.0162166 -28.765625 11.86328125 C-26.90679452 6.98590748 -24.34519056 3.26949008 -19.9921875 0.33203125 C-13.80273617 -2.12336486 -6.34232822 -1.87150669 0 0 Z M-15.2578125 11.296875 C-15.9590625 12.286875 -16.6603125 13.276875 -17.3828125 14.296875 C-12.42207828 15.61973746 -7.47169738 15.38580697 -2.3828125 15.296875 C-2.65315884 12.85970242 -2.65315884 12.85970242 -3.3828125 10.296875 C-8.04954958 7.18571694 -11.5847453 6.8724986 -15.2578125 11.296875 Z " fill="#6B2BDB" transform="translate(403.3828125,184.703125)"/>
<path d="M0 0 C3.63 0 7.26 0 11 0 C11.33 0.66 11.66 1.32 12 2 C12.99 1.34 13.98 0.68 15 0 C20.27992366 -0.62309658 26.21356787 -1.20629083 31.18359375 0.9453125 C34.35063119 3.45682848 35.80624292 6.23180712 37 10 C37.22705078 13.22973633 37.22705078 13.22973633 37.1953125 16.83203125 C37.18886719 18.12431641 37.18242187 19.41660156 37.17578125 20.74804688 C37.15907327 22.1028673 37.14214342 23.45768501 37.125 24.8125 C37.11496003 26.18684251 37.10583596 27.56119203 37.09765625 28.93554688 C37.07411242 32.29054317 37.04122567 35.64518199 37 39 C33.37 39 29.74 39 26 39 C25.93941406 37.37449219 25.87882812 35.74898437 25.81640625 34.07421875 C25.73199991 31.94530341 25.64735196 29.81639763 25.5625 27.6875 C25.52318359 26.61564453 25.48386719 25.54378906 25.44335938 24.43945312 C25.40146484 23.41142578 25.35957031 22.38339844 25.31640625 21.32421875 C25.27974854 20.37635498 25.24309082 19.42849121 25.20532227 18.4519043 C25.08569813 15.863829 25.08569813 15.863829 24 13 C20.75366476 10.8357765 19.75698557 10.62430144 16 11 C12.95344263 12.61554679 12.95344263 12.61554679 12.3125 14.7734375 C11.94025217 17.42570328 11.94347078 19.9469283 12 22.625 C12.05446377 28.16668847 11.64725632 33.49832131 11 39 C7.37 39 3.74 39 0 39 C0 26.13 0 13.26 0 0 Z " fill="#692BD5" transform="translate(417,184)"/>
<path d="M0 0 C0.9075 0.00257813 1.815 0.00515625 2.75 0.0078125 C4.11125 0.00394531 4.11125 0.00394531 5.5 0 C7.75 0.1328125 7.75 0.1328125 8.75 1.1328125 C8.82179964 2.65209288 8.83392007 4.17448732 8.8125 5.6953125 C8.80347656 6.52160156 8.79445313 7.34789062 8.78515625 8.19921875 C8.77355469 8.83730469 8.76195312 9.47539062 8.75 10.1328125 C9.46027344 10.12121094 10.17054688 10.10960937 10.90234375 10.09765625 C11.82144531 10.08863281 12.74054688 10.07960937 13.6875 10.0703125 C14.60402344 10.05871094 15.52054687 10.04710937 16.46484375 10.03515625 C18.75 10.1328125 18.75 10.1328125 19.75 11.1328125 C19.82179964 12.65209288 19.83392007 14.17448732 19.8125 15.6953125 C19.80347656 16.52160156 19.79445313 17.34789062 19.78515625 18.19921875 C19.77355469 18.83730469 19.76195312 19.47539062 19.75 20.1328125 C17.22946405 21.39308048 15.8957902 21.05155695 13.125 20.6953125 C12.30773437 20.59347656 11.49046875 20.49164063 10.6484375 20.38671875 C10.02195312 20.30292969 9.39546875 20.21914062 8.75 20.1328125 C8.8367572 22.75946153 8.94357981 25.38259332 9.0625 28.0078125 C9.08505859 28.75417969 9.10761719 29.50054687 9.13085938 30.26953125 C9.22811945 32.2324165 9.48042294 34.18609572 9.75 36.1328125 C13.3941774 38.5622641 15.46241272 38.29460825 19.75 38.1328125 C19.75 41.4328125 19.75 44.7328125 19.75 48.1328125 C15.4965841 50.25952045 12.38215597 50.84146323 7.75 50.1328125 C3.4971477 48.49580189 0.01537487 46.1601456 -2.25 42.1328125 C-3.11393656 39.29314909 -3.36880702 36.76579578 -3.34765625 33.8046875 C-3.34282227 32.60585937 -3.34282227 32.60585937 -3.33789062 31.3828125 C-3.32951172 30.5578125 -3.32113281 29.7328125 -3.3125 28.8828125 C-3.30798828 28.04234375 -3.30347656 27.201875 -3.29882812 26.3359375 C-3.28707961 24.26819849 -3.26914522 22.20049626 -3.25 20.1328125 C-4.219375 20.3184375 -5.18875 20.5040625 -6.1875 20.6953125 C-7.198125 20.8396875 -8.20875 20.9840625 -9.25 21.1328125 C-10.25 20.1328125 -10.25 20.1328125 -10.34765625 17.84765625 C-10.33605469 16.93113281 -10.32445312 16.01460937 -10.3125 15.0703125 C-10.30347656 14.15121094 -10.29445313 13.23210937 -10.28515625 12.28515625 C-10.27355469 11.57488281 -10.26195312 10.86460937 -10.25 10.1328125 C-7.94 10.1328125 -5.63 10.1328125 -3.25 10.1328125 C-3.26160156 9.49472656 -3.27320313 8.85664063 -3.28515625 8.19921875 C-3.29417969 7.37292969 -3.30320312 6.54664063 -3.3125 5.6953125 C-3.32410156 4.87160156 -3.33570313 4.04789063 -3.34765625 3.19921875 C-3.20972249 0.28054034 -2.91665713 0.17216379 0 0 Z " fill="#5D1BD0" transform="translate(309.25,173.8671875)"/>
<path d="M0 0 C0 3.96 0 7.92 0 12 C-5 11 -5 11 -7 10 C-9.11675644 10.06117444 -9.11675644 10.06117444 -11.4375 10.375 C-12.61119141 10.51035156 -12.61119141 10.51035156 -13.80859375 10.6484375 C-16.16946986 10.96651128 -16.16946986 10.96651128 -19 12 C-20.30802576 18.75387568 -20.30802576 18.75387568 -18 25 C-13.90309478 27.19291853 -10.74893365 27.08575087 -6.1875 26.625 C-5.02605469 26.51414063 -3.86460937 26.40328125 -2.66796875 26.2890625 C-1.78753906 26.19367188 -0.90710938 26.09828125 0 26 C0 29.63 0 33.26 0 37 C-6.30041828 40.15020914 -13.83117798 40.20349921 -20.625 38.2421875 C-24.45332924 36.45469554 -26.3607601 34.82489309 -28 31 C-28.66 31 -29.32 31 -30 31 C-33.1193379 25.42610114 -33.66388022 18.96874083 -32.3125 12.75 C-30.48471619 7.52776055 -28.50585518 3.62097926 -23.75 0.625 C-17.21117302 -2.36524156 -6.78971465 -2.26323822 0 0 Z " fill="#692DD4" transform="translate(208,185)"/>
<path d="M0 0 C3.63 0.33 7.26 0.66 11 1 C11 19.15 11 37.3 11 56 C7.04 56 3.08 56 -1 56 C-1.02463956 48.18546786 -1.04283105 40.37095812 -1.05493164 32.55639648 C-1.05997383 29.89558519 -1.06680736 27.23477668 -1.07543945 24.57397461 C-1.08751009 20.75894484 -1.09322929 16.94395156 -1.09765625 13.12890625 C-1.10281754 11.93100967 -1.10797882 10.7331131 -1.11329651 9.49891663 C-1.11337204 8.3978508 -1.11344757 7.29678497 -1.11352539 6.16235352 C-1.115746 5.18750504 -1.11796661 4.21265656 -1.12025452 3.20826721 C-1 1 -1 1 0 0 Z " fill="#15DDDF" transform="translate(525,167)"/>
<path d="M0 0 C3.63 0 7.26 0 11 0 C11.33 0.99 11.66 1.98 12 3 C12.495 2.505 12.99 2.01 13.5 1.5 C17.11630158 -0.66978095 19.82231616 -0.20888419 24 0 C24 3.63 24 7.26 24 11 C21.75390625 11.61848958 19.5078125 12.23697917 17.26171875 12.85546875 C14.08919411 14.46090868 13.36280093 15.69520774 12 19 C11.51362838 22.43401157 11.39819412 25.84800897 11.3125 29.3125 C11.27833984 30.24384766 11.24417969 31.17519531 11.20898438 32.13476562 C11.12685112 34.42276341 11.06174003 36.71136113 11 39 C7.37 39 3.74 39 0 39 C0 26.13 0 13.26 0 0 Z " fill="#5D17D9" transform="translate(213,184)"/>
<path d="M0 0 C3.17849398 2.08872462 5.93322056 4.35028341 8.1875 7.4375 C8.4375 10 8.4375 10 7.1875 12.4375 C5.78547543 13.67649846 4.37270909 14.90850495 2.87890625 16.03515625 C0.39298503 18.09623181 -1.51490112 20.55961324 -3.515625 23.08203125 C-3.94359375 23.52933594 -4.3715625 23.97664063 -4.8125 24.4375 C-5.4725 24.4375 -6.1325 24.4375 -6.8125 24.4375 C-7.4725 25.7575 -8.1325 27.0775 -8.8125 28.4375 C-9.4725 28.4375 -10.1325 28.4375 -10.8125 28.4375 C-10.8125 29.0975 -10.8125 29.7575 -10.8125 30.4375 C-14.60590581 31.43101105 -16.42211441 31.59218108 -20.125 30.125 C-22.8125 28.4375 -22.8125 28.4375 -23.8125 26.4375 C-24.39313224 23.38918075 -24.39952888 21.33814705 -22.671875 18.6875 C-20.80212558 16.50915116 -18.83438552 14.47623456 -16.8125 12.4375 C-15.80160831 11.38978104 -14.79122494 10.34157147 -13.78125 9.29296875 C-12.70982194 8.19385942 -11.63690201 7.09620242 -10.5625 6 C-10.04333008 5.46745605 -9.52416016 4.93491211 -8.98925781 4.38623047 C-3.51960857 -1.09229231 -3.51960857 -1.09229231 0 0 Z " fill="#5F16D8" transform="translate(101.8125,199.5625)"/>
<path d="M0 0 C2.97 0 5.94 0 9 0 C9 1.32 9 2.64 9 4 C10.32 4.33 11.64 4.66 13 5 C13.33 4.01 13.66 3.02 14 2 C14.598125 2.185625 15.19625 2.37125 15.8125 2.5625 C18.16408762 3.22093687 18.16408762 3.22093687 21 2 C21 2.99 21 3.98 21 5 C21.99 5.33 22.98 5.66 24 6 C23.67 6.66 23.34 7.32 23 8 C19.7 8 16.4 8 13 8 C12.8453125 9.423125 12.8453125 9.423125 12.6875 10.875 C12.0089081 15.73491554 10.4914524 20.33803874 9 25 C9.33 25.33 9.66 25.66 10 26 C10.04080783 27.99958364 10.04254356 30.00045254 10 32 C8.02 32.495 8.02 32.495 6 33 C5.505 35.475 5.505 35.475 5 38 C5.99 38.33 6.98 38.66 8 39 C7.98839844 39.84304687 7.97679687 40.68609375 7.96484375 41.5546875 C7.95582031 42.65039062 7.94679688 43.74609375 7.9375 44.875 C7.92589844 45.96554688 7.91429687 47.05609375 7.90234375 48.1796875 C7.80255697 50.95177546 7.80255697 50.95177546 9 53 C6.03 53 3.06 53 0 53 C0 35.51 0 18.02 0 0 Z " fill="#5F1CD4" transform="translate(258,185)"/>
<path d="M0 0 C1.65322266 0.01740234 1.65322266 0.01740234 3.33984375 0.03515625 C4.44457031 0.04417969 5.54929687 0.05320313 6.6875 0.0625 C7.54214844 0.07410156 8.39679688 0.08570313 9.27734375 0.09765625 C12.27966171 5.85099684 14.71243812 11.61805207 16.90234375 17.72265625 C17.20140625 18.5425 17.50046875 19.36234375 17.80859375 20.20703125 C19.36249053 24.48368523 20.86352683 28.77221637 22.27734375 33.09765625 C21.28734375 33.09765625 20.29734375 33.09765625 19.27734375 33.09765625 C19.27734375 32.10765625 19.27734375 31.11765625 19.27734375 30.09765625 C18.61734375 30.09765625 17.95734375 30.09765625 17.27734375 30.09765625 C16.78234375 27.12765625 16.78234375 27.12765625 16.27734375 24.09765625 C15.61734375 24.09765625 14.95734375 24.09765625 14.27734375 24.09765625 C14.29796875 23.12828125 14.31859375 22.15890625 14.33984375 21.16015625 C14.63352874 18.2229973 14.63352874 18.2229973 13.27734375 17.09765625 C10.71293982 20.05060623 9.29955049 21.74102622 9.234375 25.72265625 C9.49865371 28.20335238 9.83113435 30.64350456 10.27734375 33.09765625 C8.32044716 33.3190788 6.36172423 33.52441305 4.40234375 33.72265625 C2.76652344 33.89667969 2.76652344 33.89667969 1.09765625 34.07421875 C-0.29839844 34.08582031 -0.29839844 34.08582031 -1.72265625 34.09765625 C-2.38265625 33.43765625 -3.04265625 32.77765625 -3.72265625 32.09765625 C0.23734375 31.76765625 4.19734375 31.43765625 8.27734375 31.09765625 C7.63796875 29.30328125 6.99859375 27.50890625 6.33984375 25.66015625 C5.98019531 24.65082031 5.62054688 23.64148438 5.25 22.6015625 C4.50856736 20.1945188 4.50856736 20.1945188 3.27734375 19.09765625 C1.95734375 23.05765625 0.63734375 27.01765625 -0.72265625 31.09765625 C-1.05265625 31.09765625 -1.38265625 31.09765625 -1.72265625 31.09765625 C-2.33095603 21.77039296 0.46561545 14.32304819 6.27734375 7.09765625 C5.61734375 6.76765625 4.95734375 6.43765625 4.27734375 6.09765625 C5.26734375 5.76765625 6.25734375 5.43765625 7.27734375 5.09765625 C7.27734375 4.10765625 7.27734375 3.11765625 7.27734375 2.09765625 C4.63734375 2.42765625 1.99734375 2.75765625 -0.72265625 3.09765625 C-2.38754807 7.02204411 -3.59469662 10.98866044 -4.72265625 15.09765625 C-5.38265625 15.09765625 -6.04265625 15.09765625 -6.72265625 15.09765625 C-6.72265625 16.74765625 -6.72265625 18.39765625 -6.72265625 20.09765625 C-7.38265625 20.09765625 -8.04265625 20.09765625 -8.72265625 20.09765625 C-8.72265625 21.41765625 -8.72265625 22.73765625 -8.72265625 24.09765625 C-9.38265625 24.09765625 -10.04265625 24.09765625 -10.72265625 24.09765625 C-10.84640625 25.08765625 -10.97015625 26.07765625 -11.09765625 27.09765625 C-11.77154873 31.82453063 -12.57845929 36.80926234 -14.72265625 41.09765625 C-15.38265625 41.09765625 -16.04265625 41.09765625 -16.72265625 41.09765625 C-16.68140625 42.17015625 -16.64015625 43.24265625 -16.59765625 44.34765625 C-16.71123875 47.7551311 -16.93538989 49.30505256 -18.72265625 52.09765625 C-16.41265625 52.09765625 -14.10265625 52.09765625 -11.72265625 52.09765625 C-10.1312754 47.92028151 -9.50987567 44.5660484 -9.72265625 40.09765625 C-9.16094727 40.25613037 -8.59923828 40.41460449 -8.02050781 40.57788086 C-5.62591196 41.11953987 -3.40827072 41.30407099 -0.95703125 41.4140625 C-0.06757813 41.45595703 0.821875 41.49785156 1.73828125 41.54101562 C3.11886719 41.59999023 3.11886719 41.59999023 4.52734375 41.66015625 C5.46320313 41.70333984 6.3990625 41.74652344 7.36328125 41.79101562 C9.66783016 41.89683675 11.97248214 41.99892182 14.27734375 42.09765625 C13.78234375 43.08765625 13.78234375 43.08765625 13.27734375 44.09765625 C7.00734375 43.76765625 0.73734375 43.43765625 -5.72265625 43.09765625 C-6.19703125 44.70640625 -6.67140625 46.31515625 -7.16015625 47.97265625 C-8.59765625 52.84765625 -8.59765625 52.84765625 -9.72265625 55.09765625 C-14.01265625 55.09765625 -18.30265625 55.09765625 -22.72265625 55.09765625 C-21.60892759 48.74940289 -19.63751593 43.13093126 -17.17944336 37.17602539 C-15.18555096 32.32344145 -13.38010261 27.42860432 -11.66015625 22.47265625 C-3.88575142 0.13937415 -3.88575142 0.13937415 0 0 Z " fill="#21DDDE" transform="translate(491.72265625,167.90234375)"/>
<path d="M0 0 C3.63 0 7.26 0 11 0 C12.81565436 1.81565436 12.12861899 4.31269962 12.13894653 6.72888184 C12.1369223 7.52991333 12.13489807 8.33094482 12.1328125 9.15625 C12.13376923 9.97371704 12.13472595 10.79118408 12.13571167 11.63342285 C12.13639345 13.36515378 12.13453929 15.09688724 12.13037109 16.82861328 C12.12502279 19.48866482 12.13031612 22.1485475 12.13671875 24.80859375 C12.13605797 26.48697954 12.1347768 28.16536523 12.1328125 29.84375 C12.13483673 30.64478149 12.13686096 31.44581299 12.13894653 32.27111816 C12.11495079 37.88504921 12.11495079 37.88504921 11 39 C7.37 39 3.74 39 0 39 C0 26.13 0 13.26 0 0 Z " fill="#5E17DA" transform="translate(240,184)"/>
<path d="M0 0 C0.268125 0.78375 0.53625 1.5675 0.8125 2.375 C1.84814432 5.28114923 1.84814432 5.28114923 5 7 C5.66 6.34 6.32 5.68 7 5 C9.43017578 4.77294922 9.43017578 4.77294922 12.4453125 4.8046875 C14.05986328 4.81435547 14.05986328 4.81435547 15.70703125 4.82421875 C16.83496094 4.84097656 17.96289062 4.85773438 19.125 4.875 C20.82849609 4.88853516 20.82849609 4.88853516 22.56640625 4.90234375 C25.37781299 4.92596902 28.18880298 4.95890987 31 5 C31 8.3 31 11.6 31 15 C26.39184965 15.02478935 21.78373847 15.0429023 17.17553711 15.05493164 C15.60912398 15.05994856 14.0427155 15.06676362 12.47631836 15.07543945 C10.21987761 15.08762094 7.96349898 15.09325481 5.70703125 15.09765625 C4.66298882 15.10539818 4.66298882 15.10539818 3.59785461 15.11329651 C-0.06470152 15.11371546 -3.43868858 14.87148095 -7 14 C-6.814375 13.4225 -6.62875 12.845 -6.4375 12.25 C-5.81795531 10.03051082 -5.81795531 10.03051082 -6.625 8.0625 C-7 6 -7 6 -5.6875 3.3125 C-3.83755665 0.77739245 -3.13506944 0 0 0 Z " fill="#5D19D5" transform="translate(341,207)"/>
<path d="M0 0 C1.8871875 0.061875 1.8871875 0.061875 3.8125 0.125 C4.1425 1.115 4.4725 2.105 4.8125 3.125 C6.1325 2.795 7.4525 2.465 8.8125 2.125 C9.8025 3.61 9.8025 3.61 10.8125 5.125 C11.8025 5.125 12.7925 5.125 13.8125 5.125 C17.02910494 9.94990742 16.47546514 15.45157979 16.8125 21.125 C12.52088953 21.18283842 8.22937855 21.2185412 3.9375 21.25 C2.71417969 21.26675781 1.49085938 21.28351563 0.23046875 21.30078125 C-1.51943359 21.31044922 -1.51943359 21.31044922 -3.3046875 21.3203125 C-4.38347168 21.33078613 -5.46225586 21.34125977 -6.57373047 21.35205078 C-9.1875 21.125 -9.1875 21.125 -11.1875 19.125 C-9.5375 19.125 -7.8875 19.125 -6.1875 19.125 C-6.85618314 16.01167752 -6.85618314 16.01167752 -9.25 14.9375 C-9.889375 14.669375 -10.52875 14.40125 -11.1875 14.125 C-5.65782059 13.41466569 -0.68766964 12.82232824 4.8125 14.125 C4.8125 11.155 4.8125 8.185 4.8125 5.125 C3.8225 5.785 2.8325 6.445 1.8125 7.125 C-0.1953125 6.98828125 -0.1953125 6.98828125 -2.3125 6.4375 C-3.36824219 6.18419922 -3.36824219 6.18419922 -4.4453125 5.92578125 C-5.02023437 5.66152344 -5.59515625 5.39726562 -6.1875 5.125 C-6.5175 4.135 -6.8475 3.145 -7.1875 2.125 C-4.09861478 0.06574319 -3.47814073 -0.1140374 0 0 Z " fill="#6C32D7" transform="translate(396.1875,185.875)"/>
<path d="M0 0 C0.33 1.65 0.66 3.3 1 5 C1.99 5 2.98 5 4 5 C6.46464489 11.62373315 6.17619365 18.00119653 6 25 C6 26.3034381 6.01117065 27.60693886 6.03515625 28.91015625 C6.06094341 30.9399742 6.03221787 32.97027394 6 35 C5 36 5 36 1.9375 36.0625 C0.968125 36.041875 -0.00125 36.02125 -1 36 C-1.01981934 35.36497559 -1.03963867 34.72995117 -1.06005859 34.07568359 C-1.15581122 31.17506674 -1.26528546 28.27512095 -1.375 25.375 C-1.4059375 24.37597656 -1.436875 23.37695312 -1.46875 22.34765625 C-1.67239148 17.22267899 -1.98611183 12.79731083 -4 8 C-6.97 7.67 -9.94 7.34 -13 7 C-12.34 6.566875 -11.68 6.13375 -11 5.6875 C-10.01 4.8521875 -10.01 4.8521875 -9 4 C-9 3.01 -9 2.02 -9 1 C-6.04335481 -0.4783226 -3.25770263 -0.06032783 0 0 Z " fill="#5E17D8" transform="translate(446,185)"/>
<path d="M0 0 C3.63 0 7.26 0 11 0 C11 0.99 11 1.98 11 3 C11.67933594 2.51402344 12.35867188 2.02804688 13.05859375 1.52734375 C16.61284812 -0.31822525 19.07418628 -0.43323442 23.0625 -0.4375 C24.27035156 -0.45683594 25.47820312 -0.47617188 26.72265625 -0.49609375 C30.51127785 0.07739248 31.65773303 1.0502623 34 4 C33.50886719 4.53109375 33.01773438 5.0621875 32.51171875 5.609375 C30.56990223 8.68015462 30.69508306 10.64921396 30.8125 14.25 C30.83957031 15.32765625 30.86664063 16.4053125 30.89453125 17.515625 C30.94673828 18.74539062 30.94673828 18.74539062 31 20 C29 18 29 18 28.125 15.5 C27.20533561 12.95777917 27.20533561 12.95777917 25.3125 11.625 C21.43431689 10.5768424 17.57691788 11.21154106 14 13 C14 11.68 14 10.36 14 9 C17.3 8.67 20.6 8.34 24 8 C23.34 7.34 22.68 6.68 22 6 C22 5.01 22 4.02 22 3 C21.21625 3.350625 20.4325 3.70125 19.625 4.0625 C18.325625 4.5265625 18.325625 4.5265625 17 5 C16.34 4.67 15.68 4.34 15 4 C14.67 4.66 14.34 5.32 14 6 C11.03 5.505 11.03 5.505 8 5 C8.66 4.67 9.32 4.34 10 4 C10 3.01 10 2.02 10 1 C7.03 1 4.06 1 1 1 C1 18.49 1 35.98 1 54 C3.97 54 6.94 54 10 54 C10 54.33 10 54.66 10 55 C6.7 55 3.4 55 0 55 C0 36.85 0 18.7 0 0 Z " fill="#8F62DB" transform="translate(257,184)"/>
<path d="M0 0 C1.82238243 2.59689496 1.33769813 4.37630988 0.9375 7.46875 C0.81761719 8.46261719 0.69773438 9.45648438 0.57421875 10.48046875 C0.46722656 11.23972656 0.36023438 11.99898437 0.25 12.78125 C-2.24332031 11.79551871 -4.70134752 10.80429591 -7.125 9.65625 C-10.47740766 8.53878078 -13.23792234 8.5210961 -16.75 8.78125 C-17.74 9.44125 -18.73 10.10125 -19.75 10.78125 C-19.42 12.76125 -19.09 14.74125 -18.75 16.78125 C-20.73 17.11125 -22.71 17.44125 -24.75 17.78125 C-25.41 16.79125 -26.07 15.80125 -26.75 14.78125 C-25.76 14.12125 -24.77 13.46125 -23.75 12.78125 C-23.09 13.11125 -22.43 13.44125 -21.75 13.78125 C-21.75 11.80125 -21.75 9.82125 -21.75 7.78125 C-20.76 7.45125 -19.77 7.12125 -18.75 6.78125 C-18.42 4.80125 -18.09 2.82125 -17.75 0.78125 C-18.74 0.78125 -19.73 0.78125 -20.75 0.78125 C-22.4375 -0.71875 -22.4375 -0.71875 -23.75 -2.21875 C-16.22338012 -3.72407398 -6.68828541 -4.65791305 0 0 Z " fill="#6524D3" transform="translate(168.75,170.21875)"/>
<path d="M0 0 C1.75 0.125 1.75 0.125 4 1 C7.89026878 6.11292468 9.14043343 9.7116453 9.125 16.0625 C9.12757813 17.12597656 9.13015625 18.18945312 9.1328125 19.28515625 C9 22 9 22 8 24 C7.34 24 6.68 24 6 24 C4.37485532 25.45833358 4.37485532 25.45833358 3 27 C2.01 26.67 1.02 26.34 0 26 C0 24.35 0 22.7 0 21 C-0.66 21.33 -1.32 21.66 -2 22 C-2.89739214 17.96173538 -3.14920777 13.99740231 -3.25 9.875 C-3.27578125 8.86179688 -3.3015625 7.84859375 -3.328125 6.8046875 C-2.95882646 3.64806427 -2.11028587 2.32131445 0 0 Z M-4 22 C-3.34 22 -2.68 22 -2 22 C-2 23.32 -2 24.64 -2 26 C-3.32 25.34 -4.64 24.68 -6 24 C-5.34 23.34 -4.68 22.68 -4 22 Z " fill="#6727D5" transform="translate(290,188)"/>
<path d="M0 0 C2.35125 0.061875 2.35125 0.061875 4.75 0.125 C4.75 4.085 4.75 8.045 4.75 12.125 C-0.25 11.125 -0.25 11.125 -2.25 10.125 C-4.33293691 10.18651113 -4.33293691 10.18651113 -6.625 10.5 C-7.39585937 10.59023437 -8.16671875 10.68046875 -8.9609375 10.7734375 C-11.10515749 11.10275456 -13.15663641 11.56103447 -15.25 12.125 C-15.58 13.775 -15.91 15.425 -16.25 17.125 C-17.24 16.465 -18.23 15.805 -19.25 15.125 C-20.24 15.62 -20.24 15.62 -21.25 16.125 C-21.91 15.795 -22.57 15.465 -23.25 15.125 C-23.25 14.135 -23.25 13.145 -23.25 12.125 C-21.91666667 10.79166667 -20.58333333 9.45833333 -19.25 8.125 C-18.18988057 6.15620677 -17.17529151 4.16064133 -16.25 2.125 C-14.64125 2.186875 -14.64125 2.186875 -13 2.25 C-9.44520294 2.40355223 -9.44520294 2.40355223 -7.34375 1.125 C-4.74860229 -0.11447353 -2.85960004 -0.07525263 0 0 Z " fill="#6021D1" transform="translate(203.25,184.875)"/>
<path d="M0 0 C0.9075 0.00257813 1.815 0.00515625 2.75 0.0078125 C4.11125 0.00394531 4.11125 0.00394531 5.5 0 C7.75 0.1328125 7.75 0.1328125 8.75 1.1328125 C8.82179964 2.65209288 8.83392007 4.17448732 8.8125 5.6953125 C8.80347656 6.52160156 8.79445313 7.34789062 8.78515625 8.19921875 C8.77355469 8.83730469 8.76195312 9.47539062 8.75 10.1328125 C9.46027344 10.12121094 10.17054688 10.10960937 10.90234375 10.09765625 C11.82144531 10.08863281 12.74054688 10.07960937 13.6875 10.0703125 C14.60402344 10.05871094 15.52054687 10.04710937 16.46484375 10.03515625 C18.75 10.1328125 18.75 10.1328125 19.75 11.1328125 C19.82179964 12.65209288 19.83392007 14.17448732 19.8125 15.6953125 C19.80347656 16.52160156 19.79445313 17.34789062 19.78515625 18.19921875 C19.77355469 18.83730469 19.76195312 19.47539062 19.75 20.1328125 C17.22946405 21.39308048 15.8957902 21.05155695 13.125 20.6953125 C12.30773437 20.59347656 11.49046875 20.49164063 10.6484375 20.38671875 C10.02195312 20.30292969 9.39546875 20.21914062 8.75 20.1328125 C8.75 19.1428125 8.75 18.1528125 8.75 17.1328125 C11.72 17.4628125 14.69 17.7928125 17.75 18.1328125 C17.75 16.4828125 17.75 14.8328125 17.75 13.1328125 C17.13511719 13.16761719 16.52023437 13.20242187 15.88671875 13.23828125 C14.67435547 13.27888672 14.67435547 13.27888672 13.4375 13.3203125 C12.63699219 13.35511719 11.83648437 13.38992187 11.01171875 13.42578125 C8.27148416 13.07082858 7.45828921 12.23914968 5.75 10.1328125 C2.6754644 10.9092057 2.6754644 10.9092057 0.75 13.1328125 C0.09 12.1428125 -0.57 11.1528125 -1.25 10.1328125 C-1.58 10.4628125 -1.91 10.7928125 -2.25 11.1328125 C-4.58297433 11.17374187 -6.91705225 11.17522973 -9.25 11.1328125 C-9.25 13.7728125 -9.25 16.4128125 -9.25 19.1328125 C-6.94 19.1328125 -4.63 19.1328125 -2.25 19.1328125 C-2.25 25.4028125 -2.25 31.6728125 -2.25 38.1328125 C-2.58 38.1328125 -2.91 38.1328125 -3.25 38.1328125 C-3.25 32.1928125 -3.25 26.2528125 -3.25 20.1328125 C-5.23 20.4628125 -7.21 20.7928125 -9.25 21.1328125 C-10.25 20.1328125 -10.25 20.1328125 -10.34765625 17.84765625 C-10.33605469 16.93113281 -10.32445312 16.01460937 -10.3125 15.0703125 C-10.30347656 14.15121094 -10.29445313 13.23210937 -10.28515625 12.28515625 C-10.27355469 11.57488281 -10.26195312 10.86460937 -10.25 10.1328125 C-7.94 10.1328125 -5.63 10.1328125 -3.25 10.1328125 C-3.26160156 9.49472656 -3.27320313 8.85664063 -3.28515625 8.19921875 C-3.29417969 7.37292969 -3.30320312 6.54664063 -3.3125 5.6953125 C-3.32410156 4.87160156 -3.33570313 4.04789063 -3.34765625 3.19921875 C-3.20972249 0.28054034 -2.91665713 0.17216379 0 0 Z " fill="#8454D9" transform="translate(309.25,173.8671875)"/>
<path d="M0 0 C1.65322266 0.01740234 1.65322266 0.01740234 3.33984375 0.03515625 C4.44457031 0.04417969 5.54929687 0.05320313 6.6875 0.0625 C7.54214844 0.07410156 8.39679688 0.08570313 9.27734375 0.09765625 C9.27734375 0.42765625 9.27734375 0.75765625 9.27734375 1.09765625 C5.97734375 1.09765625 2.67734375 1.09765625 -0.72265625 1.09765625 C-0.90441406 2.02449219 -1.08617187 2.95132813 -1.2734375 3.90625 C-1.52480469 5.10378906 -1.77617187 6.30132812 -2.03515625 7.53515625 C-2.40060547 9.32759766 -2.40060547 9.32759766 -2.7734375 11.15625 C-3.08667969 12.12691406 -3.39992188 13.09757813 -3.72265625 14.09765625 C-4.71265625 14.42765625 -5.70265625 14.75765625 -6.72265625 15.09765625 C-6.72265625 16.74765625 -6.72265625 18.39765625 -6.72265625 20.09765625 C-7.38265625 20.09765625 -8.04265625 20.09765625 -8.72265625 20.09765625 C-8.72265625 21.41765625 -8.72265625 22.73765625 -8.72265625 24.09765625 C-9.38265625 24.09765625 -10.04265625 24.09765625 -10.72265625 24.09765625 C-10.84640625 25.08765625 -10.97015625 26.07765625 -11.09765625 27.09765625 C-11.77154873 31.82453063 -12.57845929 36.80926234 -14.72265625 41.09765625 C-15.38265625 41.09765625 -16.04265625 41.09765625 -16.72265625 41.09765625 C-16.68140625 42.17015625 -16.64015625 43.24265625 -16.59765625 44.34765625 C-16.71123875 47.7551311 -16.93538989 49.30505256 -18.72265625 52.09765625 C-16.41265625 52.09765625 -14.10265625 52.09765625 -11.72265625 52.09765625 C-10.1312754 47.92028151 -9.50987567 44.5660484 -9.72265625 40.09765625 C-9.16094727 40.25613037 -8.59923828 40.41460449 -8.02050781 40.57788086 C-5.62591196 41.11953987 -3.40827072 41.30407099 -0.95703125 41.4140625 C-0.06757813 41.45595703 0.821875 41.49785156 1.73828125 41.54101562 C3.11886719 41.59999023 3.11886719 41.59999023 4.52734375 41.66015625 C5.46320313 41.70333984 6.3990625 41.74652344 7.36328125 41.79101562 C9.66783016 41.89683675 11.97248214 41.99892182 14.27734375 42.09765625 C13.78234375 43.08765625 13.78234375 43.08765625 13.27734375 44.09765625 C7.00734375 43.76765625 0.73734375 43.43765625 -5.72265625 43.09765625 C-6.19703125 44.70640625 -6.67140625 46.31515625 -7.16015625 47.97265625 C-8.59765625 52.84765625 -8.59765625 52.84765625 -9.72265625 55.09765625 C-14.01265625 55.09765625 -18.30265625 55.09765625 -22.72265625 55.09765625 C-21.60892759 48.74940289 -19.63751593 43.13093126 -17.17944336 37.17602539 C-15.18555096 32.32344145 -13.38010261 27.42860432 -11.66015625 22.47265625 C-3.88575142 0.13937415 -3.88575142 0.13937415 0 0 Z " fill="#55D8DD" transform="translate(491.72265625,167.90234375)"/>
<path d="M0 0 C3.37329915 1.39584792 5.04232662 2.92365611 7 6 C8.13917218 9.41751653 8.11338481 12.03487937 8.09765625 15.63671875 C8.09443359 16.93544922 8.09121094 18.23417969 8.08789062 19.57226562 C8.07953531 20.94401108 8.07107037 22.31575587 8.0625 23.6875 C8.05748335 25.07096195 8.05292073 26.45442563 8.04882812 27.83789062 C8.03702529 31.22530395 8.02056019 34.61263033 8 38 C4.37 38 0.74 38 -3 38 C-3.06058594 36.37449219 -3.12117188 34.74898437 -3.18359375 33.07421875 C-3.26800009 30.94530341 -3.35264804 28.81639763 -3.4375 26.6875 C-3.47681641 25.61564453 -3.51613281 24.54378906 -3.55664062 23.43945312 C-3.59853516 22.41142578 -3.64042969 21.38339844 -3.68359375 20.32421875 C-3.72025146 19.37635498 -3.75690918 18.42849121 -3.79467773 17.4519043 C-3.91430187 14.863829 -3.91430187 14.863829 -5 12 C-8.24633524 9.8357765 -9.24301443 9.62430144 -13 10 C-16.02596264 11.61194766 -16.02596264 11.61194766 -16.6875 13.6875 C-17.08762527 16.20995148 -17.08762527 16.20995148 -16.9375 19.625 C-17 23 -17 23 -19 25 C-19.1079859 22.56131832 -19.18726589 20.12740867 -19.25 17.6875 C-19.28351563 16.99720703 -19.31703125 16.30691406 -19.3515625 15.59570312 C-19.45017972 10.49226174 -19.45017972 10.49226174 -17.203125 8.03515625 C-14.03984786 6.54886468 -11.45187921 6.7534372 -8 7 C-7.2575 7.04125 -6.515 7.0825 -5.75 7.125 C-2.6969067 8.65154665 -2.20368602 10.86169885 -1 14 C-0.64183347 17.800343 -0.7165654 21.5622145 -0.8125 25.375 C-0.83280273 26.90833984 -0.83280273 26.90833984 -0.85351562 28.47265625 C-0.88869783 30.98232049 -0.93792461 33.4908809 -1 36 C1.97 35.505 1.97 35.505 5 35 C5.33 32.36 5.66 29.72 6 27 C5.34 26.67 4.68 26.34 4 26 C4.33 25.67 4.66 25.34 5 25 C5.33093645 18.28393666 5.23096866 11.61645655 4 5 C3.01 5 2.02 5 1 5 C0.67 5.66 0.34 6.32 0 7 C0 4.69 0 2.38 0 0 Z " fill="#6940C6" transform="translate(446,185)"/>
<path d="M0 0 C3.46926395 1.15642132 3.97198451 2.01694644 6 4.9375 C7.94401596 7.7269604 9.10177325 9.06784883 12 11 C13.85753812 14.23349228 15 16.24413583 15 20 C15.99 20 16.98 20 18 20 C18.33 21.65 18.66 23.3 19 25 C19.99 25 20.98 25 22 25 C22.3403125 26.0828125 22.3403125 26.0828125 22.6875 27.1875 C24.24831013 30.53209313 26.3031287 32.51603959 29 35 C28.67 35.66 28.34 36.32 28 37 C27.54109375 36.50628906 27.0821875 36.01257813 26.609375 35.50390625 C25.68898438 34.54291016 25.68898438 34.54291016 24.75 33.5625 C24.14671875 32.92441406 23.5434375 32.28632813 22.921875 31.62890625 C20.85236501 29.87487034 19.57860486 29.61594205 17 29 C15.58670917 27.41846026 14.18419518 25.82509761 12.85546875 24.171875 C9.84341782 20.64619013 6.43503404 17.52204277 3.07421875 14.33203125 C-0.80761806 9.96770625 -0.0929529 5.57717421 0 0 Z " fill="#3AAFE7" transform="translate(81,170)"/>
<path d="M0 0 C3.17849398 2.08872462 5.93322056 4.35028341 8.1875 7.4375 C8.4375 10 8.4375 10 7.1875 12.4375 C5.78547543 13.67649846 4.37270909 14.90850495 2.87890625 16.03515625 C0.39298503 18.09623181 -1.51490112 20.55961324 -3.515625 23.08203125 C-3.94359375 23.52933594 -4.3715625 23.97664063 -4.8125 24.4375 C-5.4725 24.4375 -6.1325 24.4375 -6.8125 24.4375 C-7.4725 25.7575 -8.1325 27.0775 -8.8125 28.4375 C-9.4725 28.4375 -10.1325 28.4375 -10.8125 28.4375 C-10.8125 29.0975 -10.8125 29.7575 -10.8125 30.4375 C-12.7925 30.7675 -14.7725 31.0975 -16.8125 31.4375 C-17.1425 30.7775 -17.4725 30.1175 -17.8125 29.4375 C-16.1625 29.4375 -14.5125 29.4375 -12.8125 29.4375 C-12.8125 28.1175 -12.8125 26.7975 -12.8125 25.4375 C-10.19619776 23.52830647 -7.88616722 22.46205574 -4.8125 21.4375 C-4.8125 20.7775 -4.8125 20.1175 -4.8125 19.4375 C-4.1525 19.4375 -3.4925 19.4375 -2.8125 19.4375 C-3.1425 18.4475 -3.4725 17.4575 -3.8125 16.4375 C-2.4925 16.4375 -1.1725 16.4375 0.1875 16.4375 C0.1875 15.7775 0.1875 15.1175 0.1875 14.4375 C1.1775 14.4375 2.1675 14.4375 3.1875 14.4375 C3.1875 13.1175 3.1875 11.7975 3.1875 10.4375 C3.8475 10.1075 4.5075 9.7775 5.1875 9.4375 C5.1875 8.7775 5.1875 8.1175 5.1875 7.4375 C3.8675 6.7775 2.5475 6.1175 1.1875 5.4375 C1.1875 4.7775 1.1875 4.1175 1.1875 3.4375 C0.1975 3.1075 -0.7925 2.7775 -1.8125 2.4375 C-1.8125 3.4275 -1.8125 4.4175 -1.8125 5.4375 C-2.4725 6.0975 -3.1325 6.7575 -3.8125 7.4375 C-4.1425 8.0975 -4.4725 8.7575 -4.8125 9.4375 C-5.8025 9.4375 -6.7925 9.4375 -7.8125 9.4375 C-7.8125 11.0875 -7.8125 12.7375 -7.8125 14.4375 C-8.4725 14.1075 -9.1325 13.7775 -9.8125 13.4375 C-9.4825 12.7775 -9.1525 12.1175 -8.8125 11.4375 C-9.8025 11.4375 -10.7925 11.4375 -11.8125 11.4375 C-11.8125 12.4275 -11.8125 13.4175 -11.8125 14.4375 C-13.1325 14.7675 -14.4525 15.0975 -15.8125 15.4375 C-15.8125 16.0975 -15.8125 16.7575 -15.8125 17.4375 C-17.1325 16.7775 -18.4525 16.1175 -19.8125 15.4375 C-17.3831914 12.95019138 -14.94272506 10.47412833 -12.5 8 C-11.46456055 6.93942383 -11.46456055 6.93942383 -10.40820312 5.85742188 C-9.74111328 5.18388672 -9.07402344 4.51035156 -8.38671875 3.81640625 C-7.77401123 3.1932251 -7.16130371 2.57004395 -6.5300293 1.92797852 C-4.38554518 0.06698697 -2.82029159 -0.87526291 0 0 Z " fill="#591AD5" transform="translate(101.8125,199.5625)"/>
<path d="M0 0 C1.9140625 1.0859375 1.9140625 1.0859375 4.4765625 3.0859375 C4.1465625 4.4059375 3.8165625 5.7259375 3.4765625 7.0859375 C2.8165625 5.7659375 2.1565625 4.4459375 1.4765625 3.0859375 C0.1565625 3.4159375 -1.1634375 3.7459375 -2.5234375 4.0859375 C-2.8534375 3.4259375 -3.1834375 2.7659375 -3.5234375 2.0859375 C-6.1634375 2.0859375 -8.8034375 2.0859375 -11.5234375 2.0859375 C-12.1834375 3.4059375 -12.8434375 4.7259375 -13.5234375 6.0859375 C-7.23492716 7.38210022 -7.23492716 7.38210022 -1.5234375 5.0859375 C-1.8534375 7.3959375 -2.1834375 9.7059375 -2.5234375 12.0859375 C-3.3278125 11.3434375 -3.3278125 11.3434375 -4.1484375 10.5859375 C-7.24484346 8.63031268 -8.92196885 8.48569273 -12.5234375 9.0859375 C-14.8124299 11.4468995 -14.8124299 11.4468995 -16.5234375 14.0859375 C-17.5134375 14.5809375 -17.5134375 14.5809375 -18.5234375 15.0859375 C-18.5028125 14.3021875 -18.4821875 13.5184375 -18.4609375 12.7109375 C-18.33659687 10.10478789 -18.33659687 10.10478789 -19.5234375 8.0859375 C-19.1934375 7.0959375 -18.8634375 6.1059375 -18.5234375 5.0859375 C-17.8634375 5.0859375 -17.2034375 5.0859375 -16.5234375 5.0859375 C-16.5234375 4.4259375 -16.5234375 3.7659375 -16.5234375 3.0859375 C-17.1834375 2.7559375 -17.8434375 2.4259375 -18.5234375 2.0859375 C-18.8534375 3.0759375 -19.1834375 4.0659375 -19.5234375 5.0859375 C-20.5134375 5.0859375 -21.5034375 5.0859375 -22.5234375 5.0859375 C-22.5234375 6.0759375 -22.5234375 7.0659375 -22.5234375 8.0859375 C-23.8434375 8.4159375 -25.1634375 8.7459375 -26.5234375 9.0859375 C-26.61720873 16.50428332 -26.69745943 23.74830043 -25.5234375 31.0859375 C-27.5234375 30.0859375 -27.5234375 30.0859375 -28.6484375 27.6484375 C-30.42122595 20.43065597 -30.3481673 13.83361062 -26.88671875 7.13671875 C-20.79584911 -2.02576424 -10.21022085 -3.69843913 0 0 Z " fill="#6D3CCA" transform="translate(403.5234375,184.9140625)"/>
<path d="M0 0 C0.99 0.33 1.98 0.66 3 1 C3 1.99 3 2.98 3 4 C3.99 4 4.98 4 6 4 C8.98258408 6.2005322 9.90338844 7.39750899 10.49609375 11.09375 C10.47675781 12.2178125 10.45742187 13.341875 10.4375 14.5 C10.43621094 15.6240625 10.43492187 16.748125 10.43359375 17.90625 C9.96358577 21.25982046 9.43772984 22.6780899 7 25 C3.69946528 26.07839253 0.17496494 26.58748247 -3 25 C-2.505 23.515 -2.505 23.515 -2 22 C-1.835 21.29875 -1.67 20.5975 -1.5 19.875 C-1 18 -1 18 0 17 C0.04092937 14.66702567 0.04241723 12.33294775 0 10 C0.66 10 1.32 10 2 10 C2 9.01 2 8.02 2 7 C1.34 7 0.68 7 0 7 C-1.04449911 3.86650268 -0.93423645 3.01031744 0 0 Z " fill="#5F17DD" transform="translate(162,194)"/>
<path d="M0 0 C3.63 0.33 7.26 0.66 11 1 C11 19.15 11 37.3 11 56 C7.04 56 3.08 56 -1 56 C-1.02463956 48.18546786 -1.04283105 40.37095812 -1.05493164 32.55639648 C-1.05997383 29.89558519 -1.06680736 27.23477668 -1.07543945 24.57397461 C-1.08751009 20.75894484 -1.09322929 16.94395156 -1.09765625 13.12890625 C-1.10281754 11.93100967 -1.10797882 10.7331131 -1.11329651 9.49891663 C-1.11337204 8.3978508 -1.11344757 7.29678497 -1.11352539 6.16235352 C-1.115746 5.18750504 -1.11796661 4.21265656 -1.12025452 3.20826721 C-1 1 -1 1 0 0 Z M1 2 C1 19.16 1 36.32 1 54 C3.97 54 6.94 54 10 54 C10 36.84 10 19.68 10 2 C7.03 2 4.06 2 1 2 Z " fill="#52D9DE" transform="translate(525,167)"/>
<path d="M0 0 C0.33 1.32 0.66 2.64 1 4 C0.34 4 -0.32 4 -1 4 C-1 4.66 -1 5.32 -1 6 C0.98 6.66 2.96 7.32 5 8 C5.33 7.34 5.66 6.68 6 6 C6 6.99 6 7.98 6 9 C5.34 9 4.68 9 4 9 C4 9.99 4 10.98 4 12 C4.66 12 5.32 12 6 12 C6 11.34 6 10.68 6 10 C10.14612814 10.13813025 14.29181162 10.28678859 18.4375 10.4375 C20.21350586 10.49647461 20.21350586 10.49647461 22.02539062 10.55664062 C23.71245117 10.61948242 23.71245117 10.61948242 25.43359375 10.68359375 C26.47572021 10.72025146 27.51784668 10.75690918 28.59155273 10.79467773 C31 11 31 11 32 12 C32 15.63 32 19.26 32 23 C18.47 23 4.94 23 -9 23 C-9 11.75714286 -9 11.75714286 -5.625 7.5625 C-4.99851562 6.75941406 -4.37203125 5.95632812 -3.7265625 5.12890625 C-3.15679687 4.42636719 -2.58703125 3.72382813 -2 3 C-1.34 2.01 -0.68 1.02 0 0 Z M-4 8 C-6.60116569 11.44914962 -6.60116569 11.44914962 -6.625 15.625 C-6.41875 16.40875 -6.2125 17.1925 -6 18 C-6.33 18.99 -6.66 19.98 -7 21 C1.21757076 22.06346444 9.34860655 22.11790325 17.625 22.0625 C18.91535156 22.05798828 20.20570313 22.05347656 21.53515625 22.04882812 C24.69015375 22.03714295 27.84505137 22.02076044 31 22 C31 18.7 31 15.4 31 12 C27.04172765 11.94214353 23.0835633 11.90645283 19.125 11.875 C17.99707031 11.85824219 16.86914062 11.84148437 15.70703125 11.82421875 C14.63066406 11.81777344 13.55429687 11.81132812 12.4453125 11.8046875 C11.45031738 11.79421387 10.45532227 11.78374023 9.43017578 11.77294922 C6.81828583 11.75620599 6.81828583 11.75620599 5 14 C1.18461538 11.53846154 1.18461538 11.53846154 0.25 8.8125 C0.1675 8.214375 0.085 7.61625 0 7 C-2.0745356 6.8509288 -2.0745356 6.8509288 -4 8 Z " fill="#845ECD" transform="translate(341,200)"/>
<path d="M0 0 C0 0.66 0 1.32 0 2 C0.94875 2.28875 1.8975 2.5775 2.875 2.875 C6 4 6 4 8 6 C7.67 6.33 7.34 6.66 7 7 C7.66 7.33 8.32 7.66 9 8 C9 6.68 9 5.36 9 4 C12.63 3.67 16.26 3.34 20 3 C20 5.64 20 8.28 20 11 C13.73 11 7.46 11 1 11 C1 10.34 1 9.68 1 9 C0.236875 8.938125 -0.52625 8.87625 -1.3125 8.8125 C-4 8 -4 8 -5.875 5.625 C-7 3 -7 3 -6 0 C-3.50907189 -1.24546405 -2.58919267 -0.7767578 0 0 Z " fill="#5E17DB" transform="translate(187,210)"/>
<path d="M0 0 C5 1 5 1 7 3 C8.96690374 3.67292501 8.96690374 3.67292501 11.125 4.125 C12.40375 4.41375 13.6825 4.7025 15 5 C15 5.33 15 5.66 15 6 C13.58344207 6.0272415 12.16672955 6.04650467 10.75 6.0625 C9.56664062 6.07990234 9.56664062 6.07990234 8.359375 6.09765625 C6.09308998 6.00385306 4.1711105 5.63241063 2 5 C2.33 6.98 2.66 8.96 3 11 C3.94875 11 4.8975 11 5.875 11 C7.58333333 11 9.29166667 11 11 11 C13.04232408 10.84159259 15.08392044 10.6737089 17.125 10.5 C18.22070312 10.4071875 19.31640625 10.314375 20.4453125 10.21875 C21.28835937 10.1465625 22.13140625 10.074375 23 10 C23 10.66 23 11.32 23 12 C25.97 12 28.94 12 32 12 C27.2328481 16.7671519 23.39582077 17.30662736 16.75 17.375 C10.10286756 17.30989586 5.76404619 16.23595576 0 13 C0 8.71 0 4.42 0 0 Z " fill="#5E18D5" transform="translate(136,207)"/>
<path d="M0 0 C0.33 0.99 0.66 1.98 1 3 C6.445 3.495 6.445 3.495 12 4 C12 5.65 12 7.3 12 9 C5.25 9.125 5.25 9.125 3 8 C2.67 14.27 2.34 20.54 2 27 C1.67 27 1.34 27 1 27 C0.93941406 25.95199219 0.87882812 24.90398437 0.81640625 23.82421875 C0.73198262 22.44529952 0.64733553 21.06639395 0.5625 19.6875 C0.52318359 18.99720703 0.48386719 18.30691406 0.44335938 17.59570312 C0.25072585 14.52838465 -0.02322717 11.93031848 -1 9 C-4.0745356 9.7763932 -4.0745356 9.7763932 -6 12 C-6.391875 11.505 -6.78375 11.01 -7.1875 10.5 C-9.55091715 8.54406857 -11.01435003 8.75792027 -14 9 C-14 7.35 -14 5.7 -14 4 C-12.576875 3.814375 -12.576875 3.814375 -11.125 3.625 C-7.91332809 3.28312823 -7.91332809 3.28312823 -6 1 C-5.01 1 -4.02 1 -3 1 C-2.01 0.67 -1.02 0.34 0 0 Z " fill="#5C17D9" transform="translate(315,183)"/>
<path d="M0 0 C0.33 0 0.66 0 1 0 C1.03738281 1.13179687 1.07476562 2.26359375 1.11328125 3.4296875 C1.17893082 4.91149205 1.24537851 6.39326139 1.3125 7.875 C1.33505859 8.62136719 1.35761719 9.36773437 1.38085938 10.13671875 C1.47811945 12.099604 1.73042294 14.05328322 2 16 C5.6441774 18.4294516 7.71241272 18.16179575 12 18 C12 21.3 12 24.6 12 28 C7.76208341 30.1189583 4.61944977 30.73705506 0 30 C-2.57263582 28.88567563 -4.65110499 27.56593001 -7 26 C-6.34 25.67 -5.68 25.34 -5 25 C-4.34 25.33 -3.68 25.66 -3 26 C-2.67 25.34 -2.34 24.68 -2 24 C-0.68 24.33 0.64 24.66 2 25 C1.67 23.35 1.34 21.7 1 20 C0.01 19.67 -0.98 19.34 -2 19 C-1.67 18.01 -1.34 17.02 -1 16 C-0.77202438 13.26710707 -0.58331813 10.54957796 -0.4375 7.8125 C-0.37272461 6.68811523 -0.37272461 6.68811523 -0.30664062 5.54101562 C-0.20077315 3.69421625 -0.0999024 1.84713166 0 0 Z " fill="#5A1ECD" transform="translate(317,194)"/>
<path d="M0 0 C12.54 0 25.08 0 38 0 C37.67 0.99 37.34 1.98 37 3 C25.45 3 13.9 3 2 3 C2 4.98 2 6.96 2 9 C2.59538574 8.98952637 3.19077148 8.97905273 3.80419922 8.96826172 C6.49442343 8.92676051 9.18458037 8.90069296 11.875 8.875 C12.81214844 8.85824219 13.74929688 8.84148437 14.71484375 8.82421875 C15.61074219 8.81777344 16.50664062 8.81132812 17.4296875 8.8046875 C18.25710449 8.79421387 19.08452148 8.78374023 19.93701172 8.77294922 C22 9 22 9 24 11 C16.08 11 8.16 11 0 11 C0 7.37 0 3.74 0 0 Z " fill="#794AC5" transform="translate(333,168)"/>
<path d="M0 0 C2.4309584 1.53960699 2.88437865 2.66202991 3.8125 5.375 C4.03520387 8.49285425 3.45048685 10.25170913 2 13 C-1.04983996 14.52491998 -3.6423369 14.23562548 -7 14 C-9.20851952 12.40072725 -9.90742951 11.50913771 -10.3984375 8.80859375 C-10.39070312 8.02613281 -10.38296875 7.24367187 -10.375 6.4375 C-10.38273438 5.65246094 -10.39046875 4.86742187 -10.3984375 4.05859375 C-10.26695312 3.37925781 -10.13546875 2.69992188 -10 2 C-6.30513897 -0.46324069 -4.36706908 -0.38991688 0 0 Z " fill="#7844D3" transform="translate(249,167)"/>
<path d="M0 0 C0.99 1.32 1.98 2.64 3 4 C3.66 3.67 4.32 3.34 5 3 C5 4.98 5 6.96 5 9 C6.32 9 7.64 9 9 9 C9.33 7.68 9.66 6.36 10 5 C10.75 6.625 10.75 6.625 11 9 C8.74296272 13.71033866 6.01457762 16.19607224 1.37109375 18.3203125 C-3.02980401 19.58185486 -7.47039604 19.2997532 -12 19 C-12 18.34 -12 17.68 -12 17 C-9.03 16.67 -6.06 16.34 -3 16 C-3 15.01 -3 14.02 -3 13 C-3.66 13 -4.32 13 -5 13 C-5 12.01 -5 11.02 -5 10 C-6.65 9.67 -8.3 9.34 -10 9 C-9.443125 8.731875 -8.88625 8.46375 -8.3125 8.1875 C-7.1678125 7.5996875 -7.1678125 7.5996875 -6 7 C-5.113125 6.54625 -4.22625 6.0925 -3.3125 5.625 C-0.84580542 4.21797498 -0.84580542 4.21797498 -0.1875 1.8125 C-0.125625 1.214375 -0.06375 0.61625 0 0 Z M0 5 C-0.99 6.485 -0.99 6.485 -2 8 C-0.68 8.33 0.64 8.66 2 9 C2 7.68 2 6.36 2 5 C1.34 5 0.68 5 0 5 Z " fill="#6524DB" transform="translate(286,205)"/>
<path d="M0 0 C3.63 0 7.26 0 11 0 C11 0.99 11 1.98 11 3 C8.03 3 5.06 3 2 3 C2 14.22 2 25.44 2 37 C4.64 37 7.28 37 10 37 C9.98952637 36.35450195 9.97905273 35.70900391 9.96826172 35.04394531 C9.92662728 32.11266998 9.90065025 29.18145696 9.875 26.25 C9.85824219 25.23421875 9.84148437 24.2184375 9.82421875 23.171875 C9.81777344 22.1921875 9.81132812 21.2125 9.8046875 20.203125 C9.79421387 19.30239258 9.78374023 18.40166016 9.77294922 17.47363281 C10.01278324 14.86073144 10.67687936 13.24335334 12 11 C13.32 11.66 14.64 12.32 16 13 C15.525625 13.433125 15.05125 13.86625 14.5625 14.3125 C11.94783518 17.136338 11.8476548 19.98831385 11.68359375 23.66796875 C11.64169922 24.56064453 11.59980469 25.45332031 11.55664062 26.37304688 C11.49766602 27.76620117 11.49766602 27.76620117 11.4375 29.1875 C11.39431641 30.12787109 11.35113281 31.06824219 11.30664062 32.03710938 C11.20061457 34.35790188 11.09980806 36.67893177 11 39 C7.37 39 3.74 39 0 39 C0 26.13 0 13.26 0 0 Z " fill="#8861D1" transform="translate(213,184)"/>
<path d="M0 0 C2.56489714 3.12902408 4.13534179 6.27109139 5.6875 10 C6.34298828 11.546875 6.34298828 11.546875 7.01171875 13.125 C8 16 8 16 8 20 C3.71 20 -0.58 20 -5 20 C-5.99 17.03 -6.98 14.06 -8 11 C-6.35 11 -4.7 11 -3 11 C-2.690625 10.38125 -2.38125 9.7625 -2.0625 9.125 C-1.375 7.75 -0.6875 6.375 0 5 C0.0396713 3.33380554 0.04384447 1.66608987 0 0 Z " fill="#18DCDB" transform="translate(514,203)"/>
<path d="M0 0 C4.69858728 1.91423926 7.92347862 5.1277889 10.4375 9.5 C11.14526657 12.64562919 10.4510013 14.17860857 9 17 C8.01 17 7.02 17 6 17 C6 17.99 6 18.98 6 20 C2.17035345 18.43977363 -0.32190489 16.12444429 -3 13 C-3 11.68 -3 10.36 -3 9 C-3.99 9 -4.98 9 -6 9 C-6 7.35 -6 5.7 -6 4 C-5.67 4.99 -5.34 5.98 -5 7 C-3.68 7 -2.36 7 -1 7 C-0.67 7.66 -0.34 8.32 0 9 C1.4606285 6.35261084 2 5.10551666 2 2 C1.01 2.33 0.02 2.66 -1 3 C-0.67 2.01 -0.34 1.02 0 0 Z " fill="#1BCDE5" transform="translate(106,186)"/>
<path d="M0 0 C2.64 0 5.28 0 8 0 C8 0.66 8 1.32 8 2 C9.32 2.33 10.64 2.66 12 3 C12.33 2.01 12.66 1.02 13 0 C13.598125 0.185625 14.19625 0.37125 14.8125 0.5625 C17.16408762 1.22093687 17.16408762 1.22093687 20 0 C20 0.99 20 1.98 20 3 C20.99 3.33 21.98 3.66 23 4 C22.67 4.66 22.34 5.32 22 6 C18.7 6 15.4 6 12 6 C11.67 7.32 11.34 8.64 11 10 C9.68 9.34 8.36 8.68 7 8 C6.01 9.32 5.02 10.64 4 12 C2.68 11.34 1.36 10.68 0 10 C0 6.7 0 3.4 0 0 Z " fill="#5D17DA" transform="translate(259,187)"/>
<path d="M0 0 C2.3125 1.25 2.3125 1.25 4 3 C4.75 5.6875 4.75 5.6875 5 8 C4.01 8.495 4.01 8.495 3 9 C3.33 10.98 3.66 12.96 4 15 C-0.16204606 12.44601719 -3.22931926 10.04945647 -6 6 C-6 5.34 -6 4.68 -6 4 C-6.66 4 -7.32 4 -8 4 C-8 7.3 -8 10.6 -8 14 C-10.0625 12.5 -10.0625 12.5 -12 10 C-12.32360821 7.12797717 -11.98844107 4.7124662 -11 2 C-7.38375996 -1.40959775 -4.64583994 -1.38386722 0 0 Z " fill="#22C5DF" transform="translate(90,167)"/>
<path d="M0 0 C3.63 0 7.26 0 11 0 C12.81565436 1.81565436 12.12861899 4.31269962 12.13894653 6.72888184 C12.1369223 7.52991333 12.13489807 8.33094482 12.1328125 9.15625 C12.13376923 9.97371704 12.13472595 10.79118408 12.13571167 11.63342285 C12.13639345 13.36515378 12.13453929 15.09688724 12.13037109 16.82861328 C12.12502279 19.48866482 12.13031612 22.1485475 12.13671875 24.80859375 C12.13605797 26.48697954 12.1347768 28.16536523 12.1328125 29.84375 C12.13483673 30.64478149 12.13686096 31.44581299 12.13894653 32.27111816 C12.11495079 37.88504921 12.11495079 37.88504921 11 39 C7.37 39 3.74 39 0 39 C0 26.13 0 13.26 0 0 Z M1 1 C0.97082763 5.52081966 0.9531432 10.04161488 0.9375 14.5625 C0.92912109 15.83931641 0.92074219 17.11613281 0.91210938 18.43164062 C0.90888672 19.67236328 0.90566406 20.91308594 0.90234375 22.19140625 C0.89710693 23.32779541 0.89187012 24.46418457 0.88647461 25.63500977 C0.73788231 31.74597322 0.73788231 31.74597322 3 37 C5.33297433 37.04092937 7.66705225 37.04241723 10 37 C10.6524986 24.9895138 11.16631339 13.03000164 11 1 C7.7 1 4.4 1 1 1 Z " fill="#B398E3" transform="translate(240,184)"/>
<path d="M0 0 C1.8871875 0.061875 1.8871875 0.061875 3.8125 0.125 C3.8125 3.755 3.8125 7.385 3.8125 11.125 C1.1725 11.455 -1.4675 11.785 -4.1875 12.125 C-4.8475 10.805 -5.5075 9.485 -6.1875 8.125 C-7.1775 8.62 -7.1775 8.62 -8.1875 9.125 C-8.8475 8.465 -9.5075 7.805 -10.1875 7.125 C-7.57239299 2.3929016 -5.64560531 -0.18510181 0 0 Z " fill="#6933CE" transform="translate(233.1875,183.875)"/>
<path d="M0 0 C3.3 0 6.6 0 10 0 C10.16631339 12.03000164 9.6524986 23.9895138 9 36 C7.35 36 5.7 36 4 36 C5.98 35.505 5.98 35.505 8 35 C8 24.11 8 13.22 8 2 C6.02 2 4.04 2 2 2 C2.00523682 2.60996826 2.01047363 3.21993652 2.01586914 3.84838867 C2.03673335 6.62808185 2.04969013 9.40775851 2.0625 12.1875 C2.07087891 13.14720703 2.07925781 14.10691406 2.08789062 15.09570312 C2.09111328 16.02705078 2.09433594 16.95839844 2.09765625 17.91796875 C2.10289307 18.77156982 2.10812988 19.6251709 2.11352539 20.50463867 C1.99579323 23.09246747 1.57107044 25.47661953 1 28 C0.67 28 0.34 28 0 28 C0 18.76 0 9.52 0 0 Z " fill="#561FBD" transform="translate(241,185)"/>
<path d="M0 0 C0 3.3 0 6.6 0 10 C-7.41478517 14.84230868 -14.4831764 14.39922611 -23 14 C-21 12 -21 12 -18.65234375 11.83984375 C-17.30849609 11.88818359 -17.30849609 11.88818359 -15.9375 11.9375 C-14.29243023 11.99178494 -12.64583976 12.02031901 -11 12 C-10.67 11.67 -10.34 11.34 -10 11 C-8.33382885 10.95936168 -6.66611905 10.957279 -5 11 C-5 10.34 -5 9.68 -5 9 C-4.34 9 -3.68 9 -3 9 C-3.33 7.68 -3.66 6.36 -4 5 C-5.65 6.32 -7.3 7.64 -9 9 C-9.33 8.01 -9.66 7.02 -10 6 C-10 6.66 -10 7.32 -10 8 C-12.97 7.01 -15.94 6.02 -19 5 C-19 4.67 -19 4.34 -19 4 C-18.25234375 3.87882813 -17.5046875 3.75765625 -16.734375 3.6328125 C-15.74953125 3.46523437 -14.7646875 3.29765625 -13.75 3.125 C-12.77546875 2.96257812 -11.8009375 2.80015625 -10.796875 2.6328125 C-8.04169074 2.12925967 -8.04169074 2.12925967 -5.890625 0.9296875 C-4 0 -4 0 0 0 Z " fill="#835BCF" transform="translate(412,210)"/>
<path d="M0 0 C0.33 0.66 0.66 1.32 1 2 C2.65 1.67 4.3 1.34 6 1 C6 1.66 6 2.32 6 3 C4.68 3 3.36 3 2 3 C2.33 3.66 2.66 4.32 3 5 C3.99 5 4.98 5 6 5 C6 6.32 6 7.64 6 9 C6.66 9.33 7.32 9.66 8 10 C6.7260411 12.03833424 5.38938077 14.03852126 4 16 C3.34 16 2.68 16 2 16 C2.57584432 13.61435923 3.22227595 11.33317216 4 9 C0.59919423 9.10407917 0.59919423 9.10407917 -3 10 C-4.99083177 12.4251788 -4.99083177 12.4251788 -6 15 C-6.66 14.67 -7.32 14.34 -8 14 C-8.33 14.66 -8.66 15.32 -9 16 C-9.66 15.67 -10.32 15.34 -11 15 C-10.360625 14.236875 -9.72125 13.47375 -9.0625 12.6875 C-6.85767219 10.11753287 -6.85767219 10.11753287 -6 7 C-5.34 7 -4.68 7 -4 7 C-3.71125 6.21625 -3.4225 5.4325 -3.125 4.625 C-2 2 -2 2 0 0 Z " fill="#6C2ED2" transform="translate(355,181)"/>
<path d="M0 0 C2.10494301 0.08708038 4.20902142 0.19525693 6.3125 0.3125 C8.07013672 0.39951172 8.07013672 0.39951172 9.86328125 0.48828125 C13.18812351 1.03069014 13.95118801 1.47838525 16 4 C18.10332891 4.71447643 18.10332891 4.71447643 20 5 C20 5.33 20 5.66 20 6 C16.37 6 12.74 6 9 6 C8.67 6.66 8.34 7.32 8 8 C7.01 7.67 6.02 7.34 5 7 C3.33637583 6.65179959 1.67004829 6.31595508 0 6 C0 4.02 0 2.04 0 0 Z " fill="#6016DD" transform="translate(138,212)"/>
<path d="M0 0 C1.8871875 0.061875 1.8871875 0.061875 3.8125 0.125 C4.1425 1.115 4.4725 2.105 4.8125 3.125 C6.1325 2.795 7.4525 2.465 8.8125 2.125 C9.4725 4.105 10.1325 6.085 10.8125 8.125 C10.173125 8.393125 9.53375 8.66125 8.875 8.9375 C6.48118314 10.01167752 6.48118314 10.01167752 5.8125 13.125 C5.668125 11.990625 5.52375 10.85625 5.375 9.6875 C5.20078522 6.31722799 5.20078522 6.31722799 3.8125 5.125 C3.1525 5.785 2.4925 6.445 1.8125 7.125 C-0.09765625 6.98828125 -0.09765625 6.98828125 -2.25 6.4375 C-2.96285156 6.26863281 -3.67570312 6.09976563 -4.41015625 5.92578125 C-4.99667969 5.66152344 -5.58320313 5.39726562 -6.1875 5.125 C-6.5175 4.135 -6.8475 3.145 -7.1875 2.125 C-4.09861478 0.06574319 -3.47814073 -0.1140374 0 0 Z " fill="#5C17D6" transform="translate(396.1875,185.875)"/>
<path d="M0 0 C1.98 1.65 3.96 3.3 6 5 C5.01 5.99 4.02 6.98 3 8 C3.99 7.67 4.98 7.34 6 7 C5.67 8.98 5.34 10.96 5 13 C0.08258206 12.56611018 -2.5589194 10.4410806 -6 7 C-6.875 4.1875 -6.875 4.1875 -7 2 C-6.01 1.67 -5.02 1.34 -4 1 C-4 1.66 -4 2.32 -4 3 C-3.01 2.67 -2.02 2.34 -1 2 C-0.67 1.34 -0.34 0.68 0 0 Z " fill="#5C18D7" transform="translate(384,210)"/>
<path d="M0 0 C0 0.66 0 1.32 0 2 C0.99 2.33 1.98 2.66 3 3 C2.67 3.99 2.34 4.98 2 6 C0.35 5.67 -1.3 5.34 -3 5 C-3.33 5.66 -3.66 6.32 -4 7 C-4.66 7 -5.32 7 -6 7 C-6.33 8.98 -6.66 10.96 -7 13 C-6.01 13.33 -5.02 13.66 -4 14 C-4.66 14 -5.32 14 -6 14 C-6.33 16.97 -6.66 19.94 -7 23 C-6.34 23 -5.68 23 -5 23 C-5 23.66 -5 24.32 -5 25 C-4.34 25.33 -3.68 25.66 -3 26 C-3.99 26 -4.98 26 -6 26 C-9.44263883 21.89531524 -10.1391352 17.21757012 -10 12 C-9.11620795 7.51791176 -7.71870921 4.70117972 -4.4375 1.5 C-2 0 -2 0 0 0 Z " fill="#622ECA" transform="translate(145,169)"/>
<path d="M0 0 C-1.13266058 3.39798175 -2.56805381 4.36793035 -5.30859375 6.52734375 C-7.74929193 8.65238581 -9.69649025 11.11466109 -11.703125 13.64453125 C-12.13109375 14.09183594 -12.5590625 14.53914062 -13 15 C-13.66 15 -14.32 15 -15 15 C-15.66 16.32 -16.32 17.64 -17 19 C-17.66 19 -18.32 19 -19 19 C-19 19.66 -19 20.32 -19 21 C-20.98 21.33 -22.96 21.66 -25 22 C-25.33 21.34 -25.66 20.68 -26 20 C-24.35 20 -22.7 20 -21 20 C-21 18.68 -21 17.36 -21 16 C-18.38369776 14.09080647 -16.07366722 13.02455574 -13 12 C-13 11.34 -13 10.68 -13 10 C-12.34 10 -11.68 10 -11 10 C-11.33 9.01 -11.66 8.02 -12 7 C-10.68 7 -9.36 7 -8 7 C-8 6.34 -8 5.68 -8 5 C-7.01 5 -6.02 5 -5 5 C-5 3.68 -5 2.36 -5 1 C-3 0 -3 0 0 0 Z " fill="#865CD2" transform="translate(110,209)"/>
<path d="M0 0 C0 0.33 0 0.66 0 1 C-1.65 1.33 -3.3 1.66 -5 2 C-5 2.66 -5 3.32 -5 4 C1.27 4.33 7.54 4.66 14 5 C14.33 4.34 14.66 3.68 15 3 C15 4.32 15 5.64 15 7 C10.87505849 7.05784708 6.75022056 7.09354407 2.625 7.125 C1.449375 7.14175781 0.27375 7.15851563 -0.9375 7.17578125 C-2.61972656 7.18544922 -2.61972656 7.18544922 -4.3359375 7.1953125 C-5.37282715 7.20578613 -6.4097168 7.21625977 -7.47802734 7.22705078 C-10 7 -10 7 -12 5 C-10.35 5 -8.7 5 -7 5 C-7.66868314 1.88667752 -7.66868314 1.88667752 -10.0625 0.8125 C-10.701875 0.544375 -11.34125 0.27625 -12 0 C-7.74433453 -1.16063604 -4.3164922 -0.76173392 0 0 Z " fill="#4F1EB3" transform="translate(397,200)"/>
<path d="M0 0 C0.33 0 0.66 0 1 0 C1.33 1.98 1.66 3.96 2 6 C3.32 6.33 4.64 6.66 6 7 C6.33 5.68 6.66 4.36 7 3 C7.66 3.66 8.32 4.32 9 5 C8.61121812 8.01305957 7.73543126 9.39685311 6 12 C4.125 12.546875 4.125 12.546875 2 12.75 C1.29875 12.82734375 0.5975 12.9046875 -0.125 12.984375 C-2 13 -2 13 -4 12 C-3.67 11.01 -3.34 10.02 -3 9 C-2.855625 8.38125 -2.71125 7.7625 -2.5625 7.125 C-1.90839612 4.65394089 -0.98227901 2.35746963 0 0 Z " fill="#6324D4" transform="translate(163,207)"/>
<path d="M0 0 C0 0.66 0 1.32 0 2 C-6.6 2 -13.2 2 -20 2 C-20 0.68 -20 -0.64 -20 -2 C-12.71282383 -3.35575371 -6.82578852 -3.41289426 0 0 Z " fill="#5D16D9" transform="translate(411,203)"/>
<path d="M0 0 C0.66 0.33 1.32 0.66 2 1 C2 1.99 2 2.98 2 4 C8.28851034 5.29616272 8.28851034 5.29616272 14 3 C13.67 5.31 13.34 7.62 13 10 C12.46375 9.505 11.9275 9.01 11.375 8.5 C8.27859404 6.54437518 6.60146865 6.39975523 3 7 C0.7110076 9.360962 0.7110076 9.360962 -1 12 C-1.99 12.495 -1.99 12.495 -3 13 C-2.979375 12.21625 -2.95875 11.4325 -2.9375 10.625 C-2.81315937 8.01885039 -2.81315937 8.01885039 -4 6 C-3.67 5.01 -3.34 4.02 -3 3 C-2.34 3 -1.68 3 -1 3 C-0.67 2.01 -0.34 1.02 0 0 Z " fill="#743CD9" transform="translate(388,187)"/>
<path d="M0 0 C2 2 2 2 2.1953125 3.9453125 C2.13020833 5.96354167 2.06510417 7.98177083 2 10 C1.01 10 0.02 10 -1 10 C-0.649375 10.721875 -0.29875 11.44375 0.0625 12.1875 C1.11788755 15.35366266 1.01864664 16.85917285 0 20 C-0.66 20.66 -1.32 21.32 -2 22 C-2.89739214 17.96173538 -3.14920777 13.99740231 -3.25 9.875 C-3.27578125 8.86179688 -3.3015625 7.84859375 -3.328125 6.8046875 C-2.95882646 3.64806427 -2.11028587 2.32131445 0 0 Z M-4 22 C-3.34 22 -2.68 22 -2 22 C-2 23.32 -2 24.64 -2 26 C-3.32 25.34 -4.64 24.68 -6 24 C-5.34 23.34 -4.68 22.68 -4 22 Z " fill="#5E16D5" transform="translate(290,188)"/>
<path d="M0 0 C1.32 0.33 2.64 0.66 4 1 C3.67 2.98 3.34 4.96 3 7 C2.34 7 1.68 7 1 7 C0.7525 7.78375 0.505 8.5675 0.25 9.375 C-1 12 -1 12 -3 13.375 C-5 14 -5 14 -7 13 C-7 12.01 -7 11.02 -7 10 C-5.66666667 8.66666667 -4.33333333 7.33333333 -3 6 C-1.93988057 4.03120677 -0.92529151 2.03564133 0 0 Z " fill="#5F16DD" transform="translate(187,187)"/>
<path d="M0 0 C9.41833411 7.49185668 9.41833411 7.49185668 10.48828125 12.10546875 C10.79810867 15.73227208 10.79555509 18.03269976 8.42578125 20.9140625 C6.67915917 22.40914265 4.92617461 23.74700376 3 25 C2.67 24.01 2.34 23.02 2 22 C2.66 22 3.32 22 4 22 C4 21.01 4 20.02 4 19 C4.99 19 5.98 19 7 19 C7.94271002 15.74360341 7.94271002 15.74360341 8 12 C5.79197732 9.29182272 5.79197732 9.29182272 3 7 C0 2.55172414 0 2.55172414 0 0 Z " fill="#4ED0DD" transform="translate(108,184)"/>
<path d="M0 0 C1.69141656 0.08963062 3.37959602 0.24577676 5.0625 0.4375 C6.44115234 0.59025391 6.44115234 0.59025391 7.84765625 0.74609375 C8.55792969 0.82988281 9.26820312 0.91367188 10 1 C9.67 1.66 9.34 2.32 9 3 C8.34 3 7.68 3 7 3 C7.33 4.65 7.66 6.3 8 8 C6 6.625 6 6.625 4 5 C4 4.34 4 3.68 4 3 C3.34 3 2.68 3 2 3 C2 6.3 2 9.6 2 13 C-0.0625 11.5 -0.0625 11.5 -2 9 C-2.11138927 6.13172619 -1.60718037 3.84907712 -1 1 C-0.67 0.67 -0.34 0.34 0 0 Z " fill="#23C0DD" transform="translate(80,168)"/>
<path d="M0 0 C1.32 0.33 2.64 0.66 4 1 C4 1.66 4 2.32 4 3 C5.32 3.66 6.64 4.32 8 5 C7.67 5.99 7.34 6.98 7 8 C5.67203709 8.35412344 4.33783393 8.68521554 3 9 C1.9805881 9.98020375 0.97753644 10.97803008 0 12 C-0.66 12 -1.32 12 -2 12 C-1.67 9.69 -1.34 7.38 -1 5 C-1.66 4.67 -2.32 4.34 -3 4 C-2.01 3.67 -1.02 3.34 0 3 C0 2.01 0 1.02 0 0 Z " fill="#5F16DD" transform="translate(100,202)"/>
<path d="M0 0 C2.97 0.33 5.94 0.66 9 1 C8.34 2.32 7.68 3.64 7 5 C7.66 5 8.32 5 9 5 C9 5.99 9 6.98 9 8 C6.36 8.33 3.72 8.66 1 9 C0.67 6.03 0.34 3.06 0 0 Z " fill="#5D18D6" transform="translate(274,213)"/>
<path d="M0 0 C1.98 0.66 3.96 1.32 6 2 C6.33 1.34 6.66 0.68 7 0 C7 0.99 7 1.98 7 3 C6.34 3 5.68 3 5 3 C5 3.99 5 4.98 5 6 C5.66 6 6.32 6 7 6 C7 5.34 7 4.68 7 4 C15.25 4.33 23.5 4.66 32 5 C32 5.33 32 5.66 32 6 C30.9330188 6.029729 30.9330188 6.029729 29.84448242 6.06005859 C26.62511184 6.15524867 23.4063955 6.26495229 20.1875 6.375 C19.06794922 6.4059375 17.94839844 6.436875 16.79492188 6.46875 C15.18520508 6.52675781 15.18520508 6.52675781 13.54296875 6.5859375 C12.0583313 6.63306885 12.0583313 6.63306885 10.54370117 6.68115234 C7.75924906 6.83773433 7.75924906 6.83773433 5 9 C5 8.34 5 7.68 5 7 C4.360625 6.773125 3.72125 6.54625 3.0625 6.3125 C1 5 1 5 0.25 2.375 C0.1675 1.59125 0.085 0.8075 0 0 Z " fill="#A77EEC" transform="translate(340,206)"/>
<path d="M0 0 C0.99 0.33 1.98 0.66 3 1 C3 1.99 3 2.98 3 4 C3.99 4.33 4.98 4.66 6 5 C6 5.66 6 6.32 6 7 C8.64 7 11.28 7 14 7 C13.67 5.02 13.34 3.04 13 1 C15.62386487 4.06117568 16 4.73173127 16 9 C11.71 9 7.42 9 3 9 C2.01 6.03 1.02 3.06 0 0 Z " fill="#5ADFE5" transform="translate(506,214)"/>
<path d="M0 0 C0.33 1.32 0.66 2.64 1 4 C0.34 4 -0.32 4 -1 4 C-1.33 5.32 -1.66 6.64 -2 8 C-2.66 8 -3.32 8 -4 8 C-4.144375 8.5775 -4.28875 9.155 -4.4375 9.75 C-4.80535125 11.221405 -5.22063219 12.68195403 -5.6875 14.125 C-5.790625 14.74375 -5.89375 15.3625 -6 16 C-5.34 16.66 -4.68 17.32 -4 18 C-4.66 18.33 -5.32 18.66 -6 19 C-6 20.32 -6 21.64 -6 23 C-6.99 23 -7.98 23 -9 23 C-9.838163 16.74703795 -9.33547203 12.77867082 -5.625 7.5625 C-4.43025696 6.03096726 -3.22352177 4.50864109 -2 3 C-1.34 2.01 -0.68 1.02 0 0 Z " fill="#6C3FC7" transform="translate(341,200)"/>
<path d="M0 0 C0.33 0 0.66 0 1 0 C1 1.65 1 3.3 1 5 C-0.32 5.33 -1.64 5.66 -3 6 C-3.09377123 13.41834582 -3.17402193 20.66236293 -2 28 C-4 27 -4 27 -5.125 24.5625 C-7.16928459 16.23934133 -6.38116972 9.41920712 -2 2 C-1.34 1.34 -0.68 0.68 0 0 Z " fill="#8965D9" transform="translate(380,188)"/>
<path d="M0 0 C0.33 0.66 0.66 1.32 1 2 C0.67 2.66 0.34 3.32 0 4 C1.32 4 2.64 4 4 4 C4.1875 6.375 4.1875 6.375 4 9 C3.01 9.66 2.02 10.32 1 11 C1 11.66 1 12.32 1 13 C0.01 12.67 -0.98 12.34 -2 12 C-3.40457737 9.19084526 -3.24895157 7.11189466 -3 4 C-1.5 1.625 -1.5 1.625 0 0 Z " fill="#7A48D4" transform="translate(81,216)"/>
<path d="M0 0 C0.66 0 1.32 0 2 0 C2 0.99 2 1.98 2 3 C5.465 2.505 5.465 2.505 9 2 C9.66 3.65 10.32 5.3 11 7 C7.02990455 8.05090762 3.98145507 8.06172135 0 7 C-0.66 6.01 -1.32 5.02 -2 4 C-1 1 -1 1 0 0 Z " fill="#5D18D7" transform="translate(309,212)"/>
<path d="M0 0 C5 1 5 1 7 3 C8.96690374 3.67292501 8.96690374 3.67292501 11.125 4.125 C12.40375 4.41375 13.6825 4.7025 15 5 C15 5.33 15 5.66 15 6 C13.58344207 6.0272415 12.16672955 6.04650467 10.75 6.0625 C9.56664062 6.07990234 9.56664062 6.07990234 8.359375 6.09765625 C6.09308998 6.00385306 4.1711105 5.63241063 2 5 C2.33 5.99 2.66 6.98 3 8 C2.0625 10.6875 2.0625 10.6875 1 13 C0.67 13 0.34 13 0 13 C0 8.71 0 4.42 0 0 Z " fill="#8058D2" transform="translate(136,207)"/>
<path d="M0 0 C0.66 0.66 1.32 1.32 2 2 C5.61754103 2.38079379 7.88401212 1.84651134 11 0 C11.33 1.98 11.66 3.96 12 6 C8.95016004 7.52491998 6.3576631 7.23562548 3 7 C1.0625 5.75 1.0625 5.75 0 4 C0 2.68 0 1.36 0 0 Z " fill="#622CCE" transform="translate(239,174)"/>
<path d="M0 0 C0.5534764 2.07553648 1 3.84365964 1 6 C2.32 6 3.64 6 5 6 C5.33 4.68 5.66 3.36 6 2 C6.75 3.625 6.75 3.625 7 6 C3.864 11.712 3.864 11.712 0 13 C-0.33 11.35 -0.66 9.7 -1 8 C-1.99 7.67 -2.98 7.34 -4 7 C-3.34 6.67 -2.68 6.34 -2 6 C-1.62690101 4.34178227 -1.29299023 2.67422986 -1 1 C-0.67 0.67 -0.34 0.34 0 0 Z " fill="#7038D7" transform="translate(290,208)"/>
<path d="M0 0 C2.625 0.9375 2.625 0.9375 5 2 C4.814375 2.969375 4.62875 3.93875 4.4375 4.9375 C4.293125 5.948125 4.14875 6.95875 4 8 C4.33 8.33 4.66 8.66 5 9 C5.04092937 11.33297433 5.04241723 13.66705225 5 16 C4.34 16 3.68 16 3 16 C-0.00559652 10.99067246 -0.29341888 7.67276511 0 2 C-0.66 1.67 -1.32 1.34 -2 1 C-1.34 0.67 -0.68 0.34 0 0 Z " fill="#1BCEE1" transform="translate(93,174)"/>
<path d="M0 0 C0 3.63 0 7.26 0 11 C-5.24599449 13.62299724 -13.45801366 12.19826732 -19 11 C-19 10.67 -19 10.34 -19 10 C-12.74692761 9.16711126 -7.23182639 8.96136227 -1 10 C-1 7.36 -1 4.72 -1 2 C-2.98 2 -4.96 2 -7 2 C-4.35261084 0.5393715 -3.10551666 0 0 0 Z " fill="#6837C6" transform="translate(208,211)"/>
<path d="M0 0 C0.66 0 1.32 0 2 0 C4.19080101 3.28620152 4.94966872 6.21880738 6 10 C6.33 10.33 6.66 10.66 7 11 C7.04080783 12.99958364 7.04254356 15.00045254 7 17 C5.04310341 17.22142255 3.08438048 17.4267568 1.125 17.625 C-0.51082031 17.79902344 -0.51082031 17.79902344 -2.1796875 17.9765625 C-3.11039062 17.98429687 -4.04109375 17.99203125 -5 18 C-5.66 17.34 -6.32 16.68 -7 16 C-1.06 15.505 -1.06 15.505 5 15 C4.38125 13.205625 3.7625 11.41125 3.125 9.5625 C2.77695312 8.55316406 2.42890625 7.54382813 2.0703125 6.50390625 C1.25944907 3.86028249 1.25944907 3.86028249 -1 3 C-0.67 2.01 -0.34 1.02 0 0 Z " fill="#52DFE1" transform="translate(495,184)"/>
<path d="M0 0 C2.1145177 3.21406691 1.85209898 5.61021325 1.5625 9.375 C-0.4375 7.375 -0.4375 7.375 -1.3125 4.875 C-2.23216439 2.33277917 -2.23216439 2.33277917 -4.125 1 C-8.00318311 -0.0481576 -11.86058212 0.58654106 -15.4375 2.375 C-15.4375 1.055 -15.4375 -0.265 -15.4375 -1.625 C-9.88030909 -2.84487118 -4.89718453 -3.26478969 0 0 Z " fill="#8358D2" transform="translate(286.4375,194.625)"/>
<path d="M0 0 C1.4540625 0.0309375 1.4540625 0.0309375 2.9375 0.0625 C0.54083593 2.83758472 -1.57235428 3.96234537 -5.0625 5.0625 C-7.70857209 5.19960218 -10.23719013 5.25312972 -12.875 5.1875 C-13.91430664 5.17396484 -13.91430664 5.17396484 -14.97460938 5.16015625 C-16.67072395 5.13676157 -18.36665871 5.10089641 -20.0625 5.0625 C-16.72797807 3.13283719 -13.6698591 2.55004657 -9.875 2 C-6.26710261 1.47212142 -3.41907474 0.06977704 0 0 Z " fill="#8B64D0" transform="translate(165.0625,218.9375)"/>
<path d="M0 0 C1.25425781 0.02707031 2.50851562 0.05414063 3.80078125 0.08203125 C4.75339844 0.11683594 5.70601563 0.15164062 6.6875 0.1875 C6.6875 0.5175 6.6875 0.8475 6.6875 1.1875 C6.06101562 1.22488281 5.43453125 1.26226562 4.7890625 1.30078125 C3.97179687 1.36652344 3.15453125 1.43226563 2.3125 1.5 C1.09433594 1.58701172 1.09433594 1.58701172 -0.1484375 1.67578125 C-2.69171338 2.01740528 -2.69171338 2.01740528 -4.3125 5.1875 C-5.6325 4.8575 -6.9525 4.5275 -8.3125 4.1875 C-8.6425 4.8475 -8.9725 5.5075 -9.3125 6.1875 C-12.2825 5.6925 -12.2825 5.6925 -15.3125 5.1875 C-14.6525 4.8575 -13.9925 4.5275 -13.3125 4.1875 C-12.9825 3.1975 -12.6525 2.2075 -12.3125 1.1875 C-12.3125 1.8475 -12.3125 2.5075 -12.3125 3.1875 C-11.63832031 2.69636719 -10.96414063 2.20523438 -10.26953125 1.69921875 C-6.60865084 -0.17232777 -4.08711267 -0.11459194 0 0 Z " fill="#7343CD" transform="translate(280.3125,183.8125)"/>
<path d="M0 0 C3.96 0 7.92 0 12 0 C12 0.33 12 0.66 12 1 C8.7 1 5.4 1 2 1 C1.81824219 1.92683594 1.63648438 2.85367188 1.44921875 3.80859375 C1.19785156 5.00613281 0.94648438 6.20367187 0.6875 7.4375 C0.44386719 8.63246094 0.20023437 9.82742187 -0.05078125 11.05859375 C-0.36402344 12.02925781 -0.67726563 12.99992188 -1 14 C-1.99 14.33 -2.98 14.66 -4 15 C-3.63495936 9.33557626 -2.9445679 4.99296295 0 0 Z " fill="#35D8D4" transform="translate(489,168)"/>
<path d="M0 0 C3.125 0.375 3.125 0.375 6 1 C5.34 3.31 4.68 5.62 4 8 C2.35 7.67 0.7 7.34 -1 7 C-1.625 4.625 -1.625 4.625 -2 2 C-1.34 1.34 -0.68 0.68 0 0 Z " fill="#5B1CCE" transform="translate(241,169)"/>
<path d="M0 0 C0 2.64 0 5.28 0 8 C-2.97 7.505 -2.97 7.505 -6 7 C-5.67 6.01 -5.34 5.02 -5 4 C-6.98 3.34 -8.96 2.68 -11 2 C-11 1.67 -11 1.34 -11 1 C-7.26562152 0.12132271 -3.83225427 -0.08912219 0 0 Z " fill="#5A1AD0" transform="translate(207,213)"/>
<path d="M0 0 C1.32 0.33 2.64 0.66 4 1 C5.58567839 1.1421701 7.17518632 1.24504041 8.765625 1.31640625 C9.65507812 1.35830078 10.54453125 1.40019531 11.4609375 1.44335938 C12.38132812 1.48267578 13.30171875 1.52199219 14.25 1.5625 C15.18585938 1.60568359 16.12171875 1.64886719 17.0859375 1.69335938 C19.39048641 1.7991805 21.69513839 1.90126557 24 2 C23.67 2.66 23.34 3.32 23 4 C16.73 3.67 10.46 3.34 4 3 C3.34 4.98 2.68 6.96 2 9 C1.01 9.495 1.01 9.495 0 10 C0 6.7 0 3.4 0 0 Z " fill="#4ED3D7" transform="translate(482,208)"/>
<path d="M0 0 C2.14272786 3.2140918 3.62118285 6.52601133 5.125 10.0625 C5.40214844 10.69994141 5.67929687 11.33738281 5.96484375 11.99414062 C8 16.75119304 8 16.75119304 8 19 C7.01 19 6.02 19 5 19 C5 18.01 5 17.02 5 16 C4.34 16 3.68 16 3 16 C2.67 14.02 2.34 12.04 2 10 C1.34 10 0.68 10 0 10 C0 6.7 0 3.4 0 0 Z " fill="#42D9DE" transform="translate(506,182)"/>
<path d="M0 0 C3.2578125 -0.29296875 3.2578125 -0.29296875 7.125 -0.1875 C9.04699219 -0.14689453 9.04699219 -0.14689453 11.0078125 -0.10546875 C11.99523437 -0.07066406 12.98265625 -0.03585938 14 0 C14 0.33 14 0.66 14 1 C9.545 1.495 9.545 1.495 5 2 C5 2.66 5 3.32 5 4 C5.66 4.33 6.32 4.66 7 5 C6.67 5.66 6.34 6.32 6 7 C4.35 6.67 2.7 6.34 1 6 C1 5.34 1 4.68 1 4 C0.01 3.67 -0.98 3.34 -2 3 C-1.34 2.01 -0.68 1.02 0 0 Z " fill="#692ECF" transform="translate(432,184)"/>
<path d="M0 0 C0.33 0 0.66 0 1 0 C1 2.64 1 5.28 1 8 C0.34 8 -0.32 8 -1 8 C-1 9.32 -1 10.64 -1 12 C-1.66 12 -2.32 12 -3 12 C-3.2165625 13.670625 -3.2165625 13.670625 -3.4375 15.375 C-4 19 -4 19 -5 21 C-5.66 21 -6.32 21 -7 21 C-5.42503263 13.69787858 -2.76671785 6.92735461 0 0 Z " fill="#5CDDE1" transform="translate(484,180)"/>
<path d="M0 0 C0.79921875 0.11085937 1.5984375 0.22171875 2.421875 0.3359375 C3.32679688 0.47902344 3.32679688 0.47902344 4.25 0.625 C4.25 0.955 4.25 1.285 4.25 1.625 C2.5484375 2.058125 2.5484375 2.058125 0.8125 2.5 C-0.363125 2.87125 -1.53875 3.2425 -2.75 3.625 C-3.08 4.285 -3.41 4.945 -3.75 5.625 C-2.43 6.285 -1.11 6.945 0.25 7.625 C-2.81890187 9.15945094 -5.45094266 8.17484289 -8.75 7.625 C-8.09 6.305 -7.43 4.985 -6.75 3.625 C-7.74 3.625 -8.73 3.625 -9.75 3.625 C-7.67609396 -0.52281207 -4.21494357 -0.61984464 0 0 Z " fill="#5719C9" transform="translate(395.75,214.375)"/>
<path d="M0 0 C0.74958984 0.00451172 1.49917969 0.00902344 2.27148438 0.01367188 C4.11852383 0.02543646 5.96552213 0.04337135 7.8125 0.0625 C7.8125 0.3925 7.8125 0.7225 7.8125 1.0625 C-6.96504237 4.44491525 -6.96504237 4.44491525 -12.1875 3.0625 C-9.97894074 -1.35461851 -4.30476406 -0.04887505 0 0 Z " fill="#7949CF" transform="translate(197.1875,183.9375)"/>
<path d="M0 0 C3.68802044 1.22934015 4.72356973 2.93859378 7 6 C5.91926148 8.16147703 4.80636736 9.41039672 3 11 C2.34 11 1.68 11 1 11 C-0.28317892 7.15046324 -0.06643637 4.05261865 0 0 Z " fill="#26A8E9" transform="translate(81,170)"/>
<path d="M0 0 C0.52207031 0.15597656 1.04414063 0.31195313 1.58203125 0.47265625 C5.72956393 1.377207 9.96849351 1.39991012 14.19921875 1.62109375 C15.12347656 1.74613281 16.04773438 1.87117187 17 2 C17.33 2.66 17.66 3.32 18 4 C13.57322373 5.47559209 9.25727068 5.97164471 4.921875 4.10546875 C3.24031412 3.13822946 1.61409154 2.07606103 0 1 C0 0.67 0 0.34 0 0 Z " fill="#8962CF" transform="translate(310,219)"/>
<path d="M0 0 C2.64 0.33 5.28 0.66 8 1 C8.3403125 2.0828125 8.3403125 2.0828125 8.6875 3.1875 C10.24831013 6.53209313 12.3031287 8.51603959 15 11 C14.67 11.66 14.34 12.32 14 13 C13.54109375 12.50628906 13.0821875 12.01257813 12.609375 11.50390625 C11.99578125 10.86324219 11.3821875 10.22257813 10.75 9.5625 C10.14671875 8.92441406 9.5434375 8.28632813 8.921875 7.62890625 C6.86307757 5.88394989 5.56869293 5.59936168 3 5 C1.25 2.4375 1.25 2.4375 0 0 Z " fill="#54A9EE" transform="translate(95,194)"/>
<path d="M0 0 C2.3431213 0.25561323 4.67843403 0.59270772 7 1 C7.33 1.66 7.66 2.32 8 3 C10.54024004 3.47574438 13.00051464 3.84007547 15.5625 4.125 C16.27341797 4.21136719 16.98433594 4.29773438 17.71679688 4.38671875 C19.47689312 4.59934783 21.23834164 4.80072697 23 5 C23 5.33 23 5.66 23 6 C8.12793734 6.75195822 8.12793734 6.75195822 1 2 C0.67 1.34 0.34 0.68 0 0 Z " fill="#8D67D0" transform="translate(181,218)"/>
<path d="M0 0 C0.99 1.485 0.99 1.485 2 3 C4.31768101 5.80704474 6.13493099 6.5181754 9.6875 7.1875 C10.49574219 7.34605469 11.30398437 7.50460938 12.13671875 7.66796875 C13.05904297 7.83232422 13.05904297 7.83232422 14 8 C14 8.33 14 8.66 14 9 C12.35 9 10.7 9 9 9 C9 10.32 9 11.64 9 13 C8.01 12.67 7.02 12.34 6 12 C6 11.34 6 10.68 6 10 C4.02 9.01 2.04 8.02 0 7 C0 4.69 0 2.38 0 0 Z " fill="#8658D6" transform="translate(187,205)"/>
<path d="M0 0 C1.9375 0.0625 1.9375 0.0625 4 1 C5.25 4.0625 5.25 4.0625 6 7 C3.36 7 0.72 7 -2 7 C-2 6.34 -2 5.68 -2 5 C-1.34 5 -0.68 5 0 5 C-0.2784375 4.0409375 -0.2784375 4.0409375 -0.5625 3.0625 C-0.7790625 2.0415625 -0.7790625 2.0415625 -1 1 C-0.67 0.67 -0.34 0.34 0 0 Z " fill="#14DDE2" transform="translate(514,214)"/>
<path d="M0 0 C0.7734375 0.495 0.7734375 0.495 1.5625 1 C4.78026512 2.32010877 7.5570528 2.13242105 11 2 C11 5.3 11 8.6 11 12 C10.67 12 10.34 12 10 12 C9.67 10.02 9.34 8.04 9 6 C8.34 6.66 7.68 7.32 7 8 C7 7.01 7 6.02 7 5 C4.03 4.505 4.03 4.505 1 4 C0.67 2.68 0.34 1.36 0 0 Z " fill="#9972E0" transform="translate(318,210)"/>
<path d="M0 0 C1.32 0.66 2.64 1.32 4 2 C-2.91284647 6.04654428 -10.25824503 5.26901851 -18 5 C-16 3 -16 3 -13.65234375 2.83984375 C-12.30849609 2.88818359 -12.30849609 2.88818359 -10.9375 2.9375 C-9.29243023 2.99178494 -7.64583976 3.02031901 -6 3 C-5.67 2.67 -5.34 2.34 -5 2 C-3.33382885 1.95936168 -1.66611905 1.957279 0 2 C0 1.34 0 0.68 0 0 Z " fill="#8B65D0" transform="translate(407,219)"/>
<path d="M0 0 C0.66 0.66 1.32 1.32 2 2 C3.4540625 1.9071875 3.4540625 1.9071875 4.9375 1.8125 C5.948125 1.874375 6.95875 1.93625 8 2 C9.875 4.5 9.875 4.5 11 7 C6.4105044 7.32019737 3.61145488 6.97413931 0 4 C0 2.68 0 1.36 0 0 Z " fill="#6938CA" transform="translate(137,216)"/>
<path d="M0 0 C4.01744606 2.12031875 6.75279251 4.00496446 9 8 C9.32802976 11.6916365 9.2329853 15.30459423 9 19 C8.67 19 8.34 19 8 19 C7.96261719 18.30132812 7.92523438 17.60265625 7.88671875 16.8828125 C7.78810547 15.51769531 7.78810547 15.51769531 7.6875 14.125 C7.62949219 13.22007812 7.57148438 12.31515625 7.51171875 11.3828125 C7.2117961 8.63778399 7.2117961 8.63778399 4 7 C4 6.34 4 5.68 4 5 C3.01 5 2.02 5 1 5 C0.67 3.35 0.34 1.7 0 0 Z " fill="#9570DA" transform="translate(164,193)"/>
<path d="M0 0 C2.12563103 0.11376617 4.2505261 0.24135631 6.375 0.375 C8.15003906 0.47941406 8.15003906 0.47941406 9.9609375 0.5859375 C13 1 13 1 15 3 C8.565 3.495 8.565 3.495 2 4 C1.67 4.99 1.34 5.98 1 7 C0 2.25 0 2.25 0 0 Z " fill="#5A19CF" transform="translate(138,212)"/>
<path d="M0 0 C1.2065625 0.0309375 1.2065625 0.0309375 2.4375 0.0625 C1.7259375 0.68125 1.7259375 0.68125 1 1.3125 C-1.69043541 4.32578765 -1.56897247 6.68709691 -1.5 10.6875 C-1.5625 14.0625 -1.5625 14.0625 -3.5625 16.0625 C-3.58935095 13.58326199 -3.60926547 11.1043116 -3.625 8.625 C-3.63756836 7.56442383 -3.63756836 7.56442383 -3.65039062 6.48242188 C-3.65903588 4.67556441 -3.61470011 2.86862397 -3.5625 1.0625 C-2.5625 0.0625 -2.5625 0.0625 0 0 Z " fill="#923BD6" transform="translate(430.5625,193.9375)"/>
<path d="M0 0 C0.33 0 0.66 0 1 0 C1 2.97 1 5.94 1 9 C-1.52053595 10.26026798 -2.8542098 9.91874445 -5.625 9.5625 C-6.44226563 9.46066406 -7.25953125 9.35882813 -8.1015625 9.25390625 C-8.72804688 9.17011719 -9.35453125 9.08632812 -10 9 C-10 8.01 -10 7.02 -10 6 C-7.03 6.33 -4.06 6.66 -1 7 C-0.67 4.69 -0.34 2.38 0 0 Z " fill="#8A62DA" transform="translate(328,185)"/>
<path d="M0 0 C1.65 0 3.3 0 5 0 C4.484375 0.37125 3.96875 0.7425 3.4375 1.125 C1.63680017 3.03173152 1.63680017 3.03173152 2.3125 6.1875 C2.539375 7.115625 2.76625 8.04375 3 9 C1.02 9.33 -0.96 9.66 -3 10 C-3.66 9.01 -4.32 8.02 -5 7 C-4.01 6.34 -3.02 5.68 -2 5 C-1.34 5.33 -0.68 5.66 0 6 C0 4.02 0 2.04 0 0 Z " fill="#7C4BDC" transform="translate(147,178)"/>
<path d="M0 0 C6.75 0.75 6.75 0.75 9 3 C9.99 2.34 10.98 1.68 12 1 C11.67 2.98 11.34 4.96 11 7 C5.95904225 6.55520961 3.58884285 4.33845847 0 1 C0 0.67 0 0.34 0 0 Z " fill="#7643D5" transform="translate(378,216)"/>
<path d="M0 0 C7.42857143 -0.14285714 7.42857143 -0.14285714 11 1 C11.33 3.31 11.66 5.62 12 8 C11.34 7.175 10.68 6.35 10 5.5 C5.97633382 2.14694485 4.09299533 2.56839023 -1 3 C-0.67 2.01 -0.34 1.02 0 0 Z " fill="#7243CF" transform="translate(431,192)"/>
<path d="M0 0 C0.33 0.99 0.66 1.98 1 3 C-2.153368 3.70074844 -4.72724974 4 -8 4 C-8 3.01 -8 2.02 -8 1 C-8.66 0.67 -9.32 0.34 -10 0 C-6.42355152 -1.2380014 -3.66305234 -0.74926071 0 0 Z " fill="#7436DA" transform="translate(161,213)"/>
<path d="M0 0 C1.65 0 3.3 0 5 0 C5 0.33 5 0.66 5 1 C6.65 1.33 8.3 1.66 10 2 C10 2.66 10 3.32 10 4 C11.32 4 12.64 4 14 4 C14 4.66 14 5.32 14 6 C9.25 5.125 9.25 5.125 7 4 C5.45976004 3.93049459 3.91665012 3.91547643 2.375 3.9375 C1.55773437 3.94652344 0.74046875 3.95554688 -0.1015625 3.96484375 C-0.72804687 3.97644531 -1.35453125 3.98804688 -2 4 C-1.34 2.68 -0.68 1.36 0 0 Z " fill="#845CD4" transform="translate(194,191)"/>
<path d="M0 0 C2.99324263 1.0975223 3.84610901 1.67682892 5.25 4.625 C5.4975 5.40875 5.745 6.1925 6 7 C4.02 7.33 2.04 7.66 0 8 C0 5.36 0 2.72 0 0 Z " fill="#6F3ED7" transform="translate(291,188)"/>
<path d="M0 0 C2.31 0.33 4.62 0.66 7 1 C7.33 1.99 7.66 2.98 8 4 C7.67 4.33 7.34 4.66 7 5 C7.33 5.99 7.66 6.98 8 8 C6.0625 7.6875 6.0625 7.6875 4 7 C3.67 6.01 3.34 5.02 3 4 C2.01 4.495 2.01 4.495 1 5 C0.34 4.34 -0.32 3.68 -1 3 C-0.67 2.01 -0.34 1.02 0 0 Z " fill="#6C2CDD" transform="translate(224,188)"/>
<path d="M0 0 C0.33 0 0.66 0 1 0 C1.33 4.29 1.66 8.58 2 13 C-2 9 -2 9 -2.20703125 6.89453125 C-1.11111111 1.11111111 -1.11111111 1.11111111 0 0 Z " fill="#7EC2E4" transform="translate(80,168)"/>
<path d="M0 0 C0 0.66 0 1.32 0 2 C0.66 2.33 1.32 2.66 2 3 C1.01 3.99 0.02 4.98 -1 6 C-1.33 5.01 -1.66 4.02 -2 3 C-2 3.66 -2 4.32 -2 5 C-4.97 4.01 -7.94 3.02 -11 2 C-11 1.67 -11 1.34 -11 1 C-3.375 0 -3.375 0 0 0 Z " fill="#733ED8" transform="translate(404,213)"/>
<path d="M0 0 C0.33 1.32 0.66 2.64 1 4 C0.34 4 -0.32 4 -1 4 C-1.33 5.32 -1.66 6.64 -2 8 C-2.66 8 -3.32 8 -4 8 C-4.33 9.32 -4.66 10.64 -5 12 C-5.99 11.67 -6.98 11.34 -8 11 C-5.36 7.37 -2.72 3.74 0 0 Z " fill="#825FD3" transform="translate(341,200)"/>
<path d="M0 0 C2 0 2 0 4.125 1.375 C6.96841605 5.35578248 6.32581856 9.25752987 6 14 C4.51171875 12.69921875 4.51171875 12.69921875 3 11 C2.8125 7.8125 2.8125 7.8125 3 5 C2.34 4.67 1.68 4.34 1 4 C0.375 1.9375 0.375 1.9375 0 0 Z " fill="#551BC8" transform="translate(166,198)"/>
<path d="M0 0 C1.32 0.33 2.64 0.66 4 1 C5.29676812 5.61073111 4.71109139 9.33840089 4 14 C3.34 13.67 2.68 13.34 2 13 C1.62109375 10.8203125 1.62109375 10.8203125 1.4375 8.125 C1.22371654 5.13203161 0.95571043 2.8671313 0 0 Z " fill="#8966D2" transform="translate(165,169)"/>
<path d="M0 0 C1.32 0.66 2.64 1.32 4 2 C3.54625 2.7425 3.0925 3.485 2.625 4.25 C1.31359204 6.46930578 0.11719197 8.67967822 -1 11 C-1.66 9.68 -2.32 8.36 -3 7 C-2.34 6.67 -1.68 6.34 -1 6 C-1 5.34 -1 4.68 -1 4 C-0.34 4 0.32 4 1 4 C0.67 2.68 0.34 1.36 0 0 Z " fill="#6C2EDA" transform="translate(287,185)"/>
<path d="M0 0 C0.185625 0.9590625 0.185625 0.9590625 0.375 1.9375 C0.684375 2.9584375 0.684375 2.9584375 1 4 C1.66 4.33 2.32 4.66 3 5 C1.7260411 7.03833424 0.38938077 9.03852126 -1 11 C-1.66 11 -2.32 11 -3 11 C-2.25 3.375 -2.25 3.375 0 0 Z " fill="#7B48D6" transform="translate(360,186)"/>
<path d="M0 0 C0.33 0 0.66 0 1 0 C1 1.65 1 3.3 1 5 C1.99 5.33 2.98 5.66 4 6 C3.67 7.65 3.34 9.3 3 11 C3.66 11 4.32 11 5 11 C5 11.66 5 12.32 5 13 C5.66 13.33 6.32 13.66 7 14 C6.01 14 5.02 14 4 14 C0.49071832 9.81585645 0.33080246 5.23580438 0 0 Z " fill="#916DD6" transform="translate(135,181)"/>
<path d="M0 0 C0 0.66 0 1.32 0 2 C0.99 2.33 1.98 2.66 3 3 C2.67 3.99 2.34 4.98 2 6 C1.2575 5.814375 0.515 5.62875 -0.25 5.4375 C-2.94990963 5.00796892 -4.44631077 5.14877026 -7 6 C-5.81636731 2.44910192 -3.99368042 0 0 0 Z " fill="#8050D7" transform="translate(145,169)"/>
<path d="M0 0 C-2 2 -2 2 -4.6015625 2.1953125 C-5.59929687 2.17210937 -6.59703125 2.14890625 -7.625 2.125 C-9.12933594 2.09792969 -9.12933594 2.09792969 -10.6640625 2.0703125 C-11.43492187 2.04710937 -12.20578125 2.02390625 -13 2 C-13 1.34 -13 0.68 -13 0 C-11.39679026 -0.19551338 -9.79237014 -0.38111983 -8.1875 -0.5625 C-7.29417969 -0.66691406 -6.40085937 -0.77132812 -5.48046875 -0.87890625 C-3 -1 -3 -1 0 0 Z " fill="#7D56C6" transform="translate(287,222)"/>
<path d="M0 0 C0 4.24645065 -1.81750806 6.38524772 -4 10 C-5.32 9.34 -6.64 8.68 -8 8 C-5.36 5.36 -2.72 2.72 0 0 Z " fill="#7545C9" transform="translate(90,207)"/>
<path d="M0 0 C0.66 0.33 1.32 0.66 2 1 C2 3.97 2 6.94 2 10 C0.68 10.33 -0.64 10.66 -2 11 C-2.33 10.01 -2.66 9.02 -3 8 C-2.01 8 -1.02 8 0 8 C0 6.68 0 5.36 0 4 C-0.66 3.67 -1.32 3.34 -2 3 C-1.34 3 -0.68 3 0 3 C0 2.01 0 1.02 0 0 Z " fill="#723ED5" transform="translate(273,212)"/>
<path d="M0 0 C0.33 0.99 0.66 1.98 1 3 C2.32 3 3.64 3 5 3 C5.33 5.64 5.66 8.28 6 11 C5.01 10.34 4.02 9.68 3 9 C3 7.68 3 6.36 3 5 C2.01 5 1.02 5 0 5 C0 3.35 0 1.7 0 0 Z " fill="#1FBAE8" transform="translate(100,190)"/>
<path d="M0 0 C1.32 0.66 2.64 1.32 4 2 C4 4.31 4 6.62 4 9 C3.34 9 2.68 9 2 9 C0.4375 6.1875 0.4375 6.1875 -1 3 C-0.67 2.01 -0.34 1.02 0 0 Z " fill="#1FBDE6" transform="translate(94,181)"/>
<path d="M0 0 C2 3 2 3 2 5 C0.14970223 7.18070808 -1.36448415 8.72196182 -4 9.875 C-6.52392246 10.03274515 -7.86640881 9.29539465 -10 8 C-9.44570313 7.84144531 -8.89140625 7.68289062 -8.3203125 7.51953125 C-3.52015703 6.09623213 -3.52015703 6.09623213 -0.5 2.3125 C-0.335 1.549375 -0.17 0.78625 0 0 Z " fill="#9B72DA" transform="translate(286,205)"/>
<path d="M0 0 C1.32 0.66 2.64 1.32 4 2 C3.319375 2.495 3.319375 2.495 2.625 3 C0.15680026 6.0377843 -0.18843144 9.19187061 -1 13 C-1.33 13 -1.66 13 -2 13 C-2.05447047 11.58376784 -2.09300508 10.16691809 -2.125 8.75 C-2.14820313 7.96109375 -2.17140625 7.1721875 -2.1953125 6.359375 C-1.9828378 3.79268059 -1.28654105 2.2083933 0 0 Z " fill="#7D50CC" transform="translate(225,195)"/>
<path d="M0 0 C6.875 0.875 6.875 0.875 8 2 C8.14115161 4.67058851 8.04247107 7.32432238 8 10 C7.01 10 6.02 10 5 10 C5.33 9.67 5.66 9.34 6 9 C6.04063832 7.33382885 6.042721 5.66611905 6 4 C4.02 3.01 2.04 2.02 0 1 C0 0.67 0 0.34 0 0 Z " fill="#9067DA" transform="translate(153,201)"/>
<path d="M0 0 C4.05606165 0.46800711 7.46588679 0.87953208 11 3 C11 3.66 11 4.32 11 5 C6.12637153 4.54663921 3.60957611 3.2910841 0 0 Z " fill="#7A51CC" transform="translate(142,196)"/>
<path d="M0 0 C0 0.99 0 1.98 0 3 C-0.639375 3.226875 -1.27875 3.45375 -1.9375 3.6875 C-4.27193661 4.85250896 -4.27193661 4.85250896 -4.75 7.625 C-4.8325 8.40875 -4.915 9.1925 -5 10 C-5.66 9.67 -6.32 9.34 -7 9 C-5.87548273 6.0280615 -4.77706209 3.66559313 -3 1 C-2.01 0.67 -1.02 0.34 0 0 Z " fill="#8259CD" transform="translate(184,187)"/>
<path d="M0 0 C4.29 0 8.58 0 13 0 C13.33 1.32 13.66 2.64 14 4 C9.38 3.01 4.76 2.02 0 1 C0 0.67 0 0.34 0 0 Z " fill="#8554D1" transform="translate(152,177)"/>
<path d="M0 0 C0.33 0 0.66 0 1 0 C1.33 2.31 1.66 4.62 2 7 C1.01 7.495 1.01 7.495 0 8 C-1.125 2.25 -1.125 2.25 0 0 Z M-2 8 C-1.34 8 -0.68 8 0 8 C0 9.32 0 10.64 0 12 C-1.32 11.34 -2.64 10.68 -4 10 C-3.34 9.34 -2.68 8.68 -2 8 Z " fill="#551BC7" transform="translate(288,202)"/>
<path d="M0 0 C0.33 0 0.66 0 1 0 C1 1.65 1 3.3 1 5 C-0.32 5.33 -1.64 5.66 -3 6 C-3 7.65 -3 9.3 -3 11 C-3.66 11 -4.32 11 -5 11 C-4.54824045 6.14358485 -3.34650039 3.55565666 0 0 Z " fill="#8157CF" transform="translate(380,188)"/>
<path d="M0 0 C7.25806452 5.96774194 7.25806452 5.96774194 9 8 C9 8.66 9 9.32 9 10 C5.32408105 8.9789114 4.0660202 8.08564783 1.6875 5 C0 2 0 2 0 0 Z " fill="#78DEE2" transform="translate(108,184)"/>
<path d="M0 0 C0.99 0 1.98 0 3 0 C2.125 5.75 2.125 5.75 1 8 C0.34 8 -0.32 8 -1 8 C-0.67 5.36 -0.34 2.72 0 0 Z " fill="#35D7DD" transform="translate(476,201)"/>
<path d="M0 0 C0 0.33 0 0.66 0 1 C-1.65 1.33 -3.3 1.66 -5 2 C-5.33 2.99 -5.66 3.98 -6 5 C-6.66 4.01 -7.32 3.02 -8 2 C-10.05003955 0.80767387 -10.05003955 0.80767387 -12 0 C-7.74433453 -1.16063604 -4.3164922 -0.76173392 0 0 Z " fill="#4610CC" transform="translate(397,200)"/>
<path d="M0 0 C3.96 0 7.92 0 12 0 C12 0.33 12 0.66 12 1 C8.7 1 5.4 1 2 1 C1.34 2.32 0.68 3.64 0 5 C-0.99 5.495 -0.99 5.495 -2 6 C-1.34 4.02 -0.68 2.04 0 0 Z " fill="#52DBDA" transform="translate(489,168)"/>
<path d="M0 0 C5.25829246 0.22862141 6.04029458 1.04029458 10 5 C4.06 3.515 4.06 3.515 -2 2 C-1.34 1.34 -0.68 0.68 0 0 Z " fill="#67D9DE" transform="translate(84,166)"/>
<path d="M0 0 C2.64 0 5.28 0 8 0 C8 0.99 8 1.98 8 3 C5.69 3.33 3.38 3.66 1 4 C0.67 2.68 0.34 1.36 0 0 Z " fill="#5C22D4" transform="translate(81,226)"/>
<path d="M0 0 C0.66 0.33 1.32 0.66 2 1 C2.1875 3.375 2.1875 3.375 2 6 C1.01 6.66 0.02 7.32 -1 8 C-1.33 7.67 -1.66 7.34 -2 7 C-2.33 7.66 -2.66 8.32 -3 9 C-3.66 8.67 -4.32 8.34 -5 8 C-4.360625 7.236875 -3.72125 6.47375 -3.0625 5.6875 C-0.85767219 3.11753287 -0.85767219 3.11753287 0 0 Z " fill="#885DD3" transform="translate(349,188)"/>
<path d="M0 0 C1.65 0 3.3 0 5 0 C5.33 1.65 5.66 3.3 6 5 C4.35 4.67 2.7 4.34 1 4 C0.67 2.68 0.34 1.36 0 0 Z " fill="#2CA8E8" transform="translate(94,190)"/>
<path d="M0 0 C1.65 0 3.3 0 5 0 C5.33 1.32 5.66 2.64 6 4 C4.68 4.33 3.36 4.66 2 5 C1.34 3.35 0.68 1.7 0 0 Z " fill="#5919CD" transform="translate(282,185)"/>
<path d="M0 0 C2.34914492 2.34914492 2.73140357 3.95679446 3.625 7.125 C3.88539063 8.03507813 4.14578125 8.94515625 4.4140625 9.8828125 C4.70410156 10.93082031 4.70410156 10.93082031 5 12 C0.02368421 7.18421053 0.02368421 7.18421053 -0.0625 2.875 C-0.041875 1.92625 -0.02125 0.9775 0 0 Z " fill="#6BDFE2" transform="translate(501,169)"/>
<path d="M0 0 C0.99 0 1.98 0 3 0 C2.67 1.65 2.34 3.3 2 5 C0.02 5.33 -1.96 5.66 -4 6 C-4.33 5.34 -4.66 4.68 -5 4 C-3.35 4 -1.7 4 0 4 C0 2.68 0 1.36 0 0 Z " fill="#774FCC" transform="translate(89,225)"/>
<path d="M0 0 C2.83374881 3.20336822 3.5205537 5.78087253 4 10 C3.01 9.67 2.02 9.34 1 9 C0.67 6.03 0.34 3.06 0 0 Z " fill="#56DADF" transform="translate(514,203)"/>
<path d="M0 0 C1.33332095 2.6666419 0.67102033 4.16680303 0 7 C-1.32 7.33 -2.64 7.66 -4 8 C-4.33 7.01 -4.66 6.02 -5 5 C-3.68 5 -2.36 5 -1 5 C-1.66 3.68 -2.32 2.36 -3 1 C-2.01 0.67 -1.02 0.34 0 0 Z " fill="#5E14E0" transform="translate(362,179)"/>
<path d="M0 0 C0.66 0.66 1.32 1.32 2 2 C1.34 3.98 0.68 5.96 0 8 C-1.32 6.68 -2.64 5.36 -4 4 C-3.34 4 -2.68 4 -2 4 C-1.34 2.68 -0.68 1.36 0 0 Z " fill="#47B2EB" transform="translate(86,177)"/>
<path d="M0 0 C0.66 0 1.32 0 2 0 C2.6875 3.3125 2.6875 3.3125 3 7 C2.01 7.99 1.02 8.98 0 10 C0 6.7 0 3.4 0 0 Z " fill="#36D7D7" transform="translate(482,208)"/>
<path d="M0 0 C0.66 0 1.32 0 2 0 C2.33 1.32 2.66 2.64 3 4 C2.01 4.66 1.02 5.32 0 6 C-0.66 5.67 -1.32 5.34 -2 5 C-1.125 1.125 -1.125 1.125 0 0 Z " fill="#14DCDC" transform="translate(114,194)"/>
<path d="M0 0 C0.66 0.33 1.32 0.66 2 1 C1.67 2.98 1.34 4.96 1 7 C0.13375 6.319375 0.13375 6.319375 -0.75 5.625 C-2.7800333 4.15886484 -4.73539843 3.05142216 -7 2 C-6.21625 2.04125 -5.4325 2.0825 -4.625 2.125 C-1.83883881 2.28728734 -1.83883881 2.28728734 0 0 Z " fill="#804DD2" transform="translate(400,190)"/>
<path d="M0 0 C2 1 4 2 6 3 C5.67 4.32 5.34 5.64 5 7 C4.34 5.68 3.68 4.36 3 3 C1.68 3.33 0.36 3.66 -1 4 C-0.67 2.68 -0.34 1.36 0 0 Z " fill="#7F59D1" transform="translate(402,185)"/>
<path d="M0 0 C2.01822917 0.06510417 4.03645833 0.13020833 6.0546875 0.1953125 C6.0546875 0.8553125 6.0546875 1.5153125 6.0546875 2.1953125 C-1.6953125 3.3203125 -1.6953125 3.3203125 -3.9453125 2.1953125 C-1.9453125 0.1953125 -1.9453125 0.1953125 0 0 Z " fill="#6B3ACE" transform="translate(228.9453125,184.8046875)"/>
<path d="M0 0 C2 1.3125 2 1.3125 4 3 C4 3.99 4 4.98 4 6 C5.98 6 7.96 6 10 6 C10 6.33 10 6.66 10 7 C3.56461405 7.36426713 3.56461405 7.36426713 1.0625 5.75 C0 4 0 4 0 0 Z " fill="#9D7FD8" transform="translate(239,174)"/>
<path d="M0 0 C1.1725131 0.95117134 2.33787015 1.91117009 3.5 2.875 C4.47453125 3.67550781 4.47453125 3.67550781 5.46875 4.4921875 C5.9740625 4.98976562 6.479375 5.48734375 7 6 C7 6.66 7 7.32 7 8 C6.34 8 5.68 8 5 8 C4.67 7.34 4.34 6.68 4 6 C1.98330173 4.86649466 1.98330173 4.86649466 0 4 C0 2.68 0 1.36 0 0 Z " fill="#472CCC" transform="translate(103,201)"/>
<path d="M0 0 C2 2 2 2 2 6 C0.68 5.34 -0.64 4.68 -2 4 C-2 3.01 -2 2.02 -2 1 C-1.34 0.67 -0.68 0.34 0 0 Z " fill="#5B1DD0" transform="translate(288,215)"/>
<path d="M0 0 C1.98 0.99 1.98 0.99 4 2 C4 2.99 4 3.98 4 5 C3.01 5 2.02 5 1 5 C0.67 5.66 0.34 6.32 0 7 C0 4.69 0 2.38 0 0 Z " fill="#7C4AD6" transform="translate(446,185)"/>
<path d="M0 0 C0.66 0.33 1.32 0.66 2 1 C1.34 2.98 0.68 4.96 0 7 C-0.66 7 -1.32 7 -2 7 C-2.33 6.01 -2.66 5.02 -3 4 C-1.5625 1.8125 -1.5625 1.8125 0 0 Z " fill="#6015D9" transform="translate(245,170)"/>
<path d="M0 0 C2.91517292 1.07401108 4.77810176 1.77810176 7 4 C5.1875 4.625 5.1875 4.625 3 5 C2.01 4.34 1.02 3.68 0 3 C0 2.01 0 1.02 0 0 Z " fill="#8553D5" transform="translate(386,210)"/>
<path d="M0 0 C0.66 0 1.32 0 2 0 C2 1.98 2 3.96 2 6 C1.01 6.495 1.01 6.495 0 7 C-0.66 6.01 -1.32 5.02 -2 4 C-1 1 -1 1 0 0 Z " fill="#7A4DD8" transform="translate(309,212)"/>
<path d="M0 0 C0.99 0 1.98 0 3 0 C2.75 1.875 2.75 1.875 2 4 C-0.0625 5.25 -0.0625 5.25 -2 6 C-2 5.01 -2 4.02 -2 3 C-1.34 3 -0.68 3 0 3 C0 2.01 0 1.02 0 0 Z " fill="#4AC1DF" transform="translate(112,203)"/>
<path d="M0 0 C0.33 0.66 0.66 1.32 1 2 C0.67 2.66 0.34 3.32 0 4 C-0.66 4 -1.32 4 -2 4 C-2 4.99 -2 5.98 -2 7 C-3.32 6.67 -4.64 6.34 -6 6 C-4.02 4.02 -2.04 2.04 0 0 Z " fill="#6F44C9" transform="translate(97,200)"/>
</svg>
