<?xml version="1.0" encoding="UTF-8"?>
<svg version="1.1" xmlns="http://www.w3.org/2000/svg" width="500" height="500">
<path d="M0 0 C2.19633601 -0.00271545 4.39267111 -0.00627948 6.58900452 -0.01062012 C12.51491298 -0.01968316 18.44075125 -0.01622439 24.36666083 -0.00986195 C30.59794272 -0.00476708 36.82921895 -0.00950333 43.0605011 -0.01263428 C54.19551171 -0.01649719 65.33049495 -0.01031279 76.46550015 -0.0001156 C86.51900799 0.00880706 96.57246957 0.00727478 106.62597656 -0.00195312 C118.34907443 -0.01267019 130.07214343 -0.01661156 141.79524547 -0.0107286 C147.98284406 -0.00763012 154.17041095 -0.00714029 160.35800743 -0.01380157 C166.18334641 -0.01963547 172.00859926 -0.01546913 177.83392906 -0.00401306 C179.95572772 -0.00139785 182.0775338 -0.00207684 184.19932938 -0.00653839 C194.43368876 -0.02605208 204.57572478 0.15339498 214.76863098 1.13824463 C215.56492627 1.21414503 216.36122156 1.29004543 217.181647 1.36824584 C238.16531934 3.64079882 257.03694867 13.79570603 270.83325195 29.68457031 C273.96973998 33.65183636 276.50559391 37.7948876 278.8684082 42.25878906 C279.23579102 42.90589844 279.60317383 43.55300781 279.98168945 44.21972656 C287.80946166 59.51259428 287.44737833 77.70131764 287.37011719 94.39257812 C287.37390957 96.75525228 287.37941712 99.1179242 287.38648987 101.48059082 C287.40033872 107.83987054 287.38935082 114.19887651 287.37277865 120.55814075 C287.36024768 126.56310057 287.36455139 132.56803514 287.36790837 138.57300135 C287.37376175 150.46928533 287.35971271 162.36546284 287.33496094 174.26171875 C287.31102594 185.76696762 287.30396836 197.27207444 287.31445312 208.77734375 C287.32589609 221.35632549 287.3277525 233.93524186 287.31335503 246.51422286 C287.31182943 247.8586208 287.31030908 249.20301874 287.30879402 250.54741669 C287.30803621 251.20861592 287.30727839 251.86981516 287.30649761 252.55105074 C287.30178252 257.17943238 287.30369663 261.80778352 287.30785942 266.43616486 C287.31265666 272.67772006 287.30241426 278.91908054 287.28090477 285.16059875 C287.27537498 287.44091383 287.27483624 289.72124777 287.27985764 292.00156403 C287.30914007 307.21494149 286.34275021 320.96734198 281.3059082 335.44628906 C280.89211914 336.65671875 280.47833008 337.86714844 280.05200195 339.11425781 C279.11462732 341.60464256 278.12749284 343.92048902 276.8684082 346.25878906 C276.2084082 346.25878906 275.5484082 346.25878906 274.8684082 346.25878906 C274.7652832 346.99613281 274.6621582 347.73347656 274.5559082 348.49316406 C272.30621844 357.54305243 261.69165274 366.95591951 254.1184082 371.94628906 C232.28421158 384.48473861 211.05144747 386.56833554 186.50561523 386.51757812 C184.2847075 386.52029344 182.06380066 386.52385738 179.84289551 386.52819824 C173.85107513 386.53726131 167.85932417 386.53380294 161.86750269 386.52744007 C155.57075481 386.52234716 149.27401254 386.52708074 142.9772644 386.5302124 C131.72867111 386.53407505 120.48010618 386.5278907 109.23151956 386.51769373 C99.06733542 386.50876438 88.90319699 386.51030894 78.73901367 386.51953125 C66.89179414 386.53027584 55.0445967 386.53419596 43.19737136 386.52830672 C36.94223998 386.52520414 30.68713996 386.52473016 24.43201065 386.5313797 C18.54676463 386.53719982 12.66160407 386.5330717 6.77636719 386.52159119 C4.62912004 386.51896914 2.48186557 386.51966711 0.33462143 386.52411652 C-26.97676859 386.57544813 -54.57240363 384.27705872 -75.2265625 364.33984375 C-95.858522 343.53073934 -99.44095877 318.29744047 -99.40625 290.2109375 C-99.41060255 287.88047625 -99.4157875 285.55001643 -99.42173767 283.21955872 C-99.43508154 276.91566082 -99.4357114 270.61182304 -99.43317437 264.30791378 C-99.43196532 258.36353534 -99.43819293 252.41916685 -99.44360783 246.47479144 C-99.45446017 233.97917149 -99.45233203 221.4835786 -99.44622298 208.98795715 C-99.44105782 197.589309 -99.45230278 186.19074641 -99.4713212 174.79211518 C-99.4907555 163.05308114 -99.49894571 151.31408746 -99.49519795 139.57503724 C-99.49339099 132.99849855 -99.49596239 126.4220382 -99.50991249 119.84551239 C-99.5225501 113.65659614 -99.5204908 107.46785022 -99.5075016 101.27893639 C-99.50514903 99.01839069 -99.50782267 96.75783278 -99.51612473 94.4973011 C-99.55858514 82.02870137 -99.02982458 70.4202356 -96.1315918 58.25878906 C-95.92952779 57.34041637 -95.72746378 56.42204369 -95.51927662 55.47584152 C-92.61356465 42.91039082 -84.20221435 31.09029151 -75.1315918 22.25878906 C-74.47030273 21.56527344 -73.80901367 20.87175781 -73.12768555 20.15722656 C-53.76273167 1.12298348 -25.46346389 -0.05326265 0 0 Z " fill="#100326" transform="translate(156.131591796875,56.7412109375)"/>
<path d="M0 0 C0.75980164 -0.00807175 1.51960327 -0.01614349 2.3024292 -0.02445984 C3.91302205 -0.03830013 5.52364422 -0.04902254 7.13427734 -0.05688477 C9.5861861 -0.07405635 12.0367316 -0.11793509 14.48828125 -0.16210938 C16.0546776 -0.17224031 17.62108541 -0.18075516 19.1875 -0.1875 C19.91584045 -0.20500809 20.64418091 -0.22251617 21.39459229 -0.24055481 C27.80451024 -0.2135266 31.08998174 2.18852955 35.70532227 6.35717773 C36.43807373 7.10040283 37.1708252 7.84362793 37.92578125 8.609375 C38.74111328 9.43115234 39.55644531 10.25292969 40.39648438 11.09960938 C41.22986328 11.94974609 42.06324219 12.79988281 42.921875 13.67578125 C43.75912109 14.52205078 44.59636719 15.36832031 45.45898438 16.24023438 C47.07180238 17.87093001 48.68272409 19.50350391 50.29150391 21.13818359 C52.63466858 23.51786512 54.9940049 25.8806792 57.359375 28.23828125 C58.55746357 29.43602599 59.75536287 30.63396006 60.953125 31.83203125 C61.59121094 32.47011719 62.22929687 33.10820312 62.88671875 33.765625 C68.765625 39.64453125 68.765625 39.64453125 70.6496582 41.52880859 C72.05621225 42.93516179 73.46354604 44.34073507 74.87109375 45.74609375 C76.86832475 47.74646012 78.85925474 49.75259919 80.84765625 51.76171875 C83.46568221 54.40153606 86.08724988 57.03767147 88.71875 59.6640625 C89.31913086 60.26387939 89.91951172 60.86369629 90.53808594 61.48168945 C93.00171704 63.85780551 95.57969956 66.08530477 98.1875 68.30078125 C101.44339276 71.20531868 104.56029547 74.24295186 107.671875 77.30078125 C108.58948608 78.18648804 108.58948608 78.18648804 109.52563477 79.09008789 C113.52965144 83.06299246 116.76532209 86.79626881 117.7578125 92.546875 C117.60560512 106.37237825 107.6556323 114.13391917 98.359375 123.23828125 C96.69119613 124.9034598 95.02485621 126.57040863 93.359375 128.23828125 C92.01571074 129.58211698 90.67195244 130.9258587 89.328125 132.26953125 C88.59980469 132.99785156 87.87148438 133.72617187 87.12109375 134.4765625 C73.14648438 148.45117188 73.14648438 148.45117188 59.171875 162.42578125 C58.17414063 163.42387817 58.17414063 163.42387817 57.15625 164.44213867 C55.74657807 165.85123601 54.33465167 167.25807802 52.921875 168.6640625 C50.63621601 170.9601742 48.3714891 173.27449701 46.109375 175.59375 C44.52622392 177.20460622 42.94288587 178.81527871 41.359375 180.42578125 C40.5653125 181.24498047 39.77125 182.06417969 38.953125 182.90820312 C37.79296875 184.08286133 37.79296875 184.08286133 36.609375 185.28125 C35.91328125 185.9930542 35.2171875 186.7048584 34.5 187.43823242 C29.92551522 191.28491083 25.4356077 191.55578181 19.64453125 191.57421875 C18.54449013 191.58420395 18.54449013 191.58420395 17.42222595 191.59439087 C15.87664281 191.60448083 14.33101643 191.60920902 12.78540039 191.60888672 C10.43237006 191.61326174 8.08121483 191.64962068 5.72851562 191.6875 C4.22136053 191.69336882 2.7141966 191.69733778 1.20703125 191.69921875 C0.16144798 191.7207753 0.16144798 191.7207753 -0.90525818 191.74276733 C-5.93765165 191.69614036 -8.76990177 190.39630788 -12.640625 187.23828125 C-15.20339571 183.47955088 -16.37643213 179.9070275 -16.17578125 175.30078125 C-15.06508619 171.02014626 -11.67684512 168.28564346 -8.640625 165.23828125 C-7.13389819 163.55678472 -5.63409473 161.86906339 -4.140625 160.17578125 C0.45141125 155.09257643 5.03622987 150.12583667 10.359375 145.80078125 C13.41973309 143.18672538 15.89358407 140.40980426 18.5 137.359375 C22.31959088 133.00215263 26.35027522 128.80635913 30.921875 125.23828125 C33.7284186 122.93547624 35.90183117 120.36014137 38.25 117.6015625 C41.26117331 114.22793314 44.47810743 111.07525127 47.71533203 107.91967773 C51.54711488 104.15740416 52.53312736 102.3337167 52.671875 96.98828125 C52.70925781 96.055 52.74664062 95.12171875 52.78515625 94.16015625 C51.82840436 87.59455614 46.6176947 83.26561573 42.046875 78.86328125 C35.00564504 71.96176978 35.00564504 71.96176978 31.921875 68.30078125 C28.04871066 63.72870003 23.7415819 59.59565086 19.48608398 55.38452148 C15.80171351 51.72384789 12.28747996 47.99257605 8.9296875 44.02734375 C7.15472119 42.00511845 5.27638477 40.12613498 3.359375 38.23828125 C-0.49119976 34.43283041 -4.38375005 30.57399602 -7.640625 26.23828125 C-7.640625 25.57828125 -7.640625 24.91828125 -7.640625 24.23828125 C-8.55908203 23.85542969 -8.55908203 23.85542969 -9.49609375 23.46484375 C-13.13345845 21.38445665 -14.40726661 18.13706417 -15.640625 14.23828125 C-15.94057842 11.09453864 -15.52335139 9.40571122 -14.640625 6.23828125 C-10.01126937 0.65931421 -6.93820059 0.06959454 0 0 Z " fill="#4B50FD" transform="translate(204.640625,153.76171875)"/>
<path d="M0 0 C2.22878514 0.0005652 4.45757066 0.00024544 6.68635559 -0.00088501 C12.69357342 -0.00145528 18.70071023 0.01024604 24.70790935 0.02426291 C31.001929 0.03682482 37.29595082 0.03794505 43.58998108 0.04031372 C54.14007938 0.04580967 64.69015135 0.0582744 75.24023438 0.07617188 C86.09928237 0.09457416 96.95832234 0.10870928 107.81738281 0.1171875 C108.48850296 0.11771295 109.15962311 0.11823839 109.85108023 0.11877976 C113.21842077 0.12139014 116.58576136 0.12391748 119.95310199 0.12640357 C147.81909695 0.14726927 175.68505909 0.18241392 203.55102539 0.22705078 C203.55102539 0.55705078 203.55102539 0.88705078 203.55102539 1.22705078 C202.50301758 1.30052734 202.50301758 1.30052734 201.43383789 1.37548828 C200.52375977 1.45025391 199.61368164 1.52501953 198.67602539 1.60205078 C197.77110352 1.67166016 196.86618164 1.74126953 195.93383789 1.81298828 C193.37160636 2.0227321 193.37160636 2.0227321 191.55102539 4.22705078 C188.15505476 4.44381486 185.79324094 4.3077893 182.55102539 3.22705078 C181.95805664 3.38173828 181.36508789 3.53642578 180.75415039 3.69580078 C177.807576 4.40632227 175.31350195 4.0353042 172.30102539 3.72705078 C165.49489984 3.15809567 159.03804586 3.46735572 152.24243164 4.07080078 C148.55102539 4.22705078 148.55102539 4.22705078 145.22973633 3.74511719 C141.76037254 3.25653277 138.49974711 3.0978378 135.00024414 3.09423828 C133.75895752 3.09230469 132.5176709 3.09037109 131.23876953 3.08837891 C129.90535341 3.09250464 128.5719386 3.09707364 127.23852539 3.10205078 C126.55063934 3.10293701 125.8627533 3.10382324 125.15402222 3.10473633 C116.1300204 3.11826576 107.12870571 3.30777416 98.11352539 3.72705078 C86.71617574 4.2479684 75.33303435 4.34050403 63.92602539 4.35205078 C62.65832809 4.35579712 62.65832809 4.35579712 61.36502075 4.35961914 C51.50343389 4.383627 41.73462429 4.16128618 31.90087891 3.39257812 C27.65719421 3.18288363 23.74823037 3.63796938 19.55102539 4.22705078 C19.05602539 3.73205078 19.05602539 3.73205078 18.55102539 3.22705078 C16.26196459 3.10118171 13.96851421 3.05127107 11.67602539 3.03955078 C9.79270508 3.01828125 9.79270508 3.01828125 7.87133789 2.99658203 C4.41309497 2.96096036 4.41309497 2.96096036 1.55102539 5.22705078 C-2.95624183 6.30417865 -6.91885324 6.16682301 -11.51147461 5.72705078 C-15.80021574 5.31726878 -19.25624145 5.27650144 -23.44897461 6.22705078 C-25.12320447 5.93406056 -26.79075688 5.60014977 -28.44897461 5.22705078 C-29.71741211 5.28892578 -29.71741211 5.28892578 -31.01147461 5.35205078 C-34.04356969 5.19655873 -35.13307154 4.09739956 -37.44897461 2.22705078 C-24.93905342 0.07088213 -12.66488185 -0.04532859 0 0 Z " fill="#736288" transform="translate(156.448974609375,56.77294921875)"/>
<path d="M0 0 C0 0.99 0 1.98 0 3 C-0.61875 3.598125 -1.2375 4.19625 -1.875 4.8125 C-4.37616203 7.38722562 -4.94719183 9.61597375 -6 13 C-6.66 13.33 -7.32 13.66 -8 14 C-8.40729228 16.32156597 -8.74438677 18.6568787 -9 21 C-13.75 22 -13.75 22 -16 22 C-16.103125 22.763125 -16.20625 23.52625 -16.3125 24.3125 C-17.04364039 27.17059424 -17.76951913 28.15742885 -20 30 C-20.99 29.67 -21.98 29.34 -23 29 C-23.226875 30.11375 -23.45375 31.2275 -23.6875 32.375 C-25 36 -25 36 -27.4375 37.4375 C-30 38 -30 38 -33 38 C-32.67 38.99 -32.34 39.98 -32 41 C-32.66 41 -33.32 41 -34 41 C-34.33 42.65 -34.66 44.3 -35 46 C-36.32 45.67 -37.64 45.34 -39 45 C-39.66 47.97 -40.32 50.94 -41 54 C-42.32 54 -43.64 54 -45 54 C-45.33 53.34 -45.66 52.68 -46 52 C-48.05990478 53.29467677 -48.05990478 53.29467677 -50 55 C-50 55.99 -50 56.98 -50 58 C-50.66 58.66 -51.32 59.32 -52 60 C-52 60.66 -52 61.32 -52 62 C-54.475 62.495 -54.475 62.495 -57 63 C-58.01111093 66.04913228 -58.01111093 66.04913228 -57 69 C-57.969375 68.979375 -58.93875 68.95875 -59.9375 68.9375 C-62.87465895 68.64381501 -62.87465895 68.64381501 -64 70 C-64.07148199 71.35243917 -64.08399454 72.70834367 -64.0625 74.0625 C-64.041875 75.361875 -64.02125 76.66125 -64 78 C-61.36 78.33 -58.72 78.66 -56 79 C-56.50603992 81.16874252 -56.99983813 82.99967627 -58 85 C-52.06 85 -46.12 85 -40 85 C-40 85.33 -40 85.66 -40 86 C-43.22886009 86.11667875 -46.45717445 86.18740546 -49.6875 86.25 C-50.59951172 86.28351563 -51.51152344 86.31703125 -52.45117188 86.3515625 C-56.80058522 86.41482669 -59.28191841 86.43964179 -63.0625 84.125 C-66.57223885 80.27560901 -67.65696602 76.34620745 -67.5 71.09765625 C-66.47089351 66.78023293 -63.04131971 64.05248052 -60 61 C-58.49327319 59.31850347 -56.99346973 57.63078214 -55.5 55.9375 C-50.90796375 50.85429518 -46.32314513 45.88755542 -41 41.5625 C-37.93964191 38.94844413 -35.46579093 36.17152301 -32.859375 33.12109375 C-29.03978412 28.76387138 -25.00909978 24.56807788 -20.4375 21 C-17.63337558 18.69917996 -15.4614848 16.12541676 -13.11328125 13.37109375 C-8.95791047 8.70878309 -4.45069213 4.37825772 0 0 Z " fill="#8B2DFA" transform="translate(256,258)"/>
<path d="M0 0 C15.85700874 13.44398567 15.85700874 13.44398567 22.2265625 20.96484375 C26.67268685 26.0671142 31.53374188 30.80460313 36.6875 35.1875 C40.71369333 38.65948048 44.52172704 42.33766195 48.3125 46.0625 C48.92375732 46.65248779 49.53501465 47.24247559 50.16479492 47.8503418 C54.16931806 51.82377478 57.40580508 55.5571647 58.3984375 61.30859375 C58.24623012 75.134097 48.2962573 82.89563792 39 92 C37.33182113 93.66517855 35.66548121 95.33212738 34 97 C32.65633574 98.34383573 31.31257744 99.68757745 29.96875 101.03125 C29.24042969 101.75957031 28.51210938 102.48789062 27.76171875 103.23828125 C21.03125 109.96875 21.03125 109.96875 18.91674805 112.07739258 C17.7487348 113.24897636 16.58700539 114.42692665 15.43676758 115.6159668 C13.04643358 118.08037866 11.50958746 119.61004584 8 120 C8 118.35 8 116.7 8 115 C8.99 114.505 8.99 114.505 10 114 C10 113.34 10 112.68 10 112 C12.97 111.505 12.97 111.505 16 111 C15.505 108.03 15.505 108.03 15 105 C15.71027344 104.82984375 16.42054688 104.6596875 17.15234375 104.484375 C18.07144531 104.24203125 18.99054688 103.9996875 19.9375 103.75 C20.85402344 103.51796875 21.77054687 103.2859375 22.71484375 103.046875 C25.19151441 102.23367434 25.19151441 102.23367434 25.81640625 99.890625 C25.87699219 99.26671875 25.93757813 98.6428125 26 98 C26.5775 97.9175 27.155 97.835 27.75 97.75 C32.46379032 96.17873656 34.6849067 92.16716794 37 88 C37.99 88.33 38.98 88.66 40 89 C40.33 86.03 40.66 83.06 41 80 C43.33333333 80 45.66666667 80 48 80 C48.66 78.02 49.32 76.04 50 74 C49.01 73.505 49.01 73.505 48 73 C48.66 72.67 49.32 72.34 50 72 C50.99 72.495 50.99 72.495 52 73 C52 72.34 52 71.68 52 71 C52.99 71 53.98 71 55 71 C56.00793834 64.85521928 56.73284889 60.39189284 53 55 C52.01 54.505 52.01 54.505 51 54 C50.67 53.01 50.34 52.02 50 51 C47.674568 48.92596606 45.63556719 47.26481966 42.75 46.0625 C41.88375 45.5365625 41.88375 45.5365625 41 45 C40.66666667 43.33333333 40.33333333 41.66666667 40 40 C37.92955907 38.5721097 36.35640499 38.0524125 33.875 37.6875 C33.25625 37.460625 32.6375 37.23375 32 37 C31.71125 36.195625 31.4225 35.39125 31.125 34.5625 C30.20295295 31.66336372 30.20295295 31.66336372 26.875 30.6875 C25.92625 30.460625 24.9775 30.23375 24 30 C23.938125 29.2575 23.87625 28.515 23.8125 27.75 C22.73893912 24.11640932 21.00285623 23.25214217 18 21 C17.07933246 19.93769131 16.18339636 18.85347995 15.3125 17.75 C14.549375 16.8425 13.78625 15.935 13 15 C12.34 15 11.68 15 11 15 C11 14.34 11 13.68 11 13 C10.34 12.67 9.68 12.34 9 12 C8.360625 11.175 7.72125 10.35 7.0625 9.5 C5.17703957 6.76426486 5.17703957 6.76426486 2 6 C2 5.34 2 4.68 2 4 C1.34 3.67 0.68 3.34 0 3 C0 2.01 0 1.02 0 0 Z " fill="#169DE5" transform="translate(264,185)"/>
<path d="M0 0 C1.21171875 0.00322266 2.4234375 0.00644531 3.671875 0.00976562 C4.94289062 0.01814453 6.21390625 0.02652344 7.5234375 0.03515625 C8.8021875 0.03966797 10.0809375 0.04417969 11.3984375 0.04882812 C14.56515042 0.06064422 17.73177106 0.0771181 20.8984375 0.09765625 C20.8984375 0.75765625 20.8984375 1.41765625 20.8984375 2.09765625 C19.65707031 2.07445312 18.41570312 2.05125 17.13671875 2.02734375 C15.4947977 2.00857894 13.85287012 1.9903795 12.2109375 1.97265625 C11.39431641 1.95589844 10.57769531 1.93914062 9.73632812 1.921875 C5.2626471 1.88565086 2.01336439 2.15852558 -2.1015625 4.09765625 C-3.0915625 4.09765625 -4.0815625 4.09765625 -5.1015625 4.09765625 C-7.66013001 5.18310913 -9.11544638 6.11154013 -11.1015625 8.09765625 C-11.64383027 11.55461325 -11.81552468 13.99630765 -9.86328125 17.0078125 C-8.34039728 18.78765952 -6.77178095 20.45588434 -5.1015625 22.09765625 C-4.60269531 22.6390625 -4.10382813 23.18046875 -3.58984375 23.73828125 C-2.0311165 25.3468655 -2.0311165 25.3468655 0.8984375 26.09765625 C0.8984375 26.75765625 0.8984375 27.41765625 0.8984375 28.09765625 C2.2184375 28.09765625 3.5384375 28.09765625 4.8984375 28.09765625 C5.58551305 30.58830513 5.8984375 32.47651917 5.8984375 35.09765625 C7.91988744 37.72554117 9.66352974 38.53991353 12.8984375 39.09765625 C12.5684375 40.08765625 12.2384375 41.07765625 11.8984375 42.09765625 C13.1359375 42.77828125 13.1359375 42.77828125 14.3984375 43.47265625 C15.2234375 44.00890625 16.0484375 44.54515625 16.8984375 45.09765625 C16.8984375 45.75765625 16.8984375 46.41765625 16.8984375 47.09765625 C18.2184375 47.42765625 19.5384375 47.75765625 20.8984375 48.09765625 C20.9603125 48.71640625 21.0221875 49.33515625 21.0859375 49.97265625 C21.71395907 52.35668555 21.71395907 52.35668555 24.3359375 53.22265625 C25.604375 53.65578125 25.604375 53.65578125 26.8984375 54.09765625 C28.8984375 56.09765625 28.8984375 56.09765625 29.3359375 58.03515625 C30.01663201 60.53103612 30.86043692 61.52996349 32.8984375 63.09765625 C33.8884375 63.09765625 34.8784375 63.09765625 35.8984375 63.09765625 C36.1459375 64.06703125 36.3934375 65.03640625 36.6484375 66.03515625 C37.0609375 67.04578125 37.4734375 68.05640625 37.8984375 69.09765625 C39.93087298 70.06642682 39.93087298 70.06642682 41.8984375 70.09765625 C41.5684375 71.74765625 41.2384375 73.39765625 40.8984375 75.09765625 C39.96644531 74.16373047 39.96644531 74.16373047 39.015625 73.2109375 C36.44442478 70.63883257 33.86294594 68.07719176 31.28125 65.515625 C29.5285771 63.77220452 27.77597494 62.0287129 26.0234375 60.28515625 C25.15074219 59.42083984 24.27804688 58.55652344 23.37890625 57.66601562 C18.86246835 53.16655682 14.50230756 48.60939252 10.35107422 43.77075195 C8.62330844 41.78077231 6.79390327 39.92776114 4.8984375 38.09765625 C1.04786274 34.29220541 -2.84468755 30.43337102 -6.1015625 26.09765625 C-6.1015625 25.43765625 -6.1015625 24.77765625 -6.1015625 24.09765625 C-7.02001953 23.71480469 -7.02001953 23.71480469 -7.95703125 23.32421875 C-11.59439595 21.24383165 -12.86820411 17.99643917 -14.1015625 14.09765625 C-14.40151592 10.95391364 -13.98428889 9.26508622 -13.1015625 6.09765625 C-8.84716652 0.97056366 -6.48970066 -0.0303257 0 0 Z " fill="#9628D8" transform="translate(203.1015625,153.90234375)"/>
<path d="M0 0 C0 0.99 0 1.98 0 3 C-0.61875 3.598125 -1.2375 4.19625 -1.875 4.8125 C-4.37616203 7.38722562 -4.94719183 9.61597375 -6 13 C-6.99 13.495 -6.99 13.495 -8 14 C-8.40729228 16.32156597 -8.74438677 18.6568787 -9 21 C-13.75 22 -13.75 22 -16 22 C-16.103125 22.763125 -16.20625 23.52625 -16.3125 24.3125 C-17.04364039 27.17059424 -17.76951913 28.15742885 -20 30 C-20.99 29.67 -21.98 29.34 -23 29 C-23.99 32.465 -23.99 32.465 -25 36 C-25.8353125 35.4740625 -25.8353125 35.4740625 -26.6875 34.9375 C-29.53886783 33.78154007 -31.08517222 34.19032562 -34 35 C-30.60743629 30.80393436 -27.11753162 27.12845147 -23.0625 23.5625 C-19.36861032 20.30286223 -16.10573112 16.95758696 -12.9375 13.1953125 C-8.86118639 8.57658619 -4.38982251 4.31837875 0 0 Z " fill="#7732FB" transform="translate(256,258)"/>
<path d="M0 0 C2.84043689 1.11588592 4.00910039 2.01213385 5.875 4.5 C8.38278915 7.45034017 10.29895144 8.07473786 14 9 C13.67 9.99 13.34 10.98 13 12 C14.2375 12.680625 14.2375 12.680625 15.5 13.375 C16.325 13.91125 17.15 14.4475 18 15 C18 15.66 18 16.32 18 17 C19.32 17.33 20.64 17.66 22 18 C22.061875 18.61875 22.12375 19.2375 22.1875 19.875 C22.81552157 22.2590293 22.81552157 22.2590293 25.4375 23.125 C26.283125 23.41375 27.12875 23.7025 28 24 C30 26 30 26 30.4375 27.9375 C31.11819451 30.43337987 31.96199942 31.43230724 34 33 C34.99 33 35.98 33 37 33 C37.2475 33.969375 37.495 34.93875 37.75 35.9375 C38.1625 36.948125 38.575 37.95875 39 39 C41.03243548 39.96877057 41.03243548 39.96877057 43 40 C42.67 41.65 42.34 43.3 42 45 C41.37867188 44.37738281 40.75734375 43.75476563 40.1171875 43.11328125 C37.54598728 40.54117632 34.96450844 37.97953551 32.3828125 35.41796875 C30.6301396 33.67454827 28.87753744 31.93105665 27.125 30.1875 C26.25230469 29.32318359 25.37960938 28.45886719 24.48046875 27.56835938 C19.97016366 23.07501032 15.6190297 18.52359877 11.47460938 13.69067383 C9.04753715 10.90797926 6.37239931 8.40125986 3.69921875 5.859375 C1.99718288 3.99691736 1.00326006 2.30189618 0 0 Z " fill="#862EE0" transform="translate(202,184)"/>
<path d="M0 0 C0.33 0.99 0.66 1.98 1 3 C1.66 3 2.32 3 3 3 C3 3.66 3 4.32 3 5 C1.35 5.33 -0.3 5.66 -2 6 C-3.01111093 9.04913228 -3.01111093 9.04913228 -2 12 C-2.969375 11.979375 -3.93875 11.95875 -4.9375 11.9375 C-7.87465895 11.64381501 -7.87465895 11.64381501 -9 13 C-9.07148199 14.35243917 -9.08399454 15.70834367 -9.0625 17.0625 C-9.041875 18.361875 -9.02125 19.66125 -9 21 C-6.36 21.33 -3.72 21.66 -1 22 C-1.50603992 24.16874252 -1.99983813 25.99967627 -3 28 C2.94 28 8.88 28 15 28 C15 28.33 15 28.66 15 29 C11.77113991 29.11667875 8.54282555 29.18740546 5.3125 29.25 C3.94448242 29.30027344 3.94448242 29.30027344 2.54882812 29.3515625 C-1.80058522 29.41482669 -4.28191841 29.43964179 -8.0625 27.125 C-11.57595469 23.27153357 -12.61677823 19.37182308 -12.52734375 14.125 C-11.63837531 10.54278643 -9.26633289 8.33807019 -6.7265625 5.76171875 C-4.80743322 3.9128925 -4.80743322 3.9128925 -3 1 C-2.01 0.67 -1.02 0.34 0 0 Z " fill="#9E27E8" transform="translate(201,315)"/>
<path d="M0 0 C0.97931236 -0.00262848 0.97931236 -0.00262848 1.97840881 -0.00531006 C4.11982951 -0.00968307 6.26116646 -0.00680636 8.40258789 -0.00341797 C9.90182002 -0.0040924 11.40105205 -0.00506358 12.90028381 -0.00631714 C16.03639776 -0.00778802 19.17248314 -0.00565948 22.30859375 -0.00097656 C26.31421914 0.00471541 30.31977743 0.00144121 34.32540035 -0.00454903 C37.41989134 -0.00817532 40.51436663 -0.00700648 43.60885811 -0.00442123 C45.08513967 -0.00375743 46.5614227 -0.00456115 48.03770256 -0.00690079 C50.1072043 -0.00946085 52.17659985 -0.00553966 54.24609375 0 C56.00765053 0.00119339 56.00765053 0.00119339 57.80479431 0.00241089 C61.32519448 0.13455392 64.71142201 0.57167581 68.18774414 1.12939453 C66.18774414 3.12939453 66.18774414 3.12939453 63.25024414 3.31689453 C60.18774414 3.12939453 60.18774414 3.12939453 57.18774414 2.12939453 C56.59477539 2.28408203 56.00180664 2.43876953 55.39086914 2.59814453 C52.44429475 3.30866602 49.9502207 2.93764795 46.93774414 2.62939453 C40.13161859 2.06043942 33.67476461 2.36969947 26.87915039 2.97314453 C23.18774414 3.12939453 23.18774414 3.12939453 19.89624023 2.64526367 C16.25780868 2.13914084 12.83072178 2.01542574 9.16040039 2.03173828 C7.23164063 2.03657227 7.23164063 2.03657227 5.26391602 2.04150391 C3.92602469 2.04985651 2.58813407 2.05832142 1.25024414 2.06689453 C-0.1149886 2.07191794 -1.48022312 2.07647936 -2.84545898 2.08056641 C-6.16777043 2.09230602 -9.48998994 2.10872774 -12.81225586 2.12939453 C-12.81225586 1.79939453 -12.81225586 1.46939453 -12.81225586 1.12939453 C-8.48665347 0.30281103 -4.40123577 0.0029837 0 0 Z " fill="#1C0740" transform="translate(281.812255859375,57.87060546875)"/>
<path d="M0 0 C15.85700874 13.44398567 15.85700874 13.44398567 22.2265625 20.96484375 C27.36227644 26.85847142 33.07656196 32.14598168 39.00390625 37.2265625 C42.49167866 40.32528789 45.74144373 43.66344637 49 47 C48.01 47.495 48.01 47.495 47 48 C43.9375 46.875 43.9375 46.875 41 45 C40.375 42.4375 40.375 42.4375 40 40 C37.92955907 38.5721097 36.35640499 38.0524125 33.875 37.6875 C33.25625 37.460625 32.6375 37.23375 32 37 C31.71125 36.195625 31.4225 35.39125 31.125 34.5625 C30.20295295 31.66336372 30.20295295 31.66336372 26.875 30.6875 C25.92625 30.460625 24.9775 30.23375 24 30 C23.938125 29.2575 23.87625 28.515 23.8125 27.75 C22.73893912 24.11640932 21.00285623 23.25214217 18 21 C17.07933246 19.93769131 16.18339636 18.85347995 15.3125 17.75 C14.549375 16.8425 13.78625 15.935 13 15 C12.34 15 11.68 15 11 15 C11 14.34 11 13.68 11 13 C10.34 12.67 9.68 12.34 9 12 C8.360625 11.175 7.72125 10.35 7.0625 9.5 C5.17703957 6.76426486 5.17703957 6.76426486 2 6 C2 5.34 2 4.68 2 4 C1.34 3.67 0.68 3.34 0 3 C0 2.01 0 1.02 0 0 Z " fill="#197FEF" transform="translate(264,185)"/>
<path d="M0 0 C0.99 0.33 1.98 0.66 3 1 C2.39414062 1.53367187 1.78828125 2.06734375 1.1640625 2.6171875 C-6.0673754 9.04760459 -12.93180989 15.78180288 -19.6484375 22.74609375 C-21.91315696 24.9167634 -22.94697556 25.66077506 -26 26 C-26 24.35 -26 22.7 -26 21 C-25.34 20.67 -24.68 20.34 -24 20 C-24 19.34 -24 18.68 -24 18 C-22.02 17.67 -20.04 17.34 -18 17 C-18.33 15.02 -18.66 13.04 -19 11 C-18.28972656 10.82984375 -17.57945312 10.6596875 -16.84765625 10.484375 C-15.92855469 10.24203125 -15.00945312 9.9996875 -14.0625 9.75 C-13.14597656 9.51796875 -12.22945313 9.2859375 -11.28515625 9.046875 C-8.80848559 8.23367434 -8.80848559 8.23367434 -8.18359375 5.890625 C-8.09271484 4.95476562 -8.09271484 4.95476562 -8 4 C-7.4225 3.896875 -6.845 3.79375 -6.25 3.6875 C-3.88948084 3.11478737 -3.88948084 3.11478737 -1.9375 1.375 C-1.298125 0.92125 -0.65875 0.4675 0 0 Z " fill="#1581E9" transform="translate(298,279)"/>
<path d="M0 0 C1.54880777 0.05332891 3.09763596 0.1060682 4.64648438 0.15820312 C8.4104262 0.28616959 12.17400151 0.42212084 15.9375 0.5625 C13.07172594 3.7016313 11.21930094 4.19240436 6.9375 4.5625 C4.57982634 4.45641795 2.22431284 4.2874614 -0.125 4.0625 C-4.41374114 3.652718 -7.86976684 3.61195065 -12.0625 4.5625 C-13.73672986 4.26950977 -15.40428227 3.93559899 -17.0625 3.5625 C-18.3309375 3.624375 -18.3309375 3.624375 -19.625 3.6875 C-22.63839279 3.53296704 -23.84490596 2.5336947 -26.0625 0.5625 C-17.36335217 -0.77354659 -8.75633509 -0.32846784 0 0 Z " fill="#250751" transform="translate(145.0625,58.4375)"/>
<path d="M0 0 C0.66 0 1.32 0 2 0 C2.39726873 3.35010199 2.26917951 4.64168044 0.20703125 7.38671875 C-0.58316406 8.14597656 -1.37335938 8.90523438 -2.1875 9.6875 C-2.96480469 10.45449219 -3.74210937 11.22148437 -4.54296875 12.01171875 C-9.39699042 15.93969495 -13.84547279 16.28274004 -19.92578125 16.1953125 C-20.67337204 16.1924826 -21.42096283 16.18965271 -22.19120789 16.18673706 C-24.5651388 16.17559469 -26.93868425 16.15050162 -29.3125 16.125 C-30.9277289 16.11496249 -32.54296376 16.10583799 -34.15820312 16.09765625 C-38.10561594 16.07567489 -42.05274274 16.04118657 -46 16 C-46 15.67 -46 15.34 -46 15 C-29.17 14.01 -29.17 14.01 -12 13 C-11.34 11.35 -10.68 9.7 -10 8 C-9.34 8.33 -8.68 8.66 -8 9 C-8.33 9.66 -8.66 10.32 -9 11 C-8.34 11 -7.68 11 -7 11 C-5.88842985 8.92506906 -5.03628989 7.20564274 -4.625 4.875 C-4 3 -4 3 -1.9375 1.75 C-0.9784375 1.37875 -0.9784375 1.37875 0 1 C0 0.67 0 0.34 0 0 Z " fill="#6E40D6" transform="translate(244,329)"/>
<path d="M0 0 C-4.69940095 5.66338064 -9.75443369 10.84251223 -15 16 C-15.845625 16.845625 -16.69125 17.69125 -17.5625 18.5625 C-21.04166667 22.04166667 -24.52083333 25.52083333 -28 29 C-28.33 27.68 -28.66 26.36 -29 25 C-28.01 25 -27.02 25 -26 25 C-26 23.35 -26 21.7 -26 20 C-25.34 19.67 -24.68 19.34 -24 19 C-23.34 19.33 -22.68 19.66 -22 20 C-22 19.34 -22 18.68 -22 18 C-20.35 17.67 -18.7 17.34 -17 17 C-17.103125 16.236875 -17.20625 15.47375 -17.3125 14.6875 C-17.209375 13.800625 -17.10625 12.91375 -17 12 C-14.6167054 10.18116991 -13.04181663 9 -10 9 C-9.731875 7.88625 -9.46375 6.7725 -9.1875 5.625 C-7.44010975 0.29086136 -5.2514258 -0.28386085 0 0 Z " fill="#564AE7" transform="translate(275,304)"/>
<path d="M0 0 C6.06261638 -0.41811147 9.21494681 0.0650559 14 4 C17.04881893 6.82966037 19.96631885 9.77722926 22.875 12.75 C23.65875 13.54277344 24.4425 14.33554688 25.25 15.15234375 C27.17130714 17.09708147 29.08776547 19.04634753 31 21 C27.56655118 21 27.26243281 20.66795375 24.86328125 18.4453125 C24.28642578 17.91292969 23.70957031 17.38054687 23.11523438 16.83203125 C22.52033203 16.26871094 21.92542969 15.70539063 21.3125 15.125 C20.70599609 14.56941406 20.09949219 14.01382813 19.47460938 13.44140625 C17.93849763 12.00724118 16.46392359 10.50777865 15 9 C15 8.34 15 7.68 15 7 C14.30132812 6.93941406 13.60265625 6.87882813 12.8828125 6.81640625 C11.97273437 6.73261719 11.06265625 6.64882812 10.125 6.5625 C9.22007812 6.48128906 8.31515625 6.40007812 7.3828125 6.31640625 C5 6 5 6 3 5 C3 4.01 3 3.02 3 2 C2.01 1.67 1.02 1.34 0 1 C0 0.67 0 0.34 0 0 Z " fill="#6042DF" transform="translate(224,154)"/>
<path d="M0 0 C-0.99 0.66 -1.98 1.32 -3 2 C-3 1.34 -3 0.68 -3 0 C-3.66 0 -4.32 0 -5 0 C-5.33 0.66 -5.66 1.32 -6 2 C-12.75 0.25 -12.75 0.25 -15 -2 C-15 -1.34 -15 -0.68 -15 0 C-19.75 1.125 -19.75 1.125 -22 0 C-24.3329866 -0.04022391 -26.66706666 -0.04320247 -29 0 C-29 -0.66 -29 -1.32 -29 -2 C-32.3 -2 -35.6 -2 -39 -2 C-39 -2.33 -39 -2.66 -39 -3 C-26.28537036 -5.82547325 -12.1886789 -4.20390444 0 0 Z " fill="#301953" transform="translate(390,62)"/>
<path d="M0 0 C0.78375 0.185625 1.5675 0.37125 2.375 0.5625 C4.97089775 1.25962266 4.97089775 1.25962266 7 0 C7.268125 1.03125 7.53625 2.0625 7.8125 3.125 C8.51836396 5.68439162 9.19958415 7.32240516 10.625 9.625 C12.79123503 14.94212234 12.22712813 20.33020888 12 26 C12.66 26 13.32 26 14 26 C13.61479436 28.53910197 13.29902057 29.72751123 11.37109375 31.484375 C10.73300781 31.90203125 10.09492188 32.3196875 9.4375 32.75 C8.79683594 33.17796875 8.15617187 33.6059375 7.49609375 34.046875 C6.75552734 34.51867187 6.75552734 34.51867187 6 35 C5.34 34.67 4.68 34.34 4 34 C4.52400391 33.31164062 4.52400391 33.31164062 5.05859375 32.609375 C5.51363281 31.99578125 5.96867187 31.3821875 6.4375 30.75 C6.88996094 30.14671875 7.34242188 29.5434375 7.80859375 28.921875 C10.5878023 24.43869268 10.6173563 19.12144878 10 14 C7.56090595 8.55894405 3.99943311 4.38604498 0 0 Z " fill="#04143A" transform="translate(311,230)"/>
<path d="M0 0 C5.51101893 4.38632119 10.11123465 9.09002227 14 15 C14 15.66 14 16.32 14 17 C12.68 17 11.36 17 10 17 C9.34 17.66 8.68 18.32 8 19 C8.33 16.36 8.66 13.72 9 11 C8.236875 11.061875 7.47375 11.12375 6.6875 11.1875 C4 11 4 11 2.1875 9.5 C1.795625 9.005 1.40375 8.51 1 8 C0.01 8.495 0.01 8.495 -1 9 C-1.09765625 2.84765625 -1.09765625 2.84765625 -1 1 C-0.67 0.67 -0.34 0.34 0 0 Z " fill="#24064B" transform="translate(417,77)"/>
<path d="M0 0 C1.20205078 0.00966797 2.40410156 0.01933594 3.64257812 0.02929688 C5.51139648 0.06700195 5.51139648 0.06700195 7.41796875 0.10546875 C9.31579102 0.12577148 9.31579102 0.12577148 11.25195312 0.14648438 C14.37022518 0.18178557 17.48762917 0.23110056 20.60546875 0.29296875 C20.60546875 0.95296875 20.60546875 1.61296875 20.60546875 2.29296875 C19.36410156 2.26976562 18.12273437 2.2465625 16.84375 2.22265625 C15.20182895 2.20389144 13.55990137 2.185692 11.91796875 2.16796875 C11.10134766 2.15121094 10.28472656 2.13445312 9.44335938 2.1171875 C4.96967835 2.08096336 1.72039564 2.35383808 -2.39453125 4.29296875 C-3.38453125 4.29296875 -4.37453125 4.29296875 -5.39453125 4.29296875 C-7.37783298 5.15946341 -7.37783298 5.15946341 -9.39453125 6.29296875 C-10.72786458 6.95963542 -12.06119792 7.62630208 -13.39453125 8.29296875 C-12.4778877 5.20971316 -11.81125732 3.60797245 -9.2121582 1.64331055 C-5.889354 0.05086362 -3.67163328 -0.05220332 0 0 Z " fill="#8E2DE9" transform="translate(203.39453125,153.70703125)"/>
<path d="M0 0 C0.66 1.32 1.32 2.64 2 4 C1.34 4.66 0.68 5.32 0 6 C-0.66 6 -1.32 6 -2 6 C-3.67080281 7.65160781 -3.67080281 7.65160781 -5.375 9.75 C-7.33371653 12.06856425 -9.23225426 14.22034379 -11.4375 16.3125 C-13.33970402 17.98358097 -13.33970402 17.98358097 -13 21 C-14.98 21.99 -14.98 21.99 -17 23 C-17.33 22.34 -17.66 21.68 -18 21 C-18.66 20.67 -19.32 20.34 -20 20 C-17.96150399 17.93428372 -15.9193525 15.87240736 -13.875 13.8125 C-13.02035156 12.9452832 -13.02035156 12.9452832 -12.1484375 12.06054688 C-9.40491001 9.30143116 -6.65218091 6.6564035 -3.6328125 4.19921875 C-0.96967296 2.27247092 -0.96967296 2.27247092 0 0 Z " fill="#9127E2" transform="translate(219,295)"/>
<path d="M0 0 C1.65 0.33 3.3 0.66 5 1 C5 2.32 5 3.64 5 5 C4.01 5.33 3.02 5.66 2 6 C2 6.99 2 7.98 2 9 C1.175 9.78375 0.35 10.5675 -0.5 11.375 C-3.25854622 13.74105711 -3.25854622 13.74105711 -3.3125 16.8125 C-3.1578125 17.8953125 -3.1578125 17.8953125 -3 19 C-3.66 19 -4.32 19 -5 19 C-5.66 19.99 -6.32 20.98 -7 22 C-6.1610336 14.28150913 -4.51619418 6.45170598 0 0 Z " fill="#1E0840" transform="translate(66,100)"/>
<path d="M0 0 C9.8437615 8.34579779 19.29415054 16.57985133 27 27 C22.18717302 24.86096579 18.58787088 21.83458015 15.3125 17.75 C14.549375 16.8425 13.78625 15.935 13 15 C12.34 15 11.68 15 11 15 C11 14.34 11 13.68 11 13 C10.34 12.67 9.68 12.34 9 12 C8.360625 11.175 7.72125 10.35 7.0625 9.5 C5.17703957 6.76426486 5.17703957 6.76426486 2 6 C2 5.34 2 4.68 2 4 C1.34 3.67 0.68 3.34 0 3 C0 2.01 0 1.02 0 0 Z " fill="#2F6BE2" transform="translate(264,185)"/>
<path d="M0 0 C0.99 0.33 1.98 0.66 3 1 C3 1.99 3 2.98 3 4 C3.56203125 4.10183594 4.1240625 4.20367187 4.703125 4.30859375 C7.45339488 5.13648111 9.39095874 6.43198618 11.75 8.0625 C12.94882813 8.88427734 12.94882813 8.88427734 14.171875 9.72265625 C14.77515625 10.14417969 15.3784375 10.56570313 16 11 C15.01 11.495 15.01 11.495 14 12 C14 12.66 14 13.32 14 14 C13.34 14 12.68 14 12 14 C12 12.68 12 11.36 12 10 C11.484375 10.2475 10.96875 10.495 10.4375 10.75 C6.5120326 11.15261204 4.27284169 9.09955882 1 7 C0 6 0 6 -0.0625 2.9375 C-0.041875 1.968125 -0.02125 0.99875 0 0 Z " fill="#0A0215" transform="translate(186,336)"/>
<path d="M0 0 C0.33 0.66 0.66 1.32 1 2 C0.67 2.99 0.34 3.98 0 5 C-0.66 5 -1.32 5 -2 5 C-2 5.66 -2 6.32 -2 7 C-2.99 7.66 -3.98 8.32 -5 9 C-5.72382467 11.05925139 -5.72382467 11.05925139 -6 13 C-7.32 13.33 -8.64 13.66 -10 14 C-10.33 15.65 -10.66 17.3 -11 19 C-11.86625 18.690625 -11.86625 18.690625 -12.75 18.375 C-15.53731028 17.91044829 -16.58030999 18.66815382 -19 20 C-14.88134033 15.07769942 -10.58425399 10.48808083 -6 6 C-5.04043409 5.04290084 -4.08195345 4.08471124 -3.125 3.125 C-2.08333333 2.08333333 -1.04166667 1.04166667 0 0 Z " fill="#02072A" transform="translate(283,296)"/>
<path d="M0 0 C0 0.99 0 1.98 0 3 C-0.928125 2.896875 -1.85625 2.79375 -2.8125 2.6875 C-3.864375 2.790625 -4.91625 2.89375 -6 3 C-7.01866229 4.65532623 -8.01810813 6.32260138 -9 8 C-12.1875 8.8125 -12.1875 8.8125 -15 9 C-15.33 9.99 -15.66 10.98 -16 12 C-16.12375 11.195625 -16.2475 10.39125 -16.375 9.5625 C-16.684375 8.2940625 -16.684375 8.2940625 -17 7 C-17.66 6.67 -18.32 6.34 -19 6 C-17.27398621 5.18082358 -15.5440353 4.36993984 -13.8125 3.5625 C-12.84957031 3.11003906 -11.88664062 2.65757813 -10.89453125 2.19140625 C-7.16498866 0.65630438 -4.02406175 0 0 0 Z " fill="#412763" transform="translate(119,60)"/>
<path d="M0 0 C0.99 0 1.98 0 3 0 C3.66 0.66 4.32 1.32 5 2 C7.57061311 2.64767793 7.57061311 2.64767793 10 3 C10.33 4.98 10.66 6.96 11 9 C11.598125 9.061875 12.19625 9.12375 12.8125 9.1875 C15.90339529 10.33554682 16.5880344 12.10547052 18 15 C18 15.66 18 16.32 18 17 C18.66 17 19.32 17 20 17 C19.67 17.99 19.34 18.98 19 20 C15.8293305 16.85817898 12.66414446 13.71089125 9.5 10.5625 C8.59378906 9.66466797 7.68757812 8.76683594 6.75390625 7.84179688 C5.89667969 6.98779297 5.03945312 6.13378906 4.15625 5.25390625 C3.36025391 4.46314697 2.56425781 3.6723877 1.74414062 2.85766602 C0 1 0 1 0 0 Z " fill="#14064B" transform="translate(238,158)"/>
<path d="M0 0 C5.29012124 4.40843437 10.18808428 9.07559794 15 14 C12.16032769 14 9.76264289 13.59732819 7 13 C7 12.34 7 11.68 7 11 C5.68 10.67 4.36 10.34 3 10 C2.690625 8.906875 2.38125 7.81375 2.0625 6.6875 C1.41662103 4.44592006 0.7376883 2.2130649 0 0 Z " fill="#17013E" transform="translate(223,208)"/>
<path d="M0 0 C3.35594497 0.5786112 4.64000861 1.64000861 7 4 C7.99 4 8.98 4 10 4 C10.2475 4.969375 10.495 5.93875 10.75 6.9375 C11.36875 8.4534375 11.36875 8.4534375 12 10 C14.03243548 10.96877057 14.03243548 10.96877057 16 11 C15.67 12.65 15.34 14.3 15 16 C14.28457031 15.28328125 13.56914062 14.5665625 12.83203125 13.828125 C11.00274189 11.99819039 9.16594499 10.17690338 7.32421875 8.359375 C6.45410156 7.49828125 5.58398438 6.6371875 4.6875 5.75 C3.80449219 4.87859375 2.92148438 4.0071875 2.01171875 3.109375 C0 1 0 1 0 0 Z " fill="#6D39E6" transform="translate(229,213)"/>
<path d="M0 0 C5.12958747 7.6943812 4.25464126 18.10170277 4 27 C3.67 27 3.34 27 3 27 C2.67 22.71 2.34 18.42 2 14 C1.34 14 0.68 14 0 14 C-0.19393875 11.85473901 -0.37998676 9.70876323 -0.5625 7.5625 C-0.71912109 5.77005859 -0.71912109 5.77005859 -0.87890625 3.94140625 C-0.91886719 2.97074219 -0.95882813 2.00007813 -1 1 C-0.67 0.67 -0.34 0.34 0 0 Z " fill="#685C75" transform="translate(439,113)"/>
<path d="M0 0 C0 3.69418201 -1.28179295 5.77836178 -3 9 C-3.99 9 -4.98 9 -6 9 C-5.34 11.31 -4.68 13.62 -4 16 C-4.78375 15.649375 -5.5675 15.29875 -6.375 14.9375 C-7.24125 14.628125 -8.1075 14.31875 -9 14 C-9.99 14.495 -9.99 14.495 -11 15 C-9.58319756 10.67953102 -7.46236215 7.99538801 -4.375 4.6875 C-3.55773437 3.80449219 -2.74046875 2.92148438 -1.8984375 2.01171875 C-0.95871094 1.01591797 -0.95871094 1.01591797 0 0 Z " fill="#483564" transform="translate(81,79)"/>
<path d="M0 0 C5.34844008 0.53484401 9.35796103 2.46690767 14 5 C13.01 6.485 13.01 6.485 12 8 C9.03 7.505 9.03 7.505 6 7 C6 6.34 6 5.68 6 5 C5.01 5.33 4.02 5.66 3 6 C0 2.25 0 2.25 0 0 Z " fill="#4D3A6B" transform="translate(390,63)"/>
<path d="M0 0 C0.66 0.99 1.32 1.98 2 3 C2.99 3.66 3.98 4.32 5 5 C4.34 5 3.68 5 3 5 C2.67 5.66 2.34 6.32 2 7 C1.67 6.01 1.34 5.02 1 4 C-2.12755566 5.20012691 -2.12755566 5.20012691 -3.875 7.9375 C-4.22738107 10.31328252 -4.22738107 10.31328252 -2 13 C-3.32 13.33 -4.64 13.66 -6 14 C-6 13.34 -6 12.68 -6 12 C-7.32 11.34 -8.64 10.68 -10 10 C-6.7 6.7 -3.4 3.4 0 0 Z " fill="#060B2F" transform="translate(314,265)"/>
<path d="M0 0 C0 0.99 0 1.98 0 3 C-0.928125 3.8971875 -0.928125 3.8971875 -1.875 4.8125 C-4.2376126 6.887487 -4.2376126 6.887487 -4.8125 10.0625 C-6.12435934 13.30762573 -6.478581 13.57941888 -9.5 14.9375 C-13 16 -13 16 -15 15 C-10.05 10.05 -5.1 5.1 0 0 Z " fill="#5542D3" transform="translate(256,258)"/>
<path d="M0 0 C1.96177393 2.94266089 2.36742347 4.12432473 2.75 7.5 C2.84796875 8.2734375 2.9459375 9.046875 3.046875 9.84375 C3 12 3 12 1 15 C0.54227937 17.73872955 0.54227937 17.73872955 0.375 20.6875 C0.30023438 21.68136719 0.22546875 22.67523438 0.1484375 23.69921875 C0.09945312 24.45847656 0.05046875 25.21773437 0 26 C-0.33 26 -0.66 26 -1 26 C-1.0291544 22.60418484 -1.04685068 19.20840214 -1.0625 15.8125 C-1.07087891 14.85279297 -1.07925781 13.89308594 -1.08789062 12.90429688 C-1.09111328 11.97294922 -1.09433594 11.04160156 -1.09765625 10.08203125 C-1.10289307 9.22843018 -1.10812988 8.3748291 -1.11352539 7.49536133 C-0.99579323 4.90753253 -0.57107044 2.52338047 0 0 Z " fill="#4F4562" transform="translate(58,126)"/>
<path d="M0 0 C-1 3 -1 3 -4 4.5625 C-8.2118754 6.22623456 -12.56381915 7.14495381 -17 8 C-12.48725056 3.07700062 -7.16229542 -2.60447106 0 0 Z " fill="#62517A" transform="translate(102,68)"/>
<path d="M0 0 C4.88049925 3.9419417 9.0580583 8.11950075 13 13 C11.35 13 9.7 13 8 13 C7.67 11.35 7.34 9.7 7 8 C6.401875 7.855625 5.80375 7.71125 5.1875 7.5625 C3.43849596 7.1127561 1.71322977 6.57107659 0 6 C0 4.02 0 2.04 0 0 Z " fill="#0D0436" transform="translate(242,228)"/>
<path d="M0 0 C0.33 1.32 0.66 2.64 1 4 C0.01 4.33 -0.98 4.66 -2 5 C-2.33 4.34 -2.66 3.68 -3 3 C-3.70125 3.5775 -4.4025 4.155 -5.125 4.75 C-8.00629883 7.00492952 -10.93628219 9.00502096 -14 11 C-13.10866073 7.0781072 -12.37140241 5.31231566 -9.25 2.6875 C-6.04217245 1.02189723 -3.57545613 0.34051963 0 0 Z " fill="#280C4F" transform="translate(94,73)"/>
<path d="M0 0 C-3.9419417 4.88049925 -8.11950075 9.0580583 -13 13 C-12.67 11.68 -12.34 10.36 -12 9 C-11.34 9 -10.68 9 -10 9 C-9.731875 7.88625 -9.46375 6.7725 -9.1875 5.625 C-7.44010975 0.29086136 -5.2514258 -0.28386085 0 0 Z " fill="#3063EB" transform="translate(275,304)"/>
<path d="M0 0 C0.66 0.66 1.32 1.32 2 2 C-1.12621626 5.39417765 -3.56541027 7.6062718 -8 9 C-8 7.35 -8 5.7 -8 4 C-7.34 3.67 -6.68 3.34 -6 3 C-6 2.34 -6 1.68 -6 1 C-3.125 0.375 -3.125 0.375 0 0 Z " fill="#216DEE" transform="translate(280,296)"/>
<path d="M0 0 C-0.66 1.98 -1.32 3.96 -2 6 C-4 6 -6 6 -8 6 C-9.70532323 7.94009522 -9.70532323 7.94009522 -11 10 C-10.43518386 6.04628701 -9.28003407 3.28324906 -7 0 C-4.3333581 -1.33332095 -2.83319697 -0.67102033 0 0 Z " fill="#623DFA" transform="translate(248,274)"/>
<path d="M0 0 C4.21228561 1.56010578 6.34546845 4.4845393 9 8 C9.92350727 10.77052181 10.16329585 12.56688758 10.1875 15.4375 C10.20167969 16.19933594 10.21585937 16.96117187 10.23046875 17.74609375 C9.97612666 20.23347315 9.24017196 21.84808106 8 24 C8.03480469 23.27554687 8.06960938 22.55109375 8.10546875 21.8046875 C8.26482991 16.11321749 8.3360194 11.87572066 5 7 C4.34 6.67 3.68 6.34 3 6 C2.67 5.01 2.34 4.02 2 3 C1.34 2.67 0.68 2.34 0 2 C0 1.34 0 0.68 0 0 Z " fill="#1FA7E1" transform="translate(312,233)"/>
<path d="M0 0 C0.33 0.66 0.66 1.32 1 2 C0.360625 2.12375 -0.27875 2.2475 -0.9375 2.375 C-1.618125 2.58125 -2.29875 2.7875 -3 3 C-3.33 3.66 -3.66 4.32 -4 5 C-12.57142857 4.28571429 -12.57142857 4.28571429 -16 1 C-10.62915894 0.31798844 -5.41499441 -0.11521265 0 0 Z " fill="#473167" transform="translate(135,58)"/>
<path d="M0 0 C0.66 1.32 1.32 2.64 2 4 C1.34 4.66 0.68 5.32 0 6 C-0.66 6 -1.32 6 -2 6 C-3.40017135 7.53453067 -3.40017135 7.53453067 -4.8125 9.4375 C-6.9101844 11.9938918 -7.65584747 12.88777635 -10.875 13.9375 C-11.57625 13.958125 -12.2775 13.97875 -13 14 C-10.11093566 10.44501658 -7.25953148 7.07626154 -3.6875 4.1875 C-0.96924803 2.28130489 -0.96924803 2.28130489 0 0 Z " fill="#832FD3" transform="translate(219,295)"/>
<path d="M0 0 C5.80205656 5.64524422 5.80205656 5.64524422 8 9 C8 9.66 8 10.32 8 11 C6.68 11 5.36 11 4 11 C3.34 11.66 2.68 12.32 2 13 C2.33 10.36 2.66 7.72 3 5 C2.01 4.67 1.02 4.34 0 4 C0 2.68 0 1.36 0 0 Z " fill="#594771" transform="translate(423,83)"/>
<path d="M0 0 C3.93673644 1.31224548 6.22719294 2.91910327 9 6 C2.25 8 2.25 8 0 8 C0 5.36 0 2.72 0 0 Z " fill="#483268" transform="translate(408,71)"/>
<path d="M0 0 C0.33 0.99 0.66 1.98 1 3 C0 4 0 4 -3.0625 4.0625 C-4.031875 4.041875 -5.00125 4.02125 -6 4 C-6 4.66 -6 5.32 -6 6 C-6.99 6 -7.98 6 -9 6 C-9 5.01 -9 4.02 -9 3 C-9.99 2.67 -10.98 2.34 -12 2 C-10.37548581 1.66430703 -8.75037083 1.3315204 -7.125 1 C-6.22007812 0.814375 -5.31515625 0.62875 -4.3828125 0.4375 C-2 0 -2 0 0 0 Z " fill="#040117" transform="translate(246,342)"/>
<path d="M0 0 C0.66 0 1.32 0 2 0 C1.33333333 3.33333333 0.66666667 6.66666667 0 10 C-1.32 10 -2.64 10 -4 10 C-4.8125 8.375 -4.8125 8.375 -5 6 C-2.6875 2.75 -2.6875 2.75 0 0 Z " fill="#9626FC" transform="translate(215,302)"/>
<path d="M0 0 C0.33 0.66 0.66 1.32 1 2 C0.484375 2.53625 -0.03125 3.0725 -0.5625 3.625 C-2.32605545 6.00496499 -2.32605545 6.00496499 -1.6875 9.25 C-1.460625 10.1575 -1.23375 11.065 -1 12 C-2.98 12.99 -2.98 12.99 -5 14 C-5.33 13.34 -5.66 12.68 -6 12 C-5.34 12 -4.68 12 -4 12 C-4 11.01 -4 10.02 -4 9 C-5.98 9.66 -7.96 10.32 -10 11 C-9.278125 10.29875 -8.55625 9.5975 -7.8125 8.875 C-5.00176187 6.07229255 -2.50483774 3.07737208 0 0 Z " fill="#6939DD" transform="translate(240,274)"/>
<path d="M0 0 C0.33 0 0.66 0 1 0 C1.36923077 5.41538462 1.36923077 5.41538462 -0.5 8.375 C-0.995 8.91125 -1.49 9.4475 -2 10 C-3.32 9.67 -4.64 9.34 -6 9 C-5.67 8.01 -5.34 7.02 -5 6 C-5.66 5.67 -6.32 5.34 -7 5 C-6.34 4.67 -5.68 4.34 -5 4 C-4.34 4.33 -3.68 4.66 -3 5 C-3 4.34 -3 3.68 -3 3 C-2.01 3 -1.02 3 0 3 C0 2.01 0 1.02 0 0 Z " fill="#0DADF2" transform="translate(319,253)"/>
<path d="M0 0 C4.10447392 0.51776621 5.95699523 2.64627444 8.75 5.5625 C9.94882812 6.80193359 9.94882812 6.80193359 11.171875 8.06640625 C11.77515625 8.70449219 12.3784375 9.34257812 13 10 C12.01 10.495 12.01 10.495 11 11 C7.9375 9.875 7.9375 9.875 5 8 C4.375 5.4375 4.375 5.4375 4 3 C2.03241727 1.63979849 2.03241727 1.63979849 0 1 C0 0.67 0 0.34 0 0 Z " fill="#1489D8" transform="translate(300,222)"/>
<path d="M0 0 C0.66 0.33 1.32 0.66 2 1 C1.67 1.66 1.34 2.32 1 3 C1.66 3.33 2.32 3.66 3 4 C2.01 5.485 2.01 5.485 1 7 C-0.97119141 7.34057617 -0.97119141 7.34057617 -3.3515625 7.29296875 C-4.20234375 7.28330078 -5.053125 7.27363281 -5.9296875 7.26367188 C-6.81914062 7.23853516 -7.70859375 7.21339844 -8.625 7.1875 C-9.5221875 7.17396484 -10.419375 7.16042969 -11.34375 7.14648438 C-13.56309789 7.11106925 -15.78125188 7.06168461 -18 7 C-18 6.67 -18 6.34 -18 6 C-10.08 5.505 -10.08 5.505 -2 5 C-1.34 3.35 -0.68 1.7 0 0 Z " fill="#7038EE" transform="translate(234,337)"/>
<path d="M0 0 C0.99 0.33 1.98 0.66 3 1 C2.61479436 3.53910197 2.29902057 4.72751123 0.37109375 6.484375 C-0.26699219 6.90203125 -0.90507812 7.3196875 -1.5625 7.75 C-2.20316406 8.17796875 -2.84382813 8.6059375 -3.50390625 9.046875 C-4.24447266 9.51867187 -4.24447266 9.51867187 -5 10 C-5.66 9.67 -6.32 9.34 -7 9 C-6.21654285 7.82780457 -5.42297164 6.66236332 -4.625 5.5 C-4.18414062 4.8503125 -3.74328125 4.200625 -3.2890625 3.53125 C-2.65097656 2.77328125 -2.65097656 2.77328125 -2 2 C-1.34 2 -0.68 2 0 2 C0 1.34 0 0.68 0 0 Z " fill="#040E2D" transform="translate(322,255)"/>
<path d="M0 0 C7.89915966 1.89915966 7.89915966 1.89915966 11 5 C10.67 5.99 10.34 6.98 10 8 C6.40094092 7.44449305 5.00090201 6.25112752 2.75 3.4375 C2.22921875 2.79683594 1.7084375 2.15617188 1.171875 1.49609375 C0.78515625 1.00238281 0.3984375 0.50867188 0 0 Z " fill="#7634DF" transform="translate(221,205)"/>
<path d="M0 0 C0.99 0.33 1.98 0.66 3 1 C3 1.66 3 2.32 3 3 C4.32 3 5.64 3 7 3 C7.33 4.32 7.66 5.64 8 7 C4 7 4 7 1.25 4.5 C0.5075 3.675 -0.235 2.85 -1 2 C-0.67 1.34 -0.34 0.68 0 0 Z " fill="#9B24FA" transform="translate(201,179)"/>
<path d="M0 0 C6.16618181 -0.40214229 11.17745757 1.03181664 17 3 C16.01 3.66 15.02 4.32 14 5 C14 4.34 14 3.68 14 3 C13.34 3 12.68 3 12 3 C11.67 3.66 11.34 4.32 11 5 C6.69159287 3.92289822 3.36423277 2.96052484 0 0 Z " fill="#695982" transform="translate(373,59)"/>
<path d="M0 0 C1.04449911 3.13349732 0.93423645 3.98968256 0 7 C0.66 7.33 1.32 7.66 2 8 C-0.46735884 9.23367942 -2.26809601 9 -5 9 C-5.99 9.495 -5.99 9.495 -7 10 C-6.75 8.125 -6.75 8.125 -6 6 C-4.67532254 5.3162955 -3.34136367 4.65035814 -2 4 C-0.73195434 1.9664052 -0.73195434 1.9664052 0 0 Z " fill="#0A0216" transform="translate(279,303)"/>
<path d="M0 0 C2.9565198 0.63353996 5.54707475 1.20118815 8 3 C9.25 6.625 9.25 6.625 10 10 C2.51708428 3.84965831 2.51708428 3.84965831 0 0 Z " fill="#5646DA" transform="translate(244,229)"/>
<path d="M0 0 C-0.47365575 4.26290179 -2.92238322 6.21548958 -6 9 C-6.99 9.66 -7.98 10.32 -9 11 C-9 9.68 -9 8.36 -9 7 C-7.35 6.67 -5.7 6.34 -4 6 C-4 4.35 -4 2.7 -4 1 C-2 0 -2 0 0 0 Z " fill="#4752E1" transform="translate(262,315)"/>
<path d="M0 0 C4.52615993 3.67832017 8.39424999 7.41086363 12 12 C9.07909997 10.69063102 7.24380538 9.24380538 5 7 C4.01 6.67 3.02 6.34 2 6 C2 5.34 2 4.68 2 4 C1.34 3.67 0.68 3.34 0 3 C0 2.01 0 1.02 0 0 Z " fill="#435BE2" transform="translate(264,185)"/>
<path d="M0 0 C1.125 3.75 1.125 3.75 0 6 C0.66 6 1.32 6 2 6 C1.67 6.99 1.34 7.98 1 9 C-0.98 8.34 -2.96 7.68 -5 7 C-4.34 6.67 -3.68 6.34 -3 6 C-2.835 5.175 -2.67 4.35 -2.5 3.5 C-2.335 2.675 -2.17 1.85 -2 1 C-1.34 0.67 -0.68 0.34 0 0 Z " fill="#07021A" transform="translate(286,295)"/>
<path d="M0 0 C5.625 -0.25 5.625 -0.25 9 2 C9 2.99 9 3.98 9 5 C4.25 5.125 4.25 5.125 2 4 C2 3.01 2 2.02 2 1 C1.34 0.67 0.68 0.34 0 0 Z " fill="#6D34FC" transform="translate(225,155)"/>
<path d="M0 0 C0.99 0.33 1.98 0.66 3 1 C3.6875 3.0625 3.6875 3.0625 4 5 C3.05125 4.979375 2.1025 4.95875 1.125 4.9375 C-1.90666283 4.77448174 -1.90666283 4.77448174 -4 6 C-3.6875 4.125 -3.6875 4.125 -3 2 C-2.01 1.34 -1.02 0.68 0 0 Z " fill="#A91EFB" transform="translate(195,322)"/>
<path d="M0 0 C0.33 2.31 0.66 4.62 1 7 C0.01 7.33 -0.98 7.66 -2 8 C-2.66 5.69 -3.32 3.38 -4 1 C-2 0 -2 0 0 0 Z " fill="#1278F4" transform="translate(283,289)"/>
<path d="M0 0 C0.99 0.33 1.98 0.66 3 1 C1.35 2.98 -0.3 4.96 -2 7 C-3.32 6.67 -4.64 6.34 -6 6 C-5.01 4.35 -4.02 2.7 -3 1 C-2.01 1.33 -1.02 1.66 0 2 C0 1.34 0 0.68 0 0 Z " fill="#1190E9" transform="translate(304,272)"/>
<path d="M0 0 C2 1 2 1 3 3 C0.35261084 4.4606285 -0.89448334 5 -4 5 C-4.99 4.34 -5.98 3.68 -7 3 C-4.69631264 1.93347808 -2.35981813 0.93578995 0 0 Z " fill="#7F2FF2" transform="translate(227,291)"/>
<path d="M0 0 C3 0 3 0 4.5625 1.5 C5.036875 1.995 5.51125 2.49 6 3 C6.66 3 7.32 3 8 3 C7.67 4.65 7.34 6.3 7 8 C4.35247996 5.42215154 2.05567935 3.08351902 0 0 Z " fill="#613DDC" transform="translate(237,221)"/>
<path d="M0 0 C0.66 0.33 1.32 0.66 2 1 C2 1.99 2 2.98 2 4 C2.99 4 3.98 4 5 4 C5.33 5.65 5.66 7.3 6 9 C4.85073734 8.04578192 3.70569459 7.08647955 2.5625 6.125 C1.92441406 5.59132812 1.28632813 5.05765625 0.62890625 4.5078125 C-1 3 -1 3 -2 1 C-1.34 0.67 -0.68 0.34 0 0 Z " fill="#08114C" transform="translate(283,200)"/>
<path d="M0 0 C1.60725635 3.21451269 1.05748185 6.43612536 1 10 C0.34 10 -0.32 10 -1 10 C-1.66 10.99 -2.32 11.98 -3 13 C-2.45144652 8.428721 -1.58255197 4.32564205 0 0 Z " fill="#6F657F" transform="translate(62,109)"/>
<path d="M0 0 C0.66 0.66 1.32 1.32 2 2 C1.625 4.125 1.625 4.125 1 6 C-0.32 6 -1.64 6 -3 6 C-2.625 3.5625 -2.625 3.5625 -2 1 C-1.34 0.67 -0.68 0.34 0 0 Z " fill="#060217" transform="translate(253,329)"/>
<path d="M0 0 C2.29013653 3.4352048 2.17842973 4.985331 2 9 C1.01 9.495 1.01 9.495 0 10 C-0.19412181 8.52168779 -0.38012131 7.04230684 -0.5625 5.5625 C-0.66691406 4.73878906 -0.77132813 3.91507812 -0.87890625 3.06640625 C-0.91886719 2.38449219 -0.95882813 1.70257813 -1 1 C-0.67 0.67 -0.34 0.34 0 0 Z " fill="#48395C" transform="translate(439,113)"/>
<path d="M0 0 C0.99 0 1.98 0 3 0 C2.60196439 2.88575819 2.20990931 3.82189513 -0.0625 5.75 C-0.701875 6.1625 -1.34125 6.575 -2 7 C-2.125 4.625 -2.125 4.625 -2 2 C-1.34 1.34 -0.68 0.68 0 0 Z " fill="#1B012E" transform="translate(195,315)"/>
<path d="M0 0 C0.99 0.66 1.98 1.32 3 2 C2.01 3.485 2.01 3.485 1 5 C1.99 5.33 2.98 5.66 4 6 C3.01 6.495 3.01 6.495 2 7 C1.01 6.34 0.02 5.68 -1 5 C-1.99 5 -2.98 5 -4 5 C-4 4.34 -4 3.68 -4 3 C-2 1.375 -2 1.375 0 0 Z " fill="#070318" transform="translate(268,313)"/>
<path d="M0 0 C0.99 0 1.98 0 3 0 C1.70700306 2.88437779 0.34058637 4.87219421 -2 7 C-2.33 6.01 -2.66 5.02 -3 4 C-1.75 1.8125 -1.75 1.8125 0 0 Z " fill="#0C0319" transform="translate(312,269)"/>
<path d="M0 0 C1.32 0.66 2.64 1.32 4 2 C2 4 2 4 -0.0625 4.9375 C-2.34565884 5.90403542 -2.34565884 5.90403542 -3 9 C-2.44271087 5.65626525 -1.64826111 2.96687001 0 0 Z " fill="#55496B" transform="translate(66,100)"/>
<path d="M0 0 C0.99 0.33 1.98 0.66 3 1 C0.69 3.31 -1.62 5.62 -4 8 C-4.33 7.01 -4.66 6.02 -5 5 C-4.01 4.67 -3.02 4.34 -2 4 C-0.79117904 1.99983534 -0.79117904 1.99983534 0 0 Z " fill="#3B5FDD" transform="translate(267,309)"/>
<path d="M0 0 C0.33 0.66 0.66 1.32 1 2 C0.67 2.99 0.34 3.98 0 5 C-0.66 5 -1.32 5 -2 5 C-2 5.66 -2 6.32 -2 7 C-3.65 7.33 -5.3 7.66 -7 8 C-6.02133662 6.85373678 -5.04205413 5.70800212 -4.0625 4.5625 C-3.51722656 3.92441406 -2.97195313 3.28632813 -2.41015625 2.62890625 C-1.63204305 1.73008851 -0.84063472 0.84063472 0 0 Z " fill="#030D36" transform="translate(283,296)"/>
<path d="M0 0 C0 3.20395416 -0.74335022 5.09399739 -2 8 C-3.32 7.34 -4.64 6.68 -6 6 C-4.02 4.02 -2.04 2.04 0 0 Z " fill="#030D36" transform="translate(294,285)"/>
<path d="M0 0 C0 3.16880694 -0.2058242 4.43689172 -2 7 C-4.625 7.75 -4.625 7.75 -7 8 C-6.02133662 6.85373678 -5.04205413 5.70800212 -4.0625 4.5625 C-3.51722656 3.92441406 -2.97195312 3.28632813 -2.41015625 2.62890625 C-1.63204305 1.73008851 -0.84063472 0.84063472 0 0 Z " fill="#7233C6" transform="translate(229,285)"/>
<path d="M0 0 C0.99 0.99 1.98 1.98 3 3 C2.34 4.65 1.68 6.3 1 8 C0.01 7.67 -0.98 7.34 -2 7 C-1.34 4.69 -0.68 2.38 0 0 Z " fill="#039BFA" transform="translate(306,264)"/>
<path d="M0 0 C0.99 0 1.98 0 3 0 C3 0.66 3 1.32 3 2 C3.66 2 4.32 2 5 2 C5.33 1.34 5.66 0.68 6 0 C6.625 1.875 6.625 1.875 7 4 C6.34 4.66 5.68 5.32 5 6 C3.35 4.02 1.7 2.04 0 0 Z " fill="#0A1447" transform="translate(289,209)"/>
<path d="M0 0 C0 0.99 0 1.98 0 3 C-3 3 -6 3 -9 3 C-8.67 2.34 -8.34 1.68 -8 1 C-5.2303041 0.27113266 -2.87137415 0 0 0 Z " fill="#5A4B70" transform="translate(119,60)"/>
<path d="M0 0 C2.97 0.495 2.97 0.495 6 1 C4.35 2.32 2.7 3.64 1 5 C0.34 4.01 -0.32 3.02 -1 2 C-0.67 1.34 -0.34 0.68 0 0 Z " fill="#060312" transform="translate(256,324)"/>
<path d="M0 0 C0.99 0.33 1.98 0.66 3 1 C0.36 2.98 -2.28 4.96 -5 7 C-4 3 -4 3 -2.125 1.1875 C-1.42375 0.795625 -0.7225 0.40375 0 0 Z " fill="#1685D9" transform="translate(298,279)"/>
<path d="M0 0 C1.32 0.66 2.64 1.32 4 2 C2.35 3.65 0.7 5.3 -1 7 C-1.66 6.67 -2.32 6.34 -3 6 C-2.01 4.02 -1.02 2.04 0 0 Z " fill="#6644E5" transform="translate(238,336)"/>
<path d="M0 0 C1.98 0 3.96 0 6 0 C6.33 0.99 6.66 1.98 7 3 C6.34 3.66 5.68 4.32 5 5 C3.35 3.35 1.7 1.7 0 0 Z " fill="#0B0A45" transform="translate(275,195)"/>
<path d="M0 0 C2.1723491 3.25852365 4.07119658 6.59244728 6 10 C2.19118361 8.55527654 0.70257114 6.67396929 -1 3 C-0.67 2.01 -0.34 1.02 0 0 Z " fill="#28024B" transform="translate(189,168)"/>
<path d="M0 0 C-0.598125 0.28875 -1.19625 0.5775 -1.8125 0.875 C-4.19327792 2.04742026 -4.19327792 2.04742026 -7 4 C-7.99 3.01 -8.98 2.02 -10 1 C-6.78548731 -0.60725635 -3.56387464 -0.05748185 0 0 Z " fill="#9F21FC" transform="translate(206,155)"/>
<path d="M0 0 C1.32 0.33 2.64 0.66 4 1 C3.67 1.66 3.34 2.32 3 3 C2.7834375 3.99 2.7834375 3.99 2.5625 5 C2 7 2 7 0 9 C0 6.03 0 3.06 0 0 Z " fill="#19083A" transform="translate(58,152)"/>
<path d="M0 0 C1.98 1.65 3.96 3.3 6 5 C5.34 5.66 4.68 6.32 4 7 C3.34 5.68 2.68 4.36 2 3 C1.01 3 0.02 3 -1 3 C-0.67 2.01 -0.34 1.02 0 0 Z " fill="#5B4C70" transform="translate(417,77)"/>
<path d="M0 0 C1.67542976 0.28604898 3.34385343 0.61781233 5 1 C4.67 1.99 4.34 2.98 4 4 C1.9375 4.6875 1.9375 4.6875 0 5 C-0.5625 3.0625 -0.5625 3.0625 -1 1 C-0.67 0.67 -0.34 0.34 0 0 Z " fill="#422766" transform="translate(97,67)"/>
</svg>
